%TF.GenerationSoftware,KiCad,Pcbnew,5.1.10*%
%TF.CreationDate,2021-10-11T19:57:22-04:00*%
%TF.ProjectId,6_key_macro,365f6b65-795f-46d6-9163-726f2e6b6963,rev?*%
%TF.SameCoordinates,Original*%
%TF.FileFunction,Copper,L2,Bot*%
%TF.FilePolarity,Positive*%
%FSLAX46Y46*%
G04 Gerber Fmt 4.6, Leading zero omitted, Abs format (unit mm)*
G04 Created by KiCad (PCBNEW 5.1.10) date 2021-10-11 19:57:22*
%MOMM*%
%LPD*%
G01*
G04 APERTURE LIST*
%TA.AperFunction,ComponentPad*%
%ADD10C,1.690600*%
%TD*%
%TA.AperFunction,ComponentPad*%
%ADD11C,2.200000*%
%TD*%
%TA.AperFunction,ComponentPad*%
%ADD12O,1.000000X2.100000*%
%TD*%
%TA.AperFunction,ComponentPad*%
%ADD13O,1.000000X1.600000*%
%TD*%
%TA.AperFunction,ViaPad*%
%ADD14C,0.800000*%
%TD*%
%TA.AperFunction,ViaPad*%
%ADD15C,1.000000*%
%TD*%
%TA.AperFunction,Conductor*%
%ADD16C,0.400000*%
%TD*%
%TA.AperFunction,Conductor*%
%ADD17C,0.254000*%
%TD*%
%TA.AperFunction,Conductor*%
%ADD18C,0.100000*%
%TD*%
G04 APERTURE END LIST*
D10*
%TO.P,SW4,4*%
%TO.N,VBUS*%
X110805000Y-157525000D03*
%TO.P,SW4,3*%
%TO.N,Net-(R6-Pad1)*%
X108265000Y-157525000D03*
D11*
%TO.P,SW4,2*%
%TO.N,/SW4*%
X112075000Y-147365000D03*
%TO.P,SW4,1*%
%TO.N,GND*%
X105725000Y-149905000D03*
%TD*%
D10*
%TO.P,SW3,4*%
%TO.N,VBUS*%
X110805000Y-137355000D03*
%TO.P,SW3,3*%
%TO.N,Net-(R7-Pad1)*%
X108265000Y-137355000D03*
D11*
%TO.P,SW3,2*%
%TO.N,/SW3*%
X112075000Y-127195000D03*
%TO.P,SW3,1*%
%TO.N,GND*%
X105725000Y-129735000D03*
%TD*%
D10*
%TO.P,SW5,4*%
%TO.N,VBUS*%
X130975000Y-137355000D03*
%TO.P,SW5,3*%
%TO.N,Net-(R8-Pad1)*%
X128435000Y-137355000D03*
D11*
%TO.P,SW5,2*%
%TO.N,/SW5*%
X132245000Y-127195000D03*
%TO.P,SW5,1*%
%TO.N,GND*%
X125895000Y-129735000D03*
%TD*%
D10*
%TO.P,SW6,4*%
%TO.N,VBUS*%
X130975000Y-157525000D03*
%TO.P,SW6,3*%
%TO.N,Net-(R9-Pad1)*%
X128435000Y-157525000D03*
D11*
%TO.P,SW6,2*%
%TO.N,/SW6*%
X132245000Y-147365000D03*
%TO.P,SW6,1*%
%TO.N,GND*%
X125895000Y-149905000D03*
%TD*%
D10*
%TO.P,SW2,4*%
%TO.N,VBUS*%
X90635000Y-157525000D03*
%TO.P,SW2,3*%
%TO.N,Net-(R4-Pad1)*%
X88095000Y-157525000D03*
D11*
%TO.P,SW2,2*%
%TO.N,/SW2*%
X91905000Y-147365000D03*
%TO.P,SW2,1*%
%TO.N,GND*%
X85555000Y-149905000D03*
%TD*%
D10*
%TO.P,SW1,4*%
%TO.N,VBUS*%
X90635000Y-137355000D03*
%TO.P,SW1,3*%
%TO.N,Net-(R5-Pad1)*%
X88095000Y-137355000D03*
D11*
%TO.P,SW1,2*%
%TO.N,/SW1*%
X91905000Y-127195000D03*
%TO.P,SW1,1*%
%TO.N,GND*%
X85555000Y-129735000D03*
%TD*%
D12*
%TO.P,P1,S1*%
%TO.N,Net-(FB1-Pad2)*%
X65880000Y-120530000D03*
X74520000Y-120530000D03*
D13*
X74520000Y-116350000D03*
X65880000Y-116350000D03*
%TD*%
D14*
%TO.N,GND*%
X77500000Y-124000000D03*
X63000000Y-122000000D03*
X73500000Y-134500000D03*
D15*
X73500000Y-124000000D03*
D14*
X72000000Y-128000000D03*
X69500000Y-149000000D03*
X57500000Y-122500000D03*
X62500000Y-128000000D03*
X57250000Y-146749976D03*
X60250000Y-135500000D03*
%TO.N,+3V3*%
X69500000Y-133000000D03*
X62749994Y-145500000D03*
X57499996Y-134000000D03*
%TO.N,VBUS*%
X69000000Y-125500000D03*
%TO.N,/V_LED*%
X82000000Y-120000000D03*
X80500000Y-145500000D03*
%TD*%
D16*
%TO.N,+3V3*%
X62749994Y-145500000D02*
X57499996Y-140250002D01*
X69500000Y-133000000D02*
X58499996Y-133000000D01*
X58499996Y-133000000D02*
X57499996Y-134000000D01*
X57499996Y-140250002D02*
X57499996Y-134000000D01*
%TO.N,VBUS*%
X92780000Y-139500000D02*
X90635000Y-137355000D01*
X137000000Y-140000000D02*
X136500000Y-139500000D01*
X137000000Y-154500000D02*
X137000000Y-140000000D01*
X136000000Y-155500000D02*
X137000000Y-154500000D01*
X90635000Y-157525000D02*
X92660000Y-155500000D01*
X110805000Y-137355000D02*
X112950000Y-139500000D01*
X112950000Y-139500000D02*
X113000000Y-139500000D01*
X113000000Y-139500000D02*
X92780000Y-139500000D01*
X133120000Y-139500000D02*
X134000000Y-139500000D01*
X130975000Y-137355000D02*
X133120000Y-139500000D01*
X134000000Y-139500000D02*
X113000000Y-139500000D01*
X136500000Y-139500000D02*
X134000000Y-139500000D01*
X129500000Y-155500000D02*
X129500000Y-156050000D01*
X129500000Y-156050000D02*
X130975000Y-157525000D01*
X129500000Y-155500000D02*
X136000000Y-155500000D01*
X110000000Y-155500000D02*
X110000000Y-156720000D01*
X110000000Y-156720000D02*
X110805000Y-157525000D01*
X110000000Y-155500000D02*
X129500000Y-155500000D01*
X92660000Y-155500000D02*
X93000000Y-155500000D01*
X93000000Y-155500000D02*
X110000000Y-155500000D01*
X85452998Y-155500000D02*
X93000000Y-155500000D01*
X71000000Y-128184002D02*
X71000000Y-141047002D01*
X69000000Y-126184002D02*
X71000000Y-128184002D01*
X71000000Y-141047002D02*
X85452998Y-155500000D01*
X69000000Y-125500000D02*
X69000000Y-126184002D01*
%TO.N,/V_LED*%
X82000000Y-120000000D02*
X82000000Y-144000000D01*
X82000000Y-144000000D02*
X80500000Y-145500000D01*
%TD*%
D17*
%TO.N,GND*%
X64761423Y-115827501D02*
X64745000Y-115994248D01*
X64745000Y-116705751D01*
X64761423Y-116872498D01*
X64826324Y-117086446D01*
X64931716Y-117283623D01*
X65073551Y-117456449D01*
X65246377Y-117598284D01*
X65443553Y-117703676D01*
X65657501Y-117768577D01*
X65880000Y-117790491D01*
X66102498Y-117768577D01*
X66316446Y-117703676D01*
X66513623Y-117598284D01*
X66686449Y-117456449D01*
X66828284Y-117283623D01*
X66933676Y-117086447D01*
X66998577Y-116872499D01*
X67015000Y-116705752D01*
X67015000Y-115994249D01*
X66998577Y-115827502D01*
X66947765Y-115660000D01*
X73452234Y-115660000D01*
X73401423Y-115827501D01*
X73385000Y-115994248D01*
X73385000Y-116705751D01*
X73401423Y-116872498D01*
X73466324Y-117086446D01*
X73571716Y-117283623D01*
X73713551Y-117456449D01*
X73886377Y-117598284D01*
X74083553Y-117703676D01*
X74297501Y-117768577D01*
X74520000Y-117790491D01*
X74742498Y-117768577D01*
X74956446Y-117703676D01*
X75153623Y-117598284D01*
X75326449Y-117456449D01*
X75468284Y-117283623D01*
X75573676Y-117086447D01*
X75638577Y-116872499D01*
X75655000Y-116705752D01*
X75655000Y-115994249D01*
X75638577Y-115827502D01*
X75587765Y-115660000D01*
X140340000Y-115660000D01*
X140340001Y-169340000D01*
X56660000Y-169340000D01*
X56660000Y-166279872D01*
X57265000Y-166279872D01*
X57265000Y-166720128D01*
X57350890Y-167151925D01*
X57519369Y-167558669D01*
X57763962Y-167924729D01*
X58075271Y-168236038D01*
X58441331Y-168480631D01*
X58848075Y-168649110D01*
X59279872Y-168735000D01*
X59720128Y-168735000D01*
X60151925Y-168649110D01*
X60558669Y-168480631D01*
X60924729Y-168236038D01*
X61236038Y-167924729D01*
X61480631Y-167558669D01*
X61649110Y-167151925D01*
X61735000Y-166720128D01*
X61735000Y-166279872D01*
X135265000Y-166279872D01*
X135265000Y-166720128D01*
X135350890Y-167151925D01*
X135519369Y-167558669D01*
X135763962Y-167924729D01*
X136075271Y-168236038D01*
X136441331Y-168480631D01*
X136848075Y-168649110D01*
X137279872Y-168735000D01*
X137720128Y-168735000D01*
X138151925Y-168649110D01*
X138558669Y-168480631D01*
X138924729Y-168236038D01*
X139236038Y-167924729D01*
X139480631Y-167558669D01*
X139649110Y-167151925D01*
X139735000Y-166720128D01*
X139735000Y-166279872D01*
X139649110Y-165848075D01*
X139480631Y-165441331D01*
X139236038Y-165075271D01*
X138924729Y-164763962D01*
X138558669Y-164519369D01*
X138151925Y-164350890D01*
X137720128Y-164265000D01*
X137279872Y-164265000D01*
X136848075Y-164350890D01*
X136441331Y-164519369D01*
X136075271Y-164763962D01*
X135763962Y-165075271D01*
X135519369Y-165441331D01*
X135350890Y-165848075D01*
X135265000Y-166279872D01*
X61735000Y-166279872D01*
X61649110Y-165848075D01*
X61480631Y-165441331D01*
X61236038Y-165075271D01*
X60924729Y-164763962D01*
X60558669Y-164519369D01*
X60151925Y-164350890D01*
X59720128Y-164265000D01*
X59279872Y-164265000D01*
X58848075Y-164350890D01*
X58441331Y-164519369D01*
X58075271Y-164763962D01*
X57763962Y-165075271D01*
X57519369Y-165441331D01*
X57350890Y-165848075D01*
X57265000Y-166279872D01*
X56660000Y-166279872D01*
X56660000Y-134605808D01*
X56664997Y-134613286D01*
X56664996Y-140208983D01*
X56660956Y-140250002D01*
X56664996Y-140291020D01*
X56677078Y-140413690D01*
X56724824Y-140571088D01*
X56802360Y-140716147D01*
X56906705Y-140843293D01*
X56938575Y-140869448D01*
X61725902Y-145656775D01*
X61754768Y-145801898D01*
X61832789Y-145990256D01*
X61946057Y-146159774D01*
X62090220Y-146303937D01*
X62259738Y-146417205D01*
X62448096Y-146495226D01*
X62648055Y-146535000D01*
X62851933Y-146535000D01*
X63051892Y-146495226D01*
X63240250Y-146417205D01*
X63409768Y-146303937D01*
X63553931Y-146159774D01*
X63667199Y-145990256D01*
X63745220Y-145801898D01*
X63784994Y-145601939D01*
X63784994Y-145398061D01*
X63745220Y-145198102D01*
X63667199Y-145009744D01*
X63553931Y-144840226D01*
X63409768Y-144696063D01*
X63240250Y-144582795D01*
X63051892Y-144504774D01*
X62906769Y-144475908D01*
X58334996Y-139904135D01*
X58334996Y-134613285D01*
X58417201Y-134490256D01*
X58495222Y-134301898D01*
X58524088Y-134156775D01*
X58845864Y-133835000D01*
X68886715Y-133835000D01*
X69009744Y-133917205D01*
X69198102Y-133995226D01*
X69398061Y-134035000D01*
X69601939Y-134035000D01*
X69801898Y-133995226D01*
X69990256Y-133917205D01*
X70159774Y-133803937D01*
X70165000Y-133798711D01*
X70165001Y-141005973D01*
X70160960Y-141047002D01*
X70177082Y-141210690D01*
X70224828Y-141368088D01*
X70224829Y-141368089D01*
X70302365Y-141513148D01*
X70406710Y-141640293D01*
X70438574Y-141666443D01*
X84833559Y-156061430D01*
X84859707Y-156093291D01*
X84986852Y-156197636D01*
X85131911Y-156275172D01*
X85289309Y-156322918D01*
X85411979Y-156335000D01*
X85411980Y-156335000D01*
X85452998Y-156339040D01*
X85494016Y-156335000D01*
X87211491Y-156335000D01*
X87151363Y-156375176D01*
X86945176Y-156581363D01*
X86783175Y-156823815D01*
X86671587Y-157093212D01*
X86614700Y-157379203D01*
X86614700Y-157670797D01*
X86671587Y-157956788D01*
X86783175Y-158226185D01*
X86945176Y-158468637D01*
X87151363Y-158674824D01*
X87393815Y-158836825D01*
X87663212Y-158948413D01*
X87949203Y-159005300D01*
X88240797Y-159005300D01*
X88526788Y-158948413D01*
X88796185Y-158836825D01*
X89038637Y-158674824D01*
X89244824Y-158468637D01*
X89365000Y-158288781D01*
X89485176Y-158468637D01*
X89691363Y-158674824D01*
X89933815Y-158836825D01*
X90203212Y-158948413D01*
X90489203Y-159005300D01*
X90780797Y-159005300D01*
X91066788Y-158948413D01*
X91336185Y-158836825D01*
X91578637Y-158674824D01*
X91784824Y-158468637D01*
X91946825Y-158226185D01*
X92058413Y-157956788D01*
X92115300Y-157670797D01*
X92115300Y-157379203D01*
X92089810Y-157251057D01*
X93005868Y-156335000D01*
X107381491Y-156335000D01*
X107321363Y-156375176D01*
X107115176Y-156581363D01*
X106953175Y-156823815D01*
X106841587Y-157093212D01*
X106784700Y-157379203D01*
X106784700Y-157670797D01*
X106841587Y-157956788D01*
X106953175Y-158226185D01*
X107115176Y-158468637D01*
X107321363Y-158674824D01*
X107563815Y-158836825D01*
X107833212Y-158948413D01*
X108119203Y-159005300D01*
X108410797Y-159005300D01*
X108696788Y-158948413D01*
X108966185Y-158836825D01*
X109208637Y-158674824D01*
X109414824Y-158468637D01*
X109535000Y-158288781D01*
X109655176Y-158468637D01*
X109861363Y-158674824D01*
X110103815Y-158836825D01*
X110373212Y-158948413D01*
X110659203Y-159005300D01*
X110950797Y-159005300D01*
X111236788Y-158948413D01*
X111506185Y-158836825D01*
X111748637Y-158674824D01*
X111954824Y-158468637D01*
X112116825Y-158226185D01*
X112228413Y-157956788D01*
X112285300Y-157670797D01*
X112285300Y-157379203D01*
X112228413Y-157093212D01*
X112116825Y-156823815D01*
X111954824Y-156581363D01*
X111748637Y-156375176D01*
X111688509Y-156335000D01*
X127551491Y-156335000D01*
X127491363Y-156375176D01*
X127285176Y-156581363D01*
X127123175Y-156823815D01*
X127011587Y-157093212D01*
X126954700Y-157379203D01*
X126954700Y-157670797D01*
X127011587Y-157956788D01*
X127123175Y-158226185D01*
X127285176Y-158468637D01*
X127491363Y-158674824D01*
X127733815Y-158836825D01*
X128003212Y-158948413D01*
X128289203Y-159005300D01*
X128580797Y-159005300D01*
X128866788Y-158948413D01*
X129136185Y-158836825D01*
X129378637Y-158674824D01*
X129584824Y-158468637D01*
X129705000Y-158288781D01*
X129825176Y-158468637D01*
X130031363Y-158674824D01*
X130273815Y-158836825D01*
X130543212Y-158948413D01*
X130829203Y-159005300D01*
X131120797Y-159005300D01*
X131406788Y-158948413D01*
X131676185Y-158836825D01*
X131918637Y-158674824D01*
X132124824Y-158468637D01*
X132286825Y-158226185D01*
X132398413Y-157956788D01*
X132455300Y-157670797D01*
X132455300Y-157379203D01*
X132398413Y-157093212D01*
X132286825Y-156823815D01*
X132124824Y-156581363D01*
X131918637Y-156375176D01*
X131858509Y-156335000D01*
X135958982Y-156335000D01*
X136000000Y-156339040D01*
X136041018Y-156335000D01*
X136041019Y-156335000D01*
X136163689Y-156322918D01*
X136321087Y-156275172D01*
X136466146Y-156197636D01*
X136593291Y-156093291D01*
X136619445Y-156061422D01*
X137561433Y-155119436D01*
X137593291Y-155093291D01*
X137697636Y-154966146D01*
X137775172Y-154821087D01*
X137822918Y-154663689D01*
X137835000Y-154541019D01*
X137835000Y-154541018D01*
X137839040Y-154500000D01*
X137835000Y-154458982D01*
X137835000Y-140041018D01*
X137839040Y-140000000D01*
X137822918Y-139836312D01*
X137818300Y-139821086D01*
X137775172Y-139678913D01*
X137697636Y-139533854D01*
X137593291Y-139406709D01*
X137561426Y-139380558D01*
X137119445Y-138938578D01*
X137093291Y-138906709D01*
X136966146Y-138802364D01*
X136821087Y-138724828D01*
X136663689Y-138677082D01*
X136541019Y-138665000D01*
X136541018Y-138665000D01*
X136500000Y-138660960D01*
X136458982Y-138665000D01*
X133465868Y-138665000D01*
X132429810Y-137628943D01*
X132455300Y-137500797D01*
X132455300Y-137209203D01*
X132398413Y-136923212D01*
X132286825Y-136653815D01*
X132124824Y-136411363D01*
X131918637Y-136205176D01*
X131676185Y-136043175D01*
X131406788Y-135931587D01*
X131120797Y-135874700D01*
X130829203Y-135874700D01*
X130543212Y-135931587D01*
X130273815Y-136043175D01*
X130031363Y-136205176D01*
X129825176Y-136411363D01*
X129705000Y-136591219D01*
X129584824Y-136411363D01*
X129378637Y-136205176D01*
X129136185Y-136043175D01*
X128866788Y-135931587D01*
X128580797Y-135874700D01*
X128289203Y-135874700D01*
X128003212Y-135931587D01*
X127733815Y-136043175D01*
X127491363Y-136205176D01*
X127285176Y-136411363D01*
X127123175Y-136653815D01*
X127011587Y-136923212D01*
X126954700Y-137209203D01*
X126954700Y-137500797D01*
X127011587Y-137786788D01*
X127123175Y-138056185D01*
X127285176Y-138298637D01*
X127491363Y-138504824D01*
X127731084Y-138665000D01*
X113295868Y-138665000D01*
X112259810Y-137628943D01*
X112285300Y-137500797D01*
X112285300Y-137209203D01*
X112228413Y-136923212D01*
X112116825Y-136653815D01*
X111954824Y-136411363D01*
X111748637Y-136205176D01*
X111506185Y-136043175D01*
X111236788Y-135931587D01*
X110950797Y-135874700D01*
X110659203Y-135874700D01*
X110373212Y-135931587D01*
X110103815Y-136043175D01*
X109861363Y-136205176D01*
X109655176Y-136411363D01*
X109535000Y-136591219D01*
X109414824Y-136411363D01*
X109208637Y-136205176D01*
X108966185Y-136043175D01*
X108696788Y-135931587D01*
X108410797Y-135874700D01*
X108119203Y-135874700D01*
X107833212Y-135931587D01*
X107563815Y-136043175D01*
X107321363Y-136205176D01*
X107115176Y-136411363D01*
X106953175Y-136653815D01*
X106841587Y-136923212D01*
X106784700Y-137209203D01*
X106784700Y-137500797D01*
X106841587Y-137786788D01*
X106953175Y-138056185D01*
X107115176Y-138298637D01*
X107321363Y-138504824D01*
X107561084Y-138665000D01*
X93125868Y-138665000D01*
X92089810Y-137628943D01*
X92115300Y-137500797D01*
X92115300Y-137209203D01*
X92058413Y-136923212D01*
X91946825Y-136653815D01*
X91784824Y-136411363D01*
X91578637Y-136205176D01*
X91336185Y-136043175D01*
X91066788Y-135931587D01*
X90780797Y-135874700D01*
X90489203Y-135874700D01*
X90203212Y-135931587D01*
X89933815Y-136043175D01*
X89691363Y-136205176D01*
X89485176Y-136411363D01*
X89365000Y-136591219D01*
X89244824Y-136411363D01*
X89038637Y-136205176D01*
X88796185Y-136043175D01*
X88526788Y-135931587D01*
X88240797Y-135874700D01*
X87949203Y-135874700D01*
X87663212Y-135931587D01*
X87393815Y-136043175D01*
X87151363Y-136205176D01*
X86945176Y-136411363D01*
X86783175Y-136653815D01*
X86671587Y-136923212D01*
X86614700Y-137209203D01*
X86614700Y-137500797D01*
X86671587Y-137786788D01*
X86783175Y-138056185D01*
X86945176Y-138298637D01*
X87151363Y-138504824D01*
X87393815Y-138666825D01*
X87663212Y-138778413D01*
X87949203Y-138835300D01*
X88240797Y-138835300D01*
X88526788Y-138778413D01*
X88796185Y-138666825D01*
X89038637Y-138504824D01*
X89244824Y-138298637D01*
X89365000Y-138118781D01*
X89485176Y-138298637D01*
X89691363Y-138504824D01*
X89933815Y-138666825D01*
X90203212Y-138778413D01*
X90489203Y-138835300D01*
X90780797Y-138835300D01*
X90908943Y-138809810D01*
X92160559Y-140061427D01*
X92186709Y-140093291D01*
X92272488Y-140163688D01*
X92313854Y-140197636D01*
X92458913Y-140275172D01*
X92616311Y-140322918D01*
X92779999Y-140339040D01*
X92821018Y-140335000D01*
X112908981Y-140335000D01*
X112949999Y-140339040D01*
X112991018Y-140335000D01*
X133078981Y-140335000D01*
X133119999Y-140339040D01*
X133161018Y-140335000D01*
X136154133Y-140335000D01*
X136165001Y-140345868D01*
X136165000Y-151830797D01*
X136123144Y-151729747D01*
X135957893Y-151482431D01*
X135747569Y-151272107D01*
X135500253Y-151106856D01*
X135225451Y-150993029D01*
X134933722Y-150935000D01*
X134636278Y-150935000D01*
X134344549Y-150993029D01*
X134069747Y-151106856D01*
X133822431Y-151272107D01*
X133612107Y-151482431D01*
X133446856Y-151729747D01*
X133333029Y-152004549D01*
X133275000Y-152296278D01*
X133275000Y-152593722D01*
X133333029Y-152885451D01*
X133446856Y-153160253D01*
X133612107Y-153407569D01*
X133822431Y-153617893D01*
X134069747Y-153783144D01*
X134344549Y-153896971D01*
X134636278Y-153955000D01*
X134933722Y-153955000D01*
X135225451Y-153896971D01*
X135500253Y-153783144D01*
X135747569Y-153617893D01*
X135957893Y-153407569D01*
X136123144Y-153160253D01*
X136165000Y-153059204D01*
X136165000Y-154154131D01*
X135654132Y-154665000D01*
X131125411Y-154665000D01*
X131384715Y-154491738D01*
X131751738Y-154124715D01*
X132040107Y-153693141D01*
X132238739Y-153213601D01*
X132340000Y-152704525D01*
X132340000Y-152185475D01*
X132238739Y-151676399D01*
X132040107Y-151196859D01*
X131751738Y-150765285D01*
X131384715Y-150398262D01*
X130953141Y-150109893D01*
X130473601Y-149911261D01*
X129964525Y-149810000D01*
X129445475Y-149810000D01*
X128936399Y-149911261D01*
X128456859Y-150109893D01*
X128025285Y-150398262D01*
X127658262Y-150765285D01*
X127369893Y-151196859D01*
X127171261Y-151676399D01*
X127070000Y-152185475D01*
X127070000Y-152704525D01*
X127171261Y-153213601D01*
X127369893Y-153693141D01*
X127658262Y-154124715D01*
X128025285Y-154491738D01*
X128284589Y-154665000D01*
X110955411Y-154665000D01*
X111214715Y-154491738D01*
X111581738Y-154124715D01*
X111870107Y-153693141D01*
X112068739Y-153213601D01*
X112170000Y-152704525D01*
X112170000Y-152296278D01*
X113105000Y-152296278D01*
X113105000Y-152593722D01*
X113163029Y-152885451D01*
X113276856Y-153160253D01*
X113442107Y-153407569D01*
X113652431Y-153617893D01*
X113899747Y-153783144D01*
X114174549Y-153896971D01*
X114466278Y-153955000D01*
X114763722Y-153955000D01*
X115055451Y-153896971D01*
X115330253Y-153783144D01*
X115577569Y-153617893D01*
X115787893Y-153407569D01*
X115953144Y-153160253D01*
X116066971Y-152885451D01*
X116125000Y-152593722D01*
X116125000Y-152296278D01*
X123115000Y-152296278D01*
X123115000Y-152593722D01*
X123173029Y-152885451D01*
X123286856Y-153160253D01*
X123452107Y-153407569D01*
X123662431Y-153617893D01*
X123909747Y-153783144D01*
X124184549Y-153896971D01*
X124476278Y-153955000D01*
X124773722Y-153955000D01*
X125065451Y-153896971D01*
X125340253Y-153783144D01*
X125587569Y-153617893D01*
X125797893Y-153407569D01*
X125963144Y-153160253D01*
X126076971Y-152885451D01*
X126135000Y-152593722D01*
X126135000Y-152296278D01*
X126076971Y-152004549D01*
X125963144Y-151729747D01*
X125906074Y-151644335D01*
X125953639Y-151647409D01*
X126292439Y-151602489D01*
X126615966Y-151492336D01*
X126814274Y-151386338D01*
X126922107Y-151111712D01*
X125895000Y-150084605D01*
X125880858Y-150098748D01*
X125701253Y-149919143D01*
X125715395Y-149905000D01*
X126074605Y-149905000D01*
X127101712Y-150932107D01*
X127376338Y-150824274D01*
X127527216Y-150517616D01*
X127615369Y-150187415D01*
X127637409Y-149846361D01*
X127592489Y-149507561D01*
X127482336Y-149184034D01*
X127376338Y-148985726D01*
X127101712Y-148877893D01*
X126074605Y-149905000D01*
X125715395Y-149905000D01*
X124688288Y-148877893D01*
X124413662Y-148985726D01*
X124262784Y-149292384D01*
X124174631Y-149622585D01*
X124152591Y-149963639D01*
X124197511Y-150302439D01*
X124307664Y-150625966D01*
X124413662Y-150824274D01*
X124688286Y-150932106D01*
X124685392Y-150935000D01*
X124476278Y-150935000D01*
X124184549Y-150993029D01*
X123909747Y-151106856D01*
X123662431Y-151272107D01*
X123452107Y-151482431D01*
X123286856Y-151729747D01*
X123173029Y-152004549D01*
X123115000Y-152296278D01*
X116125000Y-152296278D01*
X116066971Y-152004549D01*
X115953144Y-151729747D01*
X115787893Y-151482431D01*
X115577569Y-151272107D01*
X115330253Y-151106856D01*
X115055451Y-150993029D01*
X114763722Y-150935000D01*
X114466278Y-150935000D01*
X114174549Y-150993029D01*
X113899747Y-151106856D01*
X113652431Y-151272107D01*
X113442107Y-151482431D01*
X113276856Y-151729747D01*
X113163029Y-152004549D01*
X113105000Y-152296278D01*
X112170000Y-152296278D01*
X112170000Y-152185475D01*
X112068739Y-151676399D01*
X111870107Y-151196859D01*
X111581738Y-150765285D01*
X111214715Y-150398262D01*
X110783141Y-150109893D01*
X110303601Y-149911261D01*
X109794525Y-149810000D01*
X109275475Y-149810000D01*
X108766399Y-149911261D01*
X108286859Y-150109893D01*
X107855285Y-150398262D01*
X107488262Y-150765285D01*
X107199893Y-151196859D01*
X107001261Y-151676399D01*
X106900000Y-152185475D01*
X106900000Y-152704525D01*
X107001261Y-153213601D01*
X107199893Y-153693141D01*
X107488262Y-154124715D01*
X107855285Y-154491738D01*
X108114589Y-154665000D01*
X92701007Y-154665000D01*
X92659999Y-154660961D01*
X92618991Y-154665000D01*
X90785411Y-154665000D01*
X91044715Y-154491738D01*
X91411738Y-154124715D01*
X91700107Y-153693141D01*
X91898739Y-153213601D01*
X92000000Y-152704525D01*
X92000000Y-152296278D01*
X92935000Y-152296278D01*
X92935000Y-152593722D01*
X92993029Y-152885451D01*
X93106856Y-153160253D01*
X93272107Y-153407569D01*
X93482431Y-153617893D01*
X93729747Y-153783144D01*
X94004549Y-153896971D01*
X94296278Y-153955000D01*
X94593722Y-153955000D01*
X94885451Y-153896971D01*
X95160253Y-153783144D01*
X95407569Y-153617893D01*
X95617893Y-153407569D01*
X95783144Y-153160253D01*
X95896971Y-152885451D01*
X95955000Y-152593722D01*
X95955000Y-152296278D01*
X102945000Y-152296278D01*
X102945000Y-152593722D01*
X103003029Y-152885451D01*
X103116856Y-153160253D01*
X103282107Y-153407569D01*
X103492431Y-153617893D01*
X103739747Y-153783144D01*
X104014549Y-153896971D01*
X104306278Y-153955000D01*
X104603722Y-153955000D01*
X104895451Y-153896971D01*
X105170253Y-153783144D01*
X105417569Y-153617893D01*
X105627893Y-153407569D01*
X105793144Y-153160253D01*
X105906971Y-152885451D01*
X105965000Y-152593722D01*
X105965000Y-152296278D01*
X105906971Y-152004549D01*
X105793144Y-151729747D01*
X105736074Y-151644335D01*
X105783639Y-151647409D01*
X106122439Y-151602489D01*
X106445966Y-151492336D01*
X106644274Y-151386338D01*
X106752107Y-151111712D01*
X105725000Y-150084605D01*
X105710858Y-150098748D01*
X105531253Y-149919143D01*
X105545395Y-149905000D01*
X105904605Y-149905000D01*
X106931712Y-150932107D01*
X107206338Y-150824274D01*
X107357216Y-150517616D01*
X107445369Y-150187415D01*
X107467409Y-149846361D01*
X107422489Y-149507561D01*
X107312336Y-149184034D01*
X107206338Y-148985726D01*
X106931712Y-148877893D01*
X105904605Y-149905000D01*
X105545395Y-149905000D01*
X104518288Y-148877893D01*
X104243662Y-148985726D01*
X104092784Y-149292384D01*
X104004631Y-149622585D01*
X103982591Y-149963639D01*
X104027511Y-150302439D01*
X104137664Y-150625966D01*
X104243662Y-150824274D01*
X104518286Y-150932106D01*
X104515392Y-150935000D01*
X104306278Y-150935000D01*
X104014549Y-150993029D01*
X103739747Y-151106856D01*
X103492431Y-151272107D01*
X103282107Y-151482431D01*
X103116856Y-151729747D01*
X103003029Y-152004549D01*
X102945000Y-152296278D01*
X95955000Y-152296278D01*
X95896971Y-152004549D01*
X95783144Y-151729747D01*
X95617893Y-151482431D01*
X95407569Y-151272107D01*
X95160253Y-151106856D01*
X94885451Y-150993029D01*
X94593722Y-150935000D01*
X94296278Y-150935000D01*
X94004549Y-150993029D01*
X93729747Y-151106856D01*
X93482431Y-151272107D01*
X93272107Y-151482431D01*
X93106856Y-151729747D01*
X92993029Y-152004549D01*
X92935000Y-152296278D01*
X92000000Y-152296278D01*
X92000000Y-152185475D01*
X91898739Y-151676399D01*
X91700107Y-151196859D01*
X91411738Y-150765285D01*
X91044715Y-150398262D01*
X90613141Y-150109893D01*
X90133601Y-149911261D01*
X89624525Y-149810000D01*
X89105475Y-149810000D01*
X88596399Y-149911261D01*
X88116859Y-150109893D01*
X87685285Y-150398262D01*
X87318262Y-150765285D01*
X87029893Y-151196859D01*
X86831261Y-151676399D01*
X86730000Y-152185475D01*
X86730000Y-152704525D01*
X86831261Y-153213601D01*
X87029893Y-153693141D01*
X87318262Y-154124715D01*
X87685285Y-154491738D01*
X87944589Y-154665000D01*
X85798867Y-154665000D01*
X84941392Y-153807525D01*
X85000253Y-153783144D01*
X85247569Y-153617893D01*
X85457893Y-153407569D01*
X85623144Y-153160253D01*
X85736971Y-152885451D01*
X85795000Y-152593722D01*
X85795000Y-152296278D01*
X85736971Y-152004549D01*
X85623144Y-151729747D01*
X85566074Y-151644335D01*
X85613639Y-151647409D01*
X85952439Y-151602489D01*
X86275966Y-151492336D01*
X86474274Y-151386338D01*
X86582107Y-151111712D01*
X85555000Y-150084605D01*
X85540858Y-150098748D01*
X85361253Y-149919143D01*
X85375395Y-149905000D01*
X85734605Y-149905000D01*
X86761712Y-150932107D01*
X87036338Y-150824274D01*
X87187216Y-150517616D01*
X87275369Y-150187415D01*
X87297409Y-149846361D01*
X87252489Y-149507561D01*
X87142336Y-149184034D01*
X87036338Y-148985726D01*
X86761712Y-148877893D01*
X85734605Y-149905000D01*
X85375395Y-149905000D01*
X84348288Y-148877893D01*
X84073662Y-148985726D01*
X83922784Y-149292384D01*
X83834631Y-149622585D01*
X83812591Y-149963639D01*
X83857511Y-150302439D01*
X83967664Y-150625966D01*
X84073662Y-150824274D01*
X84348286Y-150932106D01*
X84345392Y-150935000D01*
X84136278Y-150935000D01*
X83844549Y-150993029D01*
X83569747Y-151106856D01*
X83322431Y-151272107D01*
X83112107Y-151482431D01*
X82946856Y-151729747D01*
X82922475Y-151788608D01*
X79832155Y-148698288D01*
X84527893Y-148698288D01*
X85555000Y-149725395D01*
X86582107Y-148698288D01*
X86474274Y-148423662D01*
X86167616Y-148272784D01*
X85837415Y-148184631D01*
X85496361Y-148162591D01*
X85157561Y-148207511D01*
X84834034Y-148317664D01*
X84635726Y-148423662D01*
X84527893Y-148698288D01*
X79832155Y-148698288D01*
X78327984Y-147194117D01*
X90170000Y-147194117D01*
X90170000Y-147535883D01*
X90236675Y-147871081D01*
X90367463Y-148186831D01*
X90557337Y-148470998D01*
X90799002Y-148712663D01*
X91083169Y-148902537D01*
X91398919Y-149033325D01*
X91734117Y-149100000D01*
X92075883Y-149100000D01*
X92411081Y-149033325D01*
X92726831Y-148902537D01*
X93010998Y-148712663D01*
X93025373Y-148698288D01*
X104697893Y-148698288D01*
X105725000Y-149725395D01*
X106752107Y-148698288D01*
X106644274Y-148423662D01*
X106337616Y-148272784D01*
X106007415Y-148184631D01*
X105666361Y-148162591D01*
X105327561Y-148207511D01*
X105004034Y-148317664D01*
X104805726Y-148423662D01*
X104697893Y-148698288D01*
X93025373Y-148698288D01*
X93252663Y-148470998D01*
X93442537Y-148186831D01*
X93573325Y-147871081D01*
X93640000Y-147535883D01*
X93640000Y-147194117D01*
X110340000Y-147194117D01*
X110340000Y-147535883D01*
X110406675Y-147871081D01*
X110537463Y-148186831D01*
X110727337Y-148470998D01*
X110969002Y-148712663D01*
X111253169Y-148902537D01*
X111568919Y-149033325D01*
X111904117Y-149100000D01*
X112245883Y-149100000D01*
X112581081Y-149033325D01*
X112896831Y-148902537D01*
X113180998Y-148712663D01*
X113195373Y-148698288D01*
X124867893Y-148698288D01*
X125895000Y-149725395D01*
X126922107Y-148698288D01*
X126814274Y-148423662D01*
X126507616Y-148272784D01*
X126177415Y-148184631D01*
X125836361Y-148162591D01*
X125497561Y-148207511D01*
X125174034Y-148317664D01*
X124975726Y-148423662D01*
X124867893Y-148698288D01*
X113195373Y-148698288D01*
X113422663Y-148470998D01*
X113612537Y-148186831D01*
X113743325Y-147871081D01*
X113810000Y-147535883D01*
X113810000Y-147194117D01*
X130510000Y-147194117D01*
X130510000Y-147535883D01*
X130576675Y-147871081D01*
X130707463Y-148186831D01*
X130897337Y-148470998D01*
X131139002Y-148712663D01*
X131423169Y-148902537D01*
X131738919Y-149033325D01*
X132074117Y-149100000D01*
X132415883Y-149100000D01*
X132751081Y-149033325D01*
X133066831Y-148902537D01*
X133350998Y-148712663D01*
X133592663Y-148470998D01*
X133782537Y-148186831D01*
X133913325Y-147871081D01*
X133980000Y-147535883D01*
X133980000Y-147194117D01*
X133913325Y-146858919D01*
X133782537Y-146543169D01*
X133592663Y-146259002D01*
X133350998Y-146017337D01*
X133066831Y-145827463D01*
X132751081Y-145696675D01*
X132415883Y-145630000D01*
X132074117Y-145630000D01*
X131738919Y-145696675D01*
X131423169Y-145827463D01*
X131139002Y-146017337D01*
X130897337Y-146259002D01*
X130707463Y-146543169D01*
X130576675Y-146858919D01*
X130510000Y-147194117D01*
X113810000Y-147194117D01*
X113743325Y-146858919D01*
X113612537Y-146543169D01*
X113422663Y-146259002D01*
X113180998Y-146017337D01*
X112896831Y-145827463D01*
X112581081Y-145696675D01*
X112245883Y-145630000D01*
X111904117Y-145630000D01*
X111568919Y-145696675D01*
X111253169Y-145827463D01*
X110969002Y-146017337D01*
X110727337Y-146259002D01*
X110537463Y-146543169D01*
X110406675Y-146858919D01*
X110340000Y-147194117D01*
X93640000Y-147194117D01*
X93573325Y-146858919D01*
X93442537Y-146543169D01*
X93252663Y-146259002D01*
X93010998Y-146017337D01*
X92726831Y-145827463D01*
X92411081Y-145696675D01*
X92075883Y-145630000D01*
X91734117Y-145630000D01*
X91398919Y-145696675D01*
X91083169Y-145827463D01*
X90799002Y-146017337D01*
X90557337Y-146259002D01*
X90367463Y-146543169D01*
X90236675Y-146858919D01*
X90170000Y-147194117D01*
X78327984Y-147194117D01*
X76531927Y-145398061D01*
X79465000Y-145398061D01*
X79465000Y-145601939D01*
X79504774Y-145801898D01*
X79582795Y-145990256D01*
X79696063Y-146159774D01*
X79840226Y-146303937D01*
X80009744Y-146417205D01*
X80198102Y-146495226D01*
X80398061Y-146535000D01*
X80601939Y-146535000D01*
X80801898Y-146495226D01*
X80990256Y-146417205D01*
X81159774Y-146303937D01*
X81303937Y-146159774D01*
X81417205Y-145990256D01*
X81495226Y-145801898D01*
X81524093Y-145656775D01*
X82561426Y-144619441D01*
X82593291Y-144593291D01*
X82697636Y-144466146D01*
X82775172Y-144321087D01*
X82822918Y-144163689D01*
X82835000Y-144041019D01*
X82835000Y-144041009D01*
X82839039Y-144000001D01*
X82835000Y-143958993D01*
X82835000Y-132720209D01*
X82946856Y-132990253D01*
X83112107Y-133237569D01*
X83322431Y-133447893D01*
X83569747Y-133613144D01*
X83844549Y-133726971D01*
X84136278Y-133785000D01*
X84433722Y-133785000D01*
X84725451Y-133726971D01*
X85000253Y-133613144D01*
X85247569Y-133447893D01*
X85457893Y-133237569D01*
X85623144Y-132990253D01*
X85736971Y-132715451D01*
X85795000Y-132423722D01*
X85795000Y-132126278D01*
X85772960Y-132015475D01*
X86730000Y-132015475D01*
X86730000Y-132534525D01*
X86831261Y-133043601D01*
X87029893Y-133523141D01*
X87318262Y-133954715D01*
X87685285Y-134321738D01*
X88116859Y-134610107D01*
X88596399Y-134808739D01*
X89105475Y-134910000D01*
X89624525Y-134910000D01*
X90133601Y-134808739D01*
X90613141Y-134610107D01*
X91044715Y-134321738D01*
X91411738Y-133954715D01*
X91700107Y-133523141D01*
X91898739Y-133043601D01*
X92000000Y-132534525D01*
X92000000Y-132126278D01*
X92935000Y-132126278D01*
X92935000Y-132423722D01*
X92993029Y-132715451D01*
X93106856Y-132990253D01*
X93272107Y-133237569D01*
X93482431Y-133447893D01*
X93729747Y-133613144D01*
X94004549Y-133726971D01*
X94296278Y-133785000D01*
X94593722Y-133785000D01*
X94885451Y-133726971D01*
X95160253Y-133613144D01*
X95407569Y-133447893D01*
X95617893Y-133237569D01*
X95783144Y-132990253D01*
X95896971Y-132715451D01*
X95955000Y-132423722D01*
X95955000Y-132126278D01*
X102945000Y-132126278D01*
X102945000Y-132423722D01*
X103003029Y-132715451D01*
X103116856Y-132990253D01*
X103282107Y-133237569D01*
X103492431Y-133447893D01*
X103739747Y-133613144D01*
X104014549Y-133726971D01*
X104306278Y-133785000D01*
X104603722Y-133785000D01*
X104895451Y-133726971D01*
X105170253Y-133613144D01*
X105417569Y-133447893D01*
X105627893Y-133237569D01*
X105793144Y-132990253D01*
X105906971Y-132715451D01*
X105965000Y-132423722D01*
X105965000Y-132126278D01*
X105942960Y-132015475D01*
X106900000Y-132015475D01*
X106900000Y-132534525D01*
X107001261Y-133043601D01*
X107199893Y-133523141D01*
X107488262Y-133954715D01*
X107855285Y-134321738D01*
X108286859Y-134610107D01*
X108766399Y-134808739D01*
X109275475Y-134910000D01*
X109794525Y-134910000D01*
X110303601Y-134808739D01*
X110783141Y-134610107D01*
X111214715Y-134321738D01*
X111581738Y-133954715D01*
X111870107Y-133523141D01*
X112068739Y-133043601D01*
X112170000Y-132534525D01*
X112170000Y-132126278D01*
X113105000Y-132126278D01*
X113105000Y-132423722D01*
X113163029Y-132715451D01*
X113276856Y-132990253D01*
X113442107Y-133237569D01*
X113652431Y-133447893D01*
X113899747Y-133613144D01*
X114174549Y-133726971D01*
X114466278Y-133785000D01*
X114763722Y-133785000D01*
X115055451Y-133726971D01*
X115330253Y-133613144D01*
X115577569Y-133447893D01*
X115787893Y-133237569D01*
X115953144Y-132990253D01*
X116066971Y-132715451D01*
X116125000Y-132423722D01*
X116125000Y-132126278D01*
X123115000Y-132126278D01*
X123115000Y-132423722D01*
X123173029Y-132715451D01*
X123286856Y-132990253D01*
X123452107Y-133237569D01*
X123662431Y-133447893D01*
X123909747Y-133613144D01*
X124184549Y-133726971D01*
X124476278Y-133785000D01*
X124773722Y-133785000D01*
X125065451Y-133726971D01*
X125340253Y-133613144D01*
X125587569Y-133447893D01*
X125797893Y-133237569D01*
X125963144Y-132990253D01*
X126076971Y-132715451D01*
X126135000Y-132423722D01*
X126135000Y-132126278D01*
X126112960Y-132015475D01*
X127070000Y-132015475D01*
X127070000Y-132534525D01*
X127171261Y-133043601D01*
X127369893Y-133523141D01*
X127658262Y-133954715D01*
X128025285Y-134321738D01*
X128456859Y-134610107D01*
X128936399Y-134808739D01*
X129445475Y-134910000D01*
X129964525Y-134910000D01*
X130473601Y-134808739D01*
X130953141Y-134610107D01*
X131384715Y-134321738D01*
X131751738Y-133954715D01*
X132040107Y-133523141D01*
X132238739Y-133043601D01*
X132340000Y-132534525D01*
X132340000Y-132126278D01*
X133275000Y-132126278D01*
X133275000Y-132423722D01*
X133333029Y-132715451D01*
X133446856Y-132990253D01*
X133612107Y-133237569D01*
X133822431Y-133447893D01*
X134069747Y-133613144D01*
X134344549Y-133726971D01*
X134636278Y-133785000D01*
X134933722Y-133785000D01*
X135225451Y-133726971D01*
X135500253Y-133613144D01*
X135747569Y-133447893D01*
X135957893Y-133237569D01*
X136123144Y-132990253D01*
X136236971Y-132715451D01*
X136295000Y-132423722D01*
X136295000Y-132126278D01*
X136236971Y-131834549D01*
X136123144Y-131559747D01*
X135957893Y-131312431D01*
X135747569Y-131102107D01*
X135500253Y-130936856D01*
X135225451Y-130823029D01*
X134933722Y-130765000D01*
X134636278Y-130765000D01*
X134344549Y-130823029D01*
X134069747Y-130936856D01*
X133822431Y-131102107D01*
X133612107Y-131312431D01*
X133446856Y-131559747D01*
X133333029Y-131834549D01*
X133275000Y-132126278D01*
X132340000Y-132126278D01*
X132340000Y-132015475D01*
X132238739Y-131506399D01*
X132040107Y-131026859D01*
X131751738Y-130595285D01*
X131384715Y-130228262D01*
X130953141Y-129939893D01*
X130473601Y-129741261D01*
X129964525Y-129640000D01*
X129445475Y-129640000D01*
X128936399Y-129741261D01*
X128456859Y-129939893D01*
X128025285Y-130228262D01*
X127658262Y-130595285D01*
X127369893Y-131026859D01*
X127171261Y-131506399D01*
X127070000Y-132015475D01*
X126112960Y-132015475D01*
X126076971Y-131834549D01*
X125963144Y-131559747D01*
X125906074Y-131474335D01*
X125953639Y-131477409D01*
X126292439Y-131432489D01*
X126615966Y-131322336D01*
X126814274Y-131216338D01*
X126922107Y-130941712D01*
X125895000Y-129914605D01*
X125880858Y-129928748D01*
X125701253Y-129749143D01*
X125715395Y-129735000D01*
X126074605Y-129735000D01*
X127101712Y-130762107D01*
X127376338Y-130654274D01*
X127527216Y-130347616D01*
X127615369Y-130017415D01*
X127637409Y-129676361D01*
X127592489Y-129337561D01*
X127482336Y-129014034D01*
X127376338Y-128815726D01*
X127101712Y-128707893D01*
X126074605Y-129735000D01*
X125715395Y-129735000D01*
X124688288Y-128707893D01*
X124413662Y-128815726D01*
X124262784Y-129122384D01*
X124174631Y-129452585D01*
X124152591Y-129793639D01*
X124197511Y-130132439D01*
X124307664Y-130455966D01*
X124413662Y-130654274D01*
X124688286Y-130762106D01*
X124685392Y-130765000D01*
X124476278Y-130765000D01*
X124184549Y-130823029D01*
X123909747Y-130936856D01*
X123662431Y-131102107D01*
X123452107Y-131312431D01*
X123286856Y-131559747D01*
X123173029Y-131834549D01*
X123115000Y-132126278D01*
X116125000Y-132126278D01*
X116066971Y-131834549D01*
X115953144Y-131559747D01*
X115787893Y-131312431D01*
X115577569Y-131102107D01*
X115330253Y-130936856D01*
X115055451Y-130823029D01*
X114763722Y-130765000D01*
X114466278Y-130765000D01*
X114174549Y-130823029D01*
X113899747Y-130936856D01*
X113652431Y-131102107D01*
X113442107Y-131312431D01*
X113276856Y-131559747D01*
X113163029Y-131834549D01*
X113105000Y-132126278D01*
X112170000Y-132126278D01*
X112170000Y-132015475D01*
X112068739Y-131506399D01*
X111870107Y-131026859D01*
X111581738Y-130595285D01*
X111214715Y-130228262D01*
X110783141Y-129939893D01*
X110303601Y-129741261D01*
X109794525Y-129640000D01*
X109275475Y-129640000D01*
X108766399Y-129741261D01*
X108286859Y-129939893D01*
X107855285Y-130228262D01*
X107488262Y-130595285D01*
X107199893Y-131026859D01*
X107001261Y-131506399D01*
X106900000Y-132015475D01*
X105942960Y-132015475D01*
X105906971Y-131834549D01*
X105793144Y-131559747D01*
X105736074Y-131474335D01*
X105783639Y-131477409D01*
X106122439Y-131432489D01*
X106445966Y-131322336D01*
X106644274Y-131216338D01*
X106752107Y-130941712D01*
X105725000Y-129914605D01*
X105710858Y-129928748D01*
X105531253Y-129749143D01*
X105545395Y-129735000D01*
X105904605Y-129735000D01*
X106931712Y-130762107D01*
X107206338Y-130654274D01*
X107357216Y-130347616D01*
X107445369Y-130017415D01*
X107467409Y-129676361D01*
X107422489Y-129337561D01*
X107312336Y-129014034D01*
X107206338Y-128815726D01*
X106931712Y-128707893D01*
X105904605Y-129735000D01*
X105545395Y-129735000D01*
X104518288Y-128707893D01*
X104243662Y-128815726D01*
X104092784Y-129122384D01*
X104004631Y-129452585D01*
X103982591Y-129793639D01*
X104027511Y-130132439D01*
X104137664Y-130455966D01*
X104243662Y-130654274D01*
X104518286Y-130762106D01*
X104515392Y-130765000D01*
X104306278Y-130765000D01*
X104014549Y-130823029D01*
X103739747Y-130936856D01*
X103492431Y-131102107D01*
X103282107Y-131312431D01*
X103116856Y-131559747D01*
X103003029Y-131834549D01*
X102945000Y-132126278D01*
X95955000Y-132126278D01*
X95896971Y-131834549D01*
X95783144Y-131559747D01*
X95617893Y-131312431D01*
X95407569Y-131102107D01*
X95160253Y-130936856D01*
X94885451Y-130823029D01*
X94593722Y-130765000D01*
X94296278Y-130765000D01*
X94004549Y-130823029D01*
X93729747Y-130936856D01*
X93482431Y-131102107D01*
X93272107Y-131312431D01*
X93106856Y-131559747D01*
X92993029Y-131834549D01*
X92935000Y-132126278D01*
X92000000Y-132126278D01*
X92000000Y-132015475D01*
X91898739Y-131506399D01*
X91700107Y-131026859D01*
X91411738Y-130595285D01*
X91044715Y-130228262D01*
X90613141Y-129939893D01*
X90133601Y-129741261D01*
X89624525Y-129640000D01*
X89105475Y-129640000D01*
X88596399Y-129741261D01*
X88116859Y-129939893D01*
X87685285Y-130228262D01*
X87318262Y-130595285D01*
X87029893Y-131026859D01*
X86831261Y-131506399D01*
X86730000Y-132015475D01*
X85772960Y-132015475D01*
X85736971Y-131834549D01*
X85623144Y-131559747D01*
X85566074Y-131474335D01*
X85613639Y-131477409D01*
X85952439Y-131432489D01*
X86275966Y-131322336D01*
X86474274Y-131216338D01*
X86582107Y-130941712D01*
X85555000Y-129914605D01*
X85540858Y-129928748D01*
X85361253Y-129749143D01*
X85375395Y-129735000D01*
X85734605Y-129735000D01*
X86761712Y-130762107D01*
X87036338Y-130654274D01*
X87187216Y-130347616D01*
X87275369Y-130017415D01*
X87297409Y-129676361D01*
X87252489Y-129337561D01*
X87142336Y-129014034D01*
X87036338Y-128815726D01*
X86761712Y-128707893D01*
X85734605Y-129735000D01*
X85375395Y-129735000D01*
X84348288Y-128707893D01*
X84073662Y-128815726D01*
X83922784Y-129122384D01*
X83834631Y-129452585D01*
X83812591Y-129793639D01*
X83857511Y-130132439D01*
X83967664Y-130455966D01*
X84073662Y-130654274D01*
X84348286Y-130762106D01*
X84345392Y-130765000D01*
X84136278Y-130765000D01*
X83844549Y-130823029D01*
X83569747Y-130936856D01*
X83322431Y-131102107D01*
X83112107Y-131312431D01*
X82946856Y-131559747D01*
X82835000Y-131829791D01*
X82835000Y-128528288D01*
X84527893Y-128528288D01*
X85555000Y-129555395D01*
X86582107Y-128528288D01*
X86474274Y-128253662D01*
X86167616Y-128102784D01*
X85837415Y-128014631D01*
X85496361Y-127992591D01*
X85157561Y-128037511D01*
X84834034Y-128147664D01*
X84635726Y-128253662D01*
X84527893Y-128528288D01*
X82835000Y-128528288D01*
X82835000Y-127024117D01*
X90170000Y-127024117D01*
X90170000Y-127365883D01*
X90236675Y-127701081D01*
X90367463Y-128016831D01*
X90557337Y-128300998D01*
X90799002Y-128542663D01*
X91083169Y-128732537D01*
X91398919Y-128863325D01*
X91734117Y-128930000D01*
X92075883Y-128930000D01*
X92411081Y-128863325D01*
X92726831Y-128732537D01*
X93010998Y-128542663D01*
X93025373Y-128528288D01*
X104697893Y-128528288D01*
X105725000Y-129555395D01*
X106752107Y-128528288D01*
X106644274Y-128253662D01*
X106337616Y-128102784D01*
X106007415Y-128014631D01*
X105666361Y-127992591D01*
X105327561Y-128037511D01*
X105004034Y-128147664D01*
X104805726Y-128253662D01*
X104697893Y-128528288D01*
X93025373Y-128528288D01*
X93252663Y-128300998D01*
X93442537Y-128016831D01*
X93573325Y-127701081D01*
X93640000Y-127365883D01*
X93640000Y-127024117D01*
X110340000Y-127024117D01*
X110340000Y-127365883D01*
X110406675Y-127701081D01*
X110537463Y-128016831D01*
X110727337Y-128300998D01*
X110969002Y-128542663D01*
X111253169Y-128732537D01*
X111568919Y-128863325D01*
X111904117Y-128930000D01*
X112245883Y-128930000D01*
X112581081Y-128863325D01*
X112896831Y-128732537D01*
X113180998Y-128542663D01*
X113195373Y-128528288D01*
X124867893Y-128528288D01*
X125895000Y-129555395D01*
X126922107Y-128528288D01*
X126814274Y-128253662D01*
X126507616Y-128102784D01*
X126177415Y-128014631D01*
X125836361Y-127992591D01*
X125497561Y-128037511D01*
X125174034Y-128147664D01*
X124975726Y-128253662D01*
X124867893Y-128528288D01*
X113195373Y-128528288D01*
X113422663Y-128300998D01*
X113612537Y-128016831D01*
X113743325Y-127701081D01*
X113810000Y-127365883D01*
X113810000Y-127024117D01*
X130510000Y-127024117D01*
X130510000Y-127365883D01*
X130576675Y-127701081D01*
X130707463Y-128016831D01*
X130897337Y-128300998D01*
X131139002Y-128542663D01*
X131423169Y-128732537D01*
X131738919Y-128863325D01*
X132074117Y-128930000D01*
X132415883Y-128930000D01*
X132751081Y-128863325D01*
X133066831Y-128732537D01*
X133350998Y-128542663D01*
X133592663Y-128300998D01*
X133782537Y-128016831D01*
X133913325Y-127701081D01*
X133980000Y-127365883D01*
X133980000Y-127024117D01*
X133913325Y-126688919D01*
X133782537Y-126373169D01*
X133592663Y-126089002D01*
X133350998Y-125847337D01*
X133066831Y-125657463D01*
X132751081Y-125526675D01*
X132415883Y-125460000D01*
X132074117Y-125460000D01*
X131738919Y-125526675D01*
X131423169Y-125657463D01*
X131139002Y-125847337D01*
X130897337Y-126089002D01*
X130707463Y-126373169D01*
X130576675Y-126688919D01*
X130510000Y-127024117D01*
X113810000Y-127024117D01*
X113743325Y-126688919D01*
X113612537Y-126373169D01*
X113422663Y-126089002D01*
X113180998Y-125847337D01*
X112896831Y-125657463D01*
X112581081Y-125526675D01*
X112245883Y-125460000D01*
X111904117Y-125460000D01*
X111568919Y-125526675D01*
X111253169Y-125657463D01*
X110969002Y-125847337D01*
X110727337Y-126089002D01*
X110537463Y-126373169D01*
X110406675Y-126688919D01*
X110340000Y-127024117D01*
X93640000Y-127024117D01*
X93573325Y-126688919D01*
X93442537Y-126373169D01*
X93252663Y-126089002D01*
X93010998Y-125847337D01*
X92726831Y-125657463D01*
X92411081Y-125526675D01*
X92075883Y-125460000D01*
X91734117Y-125460000D01*
X91398919Y-125526675D01*
X91083169Y-125657463D01*
X90799002Y-125847337D01*
X90557337Y-126089002D01*
X90367463Y-126373169D01*
X90236675Y-126688919D01*
X90170000Y-127024117D01*
X82835000Y-127024117D01*
X82835000Y-120613285D01*
X82917205Y-120490256D01*
X82995226Y-120301898D01*
X83035000Y-120101939D01*
X83035000Y-119898061D01*
X82995226Y-119698102D01*
X82917205Y-119509744D01*
X82803937Y-119340226D01*
X82659774Y-119196063D01*
X82490256Y-119082795D01*
X82301898Y-119004774D01*
X82101939Y-118965000D01*
X81898061Y-118965000D01*
X81698102Y-119004774D01*
X81509744Y-119082795D01*
X81340226Y-119196063D01*
X81196063Y-119340226D01*
X81082795Y-119509744D01*
X81004774Y-119698102D01*
X80965000Y-119898061D01*
X80965000Y-120101939D01*
X81004774Y-120301898D01*
X81082795Y-120490256D01*
X81165000Y-120613285D01*
X81165001Y-143654131D01*
X80343225Y-144475907D01*
X80198102Y-144504774D01*
X80009744Y-144582795D01*
X79840226Y-144696063D01*
X79696063Y-144840226D01*
X79582795Y-145009744D01*
X79504774Y-145198102D01*
X79465000Y-145398061D01*
X76531927Y-145398061D01*
X71835000Y-140701135D01*
X71835000Y-128225020D01*
X71839040Y-128184001D01*
X71822918Y-128020313D01*
X71775172Y-127862915D01*
X71697636Y-127717856D01*
X71683869Y-127701081D01*
X71593291Y-127590711D01*
X71561428Y-127564562D01*
X69937683Y-125940818D01*
X69995226Y-125801898D01*
X70035000Y-125601939D01*
X70035000Y-125398061D01*
X69995226Y-125198102D01*
X69917205Y-125009744D01*
X69803937Y-124840226D01*
X69659774Y-124696063D01*
X69490256Y-124582795D01*
X69301898Y-124504774D01*
X69101939Y-124465000D01*
X68898061Y-124465000D01*
X68698102Y-124504774D01*
X68509744Y-124582795D01*
X68340226Y-124696063D01*
X68196063Y-124840226D01*
X68082795Y-125009744D01*
X68004774Y-125198102D01*
X67965000Y-125398061D01*
X67965000Y-125601939D01*
X68004774Y-125801898D01*
X68082795Y-125990256D01*
X68165000Y-126113285D01*
X68165000Y-126142984D01*
X68160960Y-126184002D01*
X68177082Y-126347690D01*
X68224828Y-126505088D01*
X68302364Y-126650147D01*
X68302365Y-126650148D01*
X68406710Y-126777293D01*
X68438574Y-126803443D01*
X70165000Y-128529870D01*
X70165000Y-132201289D01*
X70159774Y-132196063D01*
X69990256Y-132082795D01*
X69801898Y-132004774D01*
X69601939Y-131965000D01*
X69398061Y-131965000D01*
X69198102Y-132004774D01*
X69009744Y-132082795D01*
X68886715Y-132165000D01*
X58541014Y-132165000D01*
X58499996Y-132160960D01*
X58458978Y-132165000D01*
X58458977Y-132165000D01*
X58336307Y-132177082D01*
X58178909Y-132224828D01*
X58033850Y-132302364D01*
X57906705Y-132406709D01*
X57880559Y-132438568D01*
X57343221Y-132975908D01*
X57198098Y-133004774D01*
X57009740Y-133082795D01*
X56840222Y-133196063D01*
X56696059Y-133340226D01*
X56660000Y-133394192D01*
X56660000Y-118279872D01*
X57265000Y-118279872D01*
X57265000Y-118720128D01*
X57350890Y-119151925D01*
X57519369Y-119558669D01*
X57763962Y-119924729D01*
X58075271Y-120236038D01*
X58441331Y-120480631D01*
X58848075Y-120649110D01*
X59279872Y-120735000D01*
X59720128Y-120735000D01*
X60151925Y-120649110D01*
X60558669Y-120480631D01*
X60924729Y-120236038D01*
X61236038Y-119924729D01*
X61236359Y-119924248D01*
X64745000Y-119924248D01*
X64745000Y-121135751D01*
X64761423Y-121302498D01*
X64826324Y-121516446D01*
X64931716Y-121713623D01*
X65073551Y-121886449D01*
X65246377Y-122028284D01*
X65443553Y-122133676D01*
X65657501Y-122198577D01*
X65880000Y-122220491D01*
X66102498Y-122198577D01*
X66316446Y-122133676D01*
X66513623Y-122028284D01*
X66686449Y-121886449D01*
X66828284Y-121713623D01*
X66933676Y-121516447D01*
X66998577Y-121302499D01*
X67015000Y-121135752D01*
X67015000Y-120916904D01*
X67029978Y-120923108D01*
X67215448Y-120960000D01*
X67404552Y-120960000D01*
X67590022Y-120923108D01*
X67764731Y-120850741D01*
X67921964Y-120745681D01*
X68055681Y-120611964D01*
X68160741Y-120454731D01*
X68233108Y-120280022D01*
X68270000Y-120094552D01*
X68270000Y-119905448D01*
X72130000Y-119905448D01*
X72130000Y-120094552D01*
X72166892Y-120280022D01*
X72239259Y-120454731D01*
X72344319Y-120611964D01*
X72478036Y-120745681D01*
X72635269Y-120850741D01*
X72809978Y-120923108D01*
X72995448Y-120960000D01*
X73184552Y-120960000D01*
X73370022Y-120923108D01*
X73385000Y-120916904D01*
X73385000Y-121135751D01*
X73401423Y-121302498D01*
X73466324Y-121516446D01*
X73571716Y-121713623D01*
X73713551Y-121886449D01*
X73886377Y-122028284D01*
X74083553Y-122133676D01*
X74297501Y-122198577D01*
X74520000Y-122220491D01*
X74742498Y-122198577D01*
X74956446Y-122133676D01*
X75153623Y-122028284D01*
X75326449Y-121886449D01*
X75468284Y-121713623D01*
X75573676Y-121516447D01*
X75638577Y-121302499D01*
X75655000Y-121135752D01*
X75655000Y-119924248D01*
X75638577Y-119757501D01*
X75573676Y-119543553D01*
X75468284Y-119346377D01*
X75326449Y-119173551D01*
X75153623Y-119031716D01*
X74956447Y-118926324D01*
X74742499Y-118861423D01*
X74520000Y-118839509D01*
X74297502Y-118861423D01*
X74083554Y-118926324D01*
X73886378Y-119031716D01*
X73713552Y-119173551D01*
X73666638Y-119230715D01*
X73544731Y-119149259D01*
X73370022Y-119076892D01*
X73184552Y-119040000D01*
X72995448Y-119040000D01*
X72809978Y-119076892D01*
X72635269Y-119149259D01*
X72478036Y-119254319D01*
X72344319Y-119388036D01*
X72239259Y-119545269D01*
X72166892Y-119719978D01*
X72130000Y-119905448D01*
X68270000Y-119905448D01*
X68233108Y-119719978D01*
X68160741Y-119545269D01*
X68055681Y-119388036D01*
X67921964Y-119254319D01*
X67764731Y-119149259D01*
X67590022Y-119076892D01*
X67404552Y-119040000D01*
X67215448Y-119040000D01*
X67029978Y-119076892D01*
X66855269Y-119149259D01*
X66733362Y-119230715D01*
X66686449Y-119173551D01*
X66513623Y-119031716D01*
X66316447Y-118926324D01*
X66102499Y-118861423D01*
X65880000Y-118839509D01*
X65657502Y-118861423D01*
X65443554Y-118926324D01*
X65246378Y-119031716D01*
X65073552Y-119173551D01*
X64931717Y-119346377D01*
X64826324Y-119543553D01*
X64761423Y-119757501D01*
X64745000Y-119924248D01*
X61236359Y-119924248D01*
X61480631Y-119558669D01*
X61649110Y-119151925D01*
X61735000Y-118720128D01*
X61735000Y-118279872D01*
X135265000Y-118279872D01*
X135265000Y-118720128D01*
X135350890Y-119151925D01*
X135519369Y-119558669D01*
X135763962Y-119924729D01*
X136075271Y-120236038D01*
X136441331Y-120480631D01*
X136848075Y-120649110D01*
X137279872Y-120735000D01*
X137720128Y-120735000D01*
X138151925Y-120649110D01*
X138558669Y-120480631D01*
X138924729Y-120236038D01*
X139236038Y-119924729D01*
X139480631Y-119558669D01*
X139649110Y-119151925D01*
X139735000Y-118720128D01*
X139735000Y-118279872D01*
X139649110Y-117848075D01*
X139480631Y-117441331D01*
X139236038Y-117075271D01*
X138924729Y-116763962D01*
X138558669Y-116519369D01*
X138151925Y-116350890D01*
X137720128Y-116265000D01*
X137279872Y-116265000D01*
X136848075Y-116350890D01*
X136441331Y-116519369D01*
X136075271Y-116763962D01*
X135763962Y-117075271D01*
X135519369Y-117441331D01*
X135350890Y-117848075D01*
X135265000Y-118279872D01*
X61735000Y-118279872D01*
X61649110Y-117848075D01*
X61480631Y-117441331D01*
X61236038Y-117075271D01*
X60924729Y-116763962D01*
X60558669Y-116519369D01*
X60151925Y-116350890D01*
X59720128Y-116265000D01*
X59279872Y-116265000D01*
X58848075Y-116350890D01*
X58441331Y-116519369D01*
X58075271Y-116763962D01*
X57763962Y-117075271D01*
X57519369Y-117441331D01*
X57350890Y-117848075D01*
X57265000Y-118279872D01*
X56660000Y-118279872D01*
X56660000Y-115660000D01*
X64812234Y-115660000D01*
X64761423Y-115827501D01*
%TA.AperFunction,Conductor*%
D18*
G36*
X64761423Y-115827501D02*
G01*
X64745000Y-115994248D01*
X64745000Y-116705751D01*
X64761423Y-116872498D01*
X64826324Y-117086446D01*
X64931716Y-117283623D01*
X65073551Y-117456449D01*
X65246377Y-117598284D01*
X65443553Y-117703676D01*
X65657501Y-117768577D01*
X65880000Y-117790491D01*
X66102498Y-117768577D01*
X66316446Y-117703676D01*
X66513623Y-117598284D01*
X66686449Y-117456449D01*
X66828284Y-117283623D01*
X66933676Y-117086447D01*
X66998577Y-116872499D01*
X67015000Y-116705752D01*
X67015000Y-115994249D01*
X66998577Y-115827502D01*
X66947765Y-115660000D01*
X73452234Y-115660000D01*
X73401423Y-115827501D01*
X73385000Y-115994248D01*
X73385000Y-116705751D01*
X73401423Y-116872498D01*
X73466324Y-117086446D01*
X73571716Y-117283623D01*
X73713551Y-117456449D01*
X73886377Y-117598284D01*
X74083553Y-117703676D01*
X74297501Y-117768577D01*
X74520000Y-117790491D01*
X74742498Y-117768577D01*
X74956446Y-117703676D01*
X75153623Y-117598284D01*
X75326449Y-117456449D01*
X75468284Y-117283623D01*
X75573676Y-117086447D01*
X75638577Y-116872499D01*
X75655000Y-116705752D01*
X75655000Y-115994249D01*
X75638577Y-115827502D01*
X75587765Y-115660000D01*
X140340000Y-115660000D01*
X140340001Y-169340000D01*
X56660000Y-169340000D01*
X56660000Y-166279872D01*
X57265000Y-166279872D01*
X57265000Y-166720128D01*
X57350890Y-167151925D01*
X57519369Y-167558669D01*
X57763962Y-167924729D01*
X58075271Y-168236038D01*
X58441331Y-168480631D01*
X58848075Y-168649110D01*
X59279872Y-168735000D01*
X59720128Y-168735000D01*
X60151925Y-168649110D01*
X60558669Y-168480631D01*
X60924729Y-168236038D01*
X61236038Y-167924729D01*
X61480631Y-167558669D01*
X61649110Y-167151925D01*
X61735000Y-166720128D01*
X61735000Y-166279872D01*
X135265000Y-166279872D01*
X135265000Y-166720128D01*
X135350890Y-167151925D01*
X135519369Y-167558669D01*
X135763962Y-167924729D01*
X136075271Y-168236038D01*
X136441331Y-168480631D01*
X136848075Y-168649110D01*
X137279872Y-168735000D01*
X137720128Y-168735000D01*
X138151925Y-168649110D01*
X138558669Y-168480631D01*
X138924729Y-168236038D01*
X139236038Y-167924729D01*
X139480631Y-167558669D01*
X139649110Y-167151925D01*
X139735000Y-166720128D01*
X139735000Y-166279872D01*
X139649110Y-165848075D01*
X139480631Y-165441331D01*
X139236038Y-165075271D01*
X138924729Y-164763962D01*
X138558669Y-164519369D01*
X138151925Y-164350890D01*
X137720128Y-164265000D01*
X137279872Y-164265000D01*
X136848075Y-164350890D01*
X136441331Y-164519369D01*
X136075271Y-164763962D01*
X135763962Y-165075271D01*
X135519369Y-165441331D01*
X135350890Y-165848075D01*
X135265000Y-166279872D01*
X61735000Y-166279872D01*
X61649110Y-165848075D01*
X61480631Y-165441331D01*
X61236038Y-165075271D01*
X60924729Y-164763962D01*
X60558669Y-164519369D01*
X60151925Y-164350890D01*
X59720128Y-164265000D01*
X59279872Y-164265000D01*
X58848075Y-164350890D01*
X58441331Y-164519369D01*
X58075271Y-164763962D01*
X57763962Y-165075271D01*
X57519369Y-165441331D01*
X57350890Y-165848075D01*
X57265000Y-166279872D01*
X56660000Y-166279872D01*
X56660000Y-134605808D01*
X56664997Y-134613286D01*
X56664996Y-140208983D01*
X56660956Y-140250002D01*
X56664996Y-140291020D01*
X56677078Y-140413690D01*
X56724824Y-140571088D01*
X56802360Y-140716147D01*
X56906705Y-140843293D01*
X56938575Y-140869448D01*
X61725902Y-145656775D01*
X61754768Y-145801898D01*
X61832789Y-145990256D01*
X61946057Y-146159774D01*
X62090220Y-146303937D01*
X62259738Y-146417205D01*
X62448096Y-146495226D01*
X62648055Y-146535000D01*
X62851933Y-146535000D01*
X63051892Y-146495226D01*
X63240250Y-146417205D01*
X63409768Y-146303937D01*
X63553931Y-146159774D01*
X63667199Y-145990256D01*
X63745220Y-145801898D01*
X63784994Y-145601939D01*
X63784994Y-145398061D01*
X63745220Y-145198102D01*
X63667199Y-145009744D01*
X63553931Y-144840226D01*
X63409768Y-144696063D01*
X63240250Y-144582795D01*
X63051892Y-144504774D01*
X62906769Y-144475908D01*
X58334996Y-139904135D01*
X58334996Y-134613285D01*
X58417201Y-134490256D01*
X58495222Y-134301898D01*
X58524088Y-134156775D01*
X58845864Y-133835000D01*
X68886715Y-133835000D01*
X69009744Y-133917205D01*
X69198102Y-133995226D01*
X69398061Y-134035000D01*
X69601939Y-134035000D01*
X69801898Y-133995226D01*
X69990256Y-133917205D01*
X70159774Y-133803937D01*
X70165000Y-133798711D01*
X70165001Y-141005973D01*
X70160960Y-141047002D01*
X70177082Y-141210690D01*
X70224828Y-141368088D01*
X70224829Y-141368089D01*
X70302365Y-141513148D01*
X70406710Y-141640293D01*
X70438574Y-141666443D01*
X84833559Y-156061430D01*
X84859707Y-156093291D01*
X84986852Y-156197636D01*
X85131911Y-156275172D01*
X85289309Y-156322918D01*
X85411979Y-156335000D01*
X85411980Y-156335000D01*
X85452998Y-156339040D01*
X85494016Y-156335000D01*
X87211491Y-156335000D01*
X87151363Y-156375176D01*
X86945176Y-156581363D01*
X86783175Y-156823815D01*
X86671587Y-157093212D01*
X86614700Y-157379203D01*
X86614700Y-157670797D01*
X86671587Y-157956788D01*
X86783175Y-158226185D01*
X86945176Y-158468637D01*
X87151363Y-158674824D01*
X87393815Y-158836825D01*
X87663212Y-158948413D01*
X87949203Y-159005300D01*
X88240797Y-159005300D01*
X88526788Y-158948413D01*
X88796185Y-158836825D01*
X89038637Y-158674824D01*
X89244824Y-158468637D01*
X89365000Y-158288781D01*
X89485176Y-158468637D01*
X89691363Y-158674824D01*
X89933815Y-158836825D01*
X90203212Y-158948413D01*
X90489203Y-159005300D01*
X90780797Y-159005300D01*
X91066788Y-158948413D01*
X91336185Y-158836825D01*
X91578637Y-158674824D01*
X91784824Y-158468637D01*
X91946825Y-158226185D01*
X92058413Y-157956788D01*
X92115300Y-157670797D01*
X92115300Y-157379203D01*
X92089810Y-157251057D01*
X93005868Y-156335000D01*
X107381491Y-156335000D01*
X107321363Y-156375176D01*
X107115176Y-156581363D01*
X106953175Y-156823815D01*
X106841587Y-157093212D01*
X106784700Y-157379203D01*
X106784700Y-157670797D01*
X106841587Y-157956788D01*
X106953175Y-158226185D01*
X107115176Y-158468637D01*
X107321363Y-158674824D01*
X107563815Y-158836825D01*
X107833212Y-158948413D01*
X108119203Y-159005300D01*
X108410797Y-159005300D01*
X108696788Y-158948413D01*
X108966185Y-158836825D01*
X109208637Y-158674824D01*
X109414824Y-158468637D01*
X109535000Y-158288781D01*
X109655176Y-158468637D01*
X109861363Y-158674824D01*
X110103815Y-158836825D01*
X110373212Y-158948413D01*
X110659203Y-159005300D01*
X110950797Y-159005300D01*
X111236788Y-158948413D01*
X111506185Y-158836825D01*
X111748637Y-158674824D01*
X111954824Y-158468637D01*
X112116825Y-158226185D01*
X112228413Y-157956788D01*
X112285300Y-157670797D01*
X112285300Y-157379203D01*
X112228413Y-157093212D01*
X112116825Y-156823815D01*
X111954824Y-156581363D01*
X111748637Y-156375176D01*
X111688509Y-156335000D01*
X127551491Y-156335000D01*
X127491363Y-156375176D01*
X127285176Y-156581363D01*
X127123175Y-156823815D01*
X127011587Y-157093212D01*
X126954700Y-157379203D01*
X126954700Y-157670797D01*
X127011587Y-157956788D01*
X127123175Y-158226185D01*
X127285176Y-158468637D01*
X127491363Y-158674824D01*
X127733815Y-158836825D01*
X128003212Y-158948413D01*
X128289203Y-159005300D01*
X128580797Y-159005300D01*
X128866788Y-158948413D01*
X129136185Y-158836825D01*
X129378637Y-158674824D01*
X129584824Y-158468637D01*
X129705000Y-158288781D01*
X129825176Y-158468637D01*
X130031363Y-158674824D01*
X130273815Y-158836825D01*
X130543212Y-158948413D01*
X130829203Y-159005300D01*
X131120797Y-159005300D01*
X131406788Y-158948413D01*
X131676185Y-158836825D01*
X131918637Y-158674824D01*
X132124824Y-158468637D01*
X132286825Y-158226185D01*
X132398413Y-157956788D01*
X132455300Y-157670797D01*
X132455300Y-157379203D01*
X132398413Y-157093212D01*
X132286825Y-156823815D01*
X132124824Y-156581363D01*
X131918637Y-156375176D01*
X131858509Y-156335000D01*
X135958982Y-156335000D01*
X136000000Y-156339040D01*
X136041018Y-156335000D01*
X136041019Y-156335000D01*
X136163689Y-156322918D01*
X136321087Y-156275172D01*
X136466146Y-156197636D01*
X136593291Y-156093291D01*
X136619445Y-156061422D01*
X137561433Y-155119436D01*
X137593291Y-155093291D01*
X137697636Y-154966146D01*
X137775172Y-154821087D01*
X137822918Y-154663689D01*
X137835000Y-154541019D01*
X137835000Y-154541018D01*
X137839040Y-154500000D01*
X137835000Y-154458982D01*
X137835000Y-140041018D01*
X137839040Y-140000000D01*
X137822918Y-139836312D01*
X137818300Y-139821086D01*
X137775172Y-139678913D01*
X137697636Y-139533854D01*
X137593291Y-139406709D01*
X137561426Y-139380558D01*
X137119445Y-138938578D01*
X137093291Y-138906709D01*
X136966146Y-138802364D01*
X136821087Y-138724828D01*
X136663689Y-138677082D01*
X136541019Y-138665000D01*
X136541018Y-138665000D01*
X136500000Y-138660960D01*
X136458982Y-138665000D01*
X133465868Y-138665000D01*
X132429810Y-137628943D01*
X132455300Y-137500797D01*
X132455300Y-137209203D01*
X132398413Y-136923212D01*
X132286825Y-136653815D01*
X132124824Y-136411363D01*
X131918637Y-136205176D01*
X131676185Y-136043175D01*
X131406788Y-135931587D01*
X131120797Y-135874700D01*
X130829203Y-135874700D01*
X130543212Y-135931587D01*
X130273815Y-136043175D01*
X130031363Y-136205176D01*
X129825176Y-136411363D01*
X129705000Y-136591219D01*
X129584824Y-136411363D01*
X129378637Y-136205176D01*
X129136185Y-136043175D01*
X128866788Y-135931587D01*
X128580797Y-135874700D01*
X128289203Y-135874700D01*
X128003212Y-135931587D01*
X127733815Y-136043175D01*
X127491363Y-136205176D01*
X127285176Y-136411363D01*
X127123175Y-136653815D01*
X127011587Y-136923212D01*
X126954700Y-137209203D01*
X126954700Y-137500797D01*
X127011587Y-137786788D01*
X127123175Y-138056185D01*
X127285176Y-138298637D01*
X127491363Y-138504824D01*
X127731084Y-138665000D01*
X113295868Y-138665000D01*
X112259810Y-137628943D01*
X112285300Y-137500797D01*
X112285300Y-137209203D01*
X112228413Y-136923212D01*
X112116825Y-136653815D01*
X111954824Y-136411363D01*
X111748637Y-136205176D01*
X111506185Y-136043175D01*
X111236788Y-135931587D01*
X110950797Y-135874700D01*
X110659203Y-135874700D01*
X110373212Y-135931587D01*
X110103815Y-136043175D01*
X109861363Y-136205176D01*
X109655176Y-136411363D01*
X109535000Y-136591219D01*
X109414824Y-136411363D01*
X109208637Y-136205176D01*
X108966185Y-136043175D01*
X108696788Y-135931587D01*
X108410797Y-135874700D01*
X108119203Y-135874700D01*
X107833212Y-135931587D01*
X107563815Y-136043175D01*
X107321363Y-136205176D01*
X107115176Y-136411363D01*
X106953175Y-136653815D01*
X106841587Y-136923212D01*
X106784700Y-137209203D01*
X106784700Y-137500797D01*
X106841587Y-137786788D01*
X106953175Y-138056185D01*
X107115176Y-138298637D01*
X107321363Y-138504824D01*
X107561084Y-138665000D01*
X93125868Y-138665000D01*
X92089810Y-137628943D01*
X92115300Y-137500797D01*
X92115300Y-137209203D01*
X92058413Y-136923212D01*
X91946825Y-136653815D01*
X91784824Y-136411363D01*
X91578637Y-136205176D01*
X91336185Y-136043175D01*
X91066788Y-135931587D01*
X90780797Y-135874700D01*
X90489203Y-135874700D01*
X90203212Y-135931587D01*
X89933815Y-136043175D01*
X89691363Y-136205176D01*
X89485176Y-136411363D01*
X89365000Y-136591219D01*
X89244824Y-136411363D01*
X89038637Y-136205176D01*
X88796185Y-136043175D01*
X88526788Y-135931587D01*
X88240797Y-135874700D01*
X87949203Y-135874700D01*
X87663212Y-135931587D01*
X87393815Y-136043175D01*
X87151363Y-136205176D01*
X86945176Y-136411363D01*
X86783175Y-136653815D01*
X86671587Y-136923212D01*
X86614700Y-137209203D01*
X86614700Y-137500797D01*
X86671587Y-137786788D01*
X86783175Y-138056185D01*
X86945176Y-138298637D01*
X87151363Y-138504824D01*
X87393815Y-138666825D01*
X87663212Y-138778413D01*
X87949203Y-138835300D01*
X88240797Y-138835300D01*
X88526788Y-138778413D01*
X88796185Y-138666825D01*
X89038637Y-138504824D01*
X89244824Y-138298637D01*
X89365000Y-138118781D01*
X89485176Y-138298637D01*
X89691363Y-138504824D01*
X89933815Y-138666825D01*
X90203212Y-138778413D01*
X90489203Y-138835300D01*
X90780797Y-138835300D01*
X90908943Y-138809810D01*
X92160559Y-140061427D01*
X92186709Y-140093291D01*
X92272488Y-140163688D01*
X92313854Y-140197636D01*
X92458913Y-140275172D01*
X92616311Y-140322918D01*
X92779999Y-140339040D01*
X92821018Y-140335000D01*
X112908981Y-140335000D01*
X112949999Y-140339040D01*
X112991018Y-140335000D01*
X133078981Y-140335000D01*
X133119999Y-140339040D01*
X133161018Y-140335000D01*
X136154133Y-140335000D01*
X136165001Y-140345868D01*
X136165000Y-151830797D01*
X136123144Y-151729747D01*
X135957893Y-151482431D01*
X135747569Y-151272107D01*
X135500253Y-151106856D01*
X135225451Y-150993029D01*
X134933722Y-150935000D01*
X134636278Y-150935000D01*
X134344549Y-150993029D01*
X134069747Y-151106856D01*
X133822431Y-151272107D01*
X133612107Y-151482431D01*
X133446856Y-151729747D01*
X133333029Y-152004549D01*
X133275000Y-152296278D01*
X133275000Y-152593722D01*
X133333029Y-152885451D01*
X133446856Y-153160253D01*
X133612107Y-153407569D01*
X133822431Y-153617893D01*
X134069747Y-153783144D01*
X134344549Y-153896971D01*
X134636278Y-153955000D01*
X134933722Y-153955000D01*
X135225451Y-153896971D01*
X135500253Y-153783144D01*
X135747569Y-153617893D01*
X135957893Y-153407569D01*
X136123144Y-153160253D01*
X136165000Y-153059204D01*
X136165000Y-154154131D01*
X135654132Y-154665000D01*
X131125411Y-154665000D01*
X131384715Y-154491738D01*
X131751738Y-154124715D01*
X132040107Y-153693141D01*
X132238739Y-153213601D01*
X132340000Y-152704525D01*
X132340000Y-152185475D01*
X132238739Y-151676399D01*
X132040107Y-151196859D01*
X131751738Y-150765285D01*
X131384715Y-150398262D01*
X130953141Y-150109893D01*
X130473601Y-149911261D01*
X129964525Y-149810000D01*
X129445475Y-149810000D01*
X128936399Y-149911261D01*
X128456859Y-150109893D01*
X128025285Y-150398262D01*
X127658262Y-150765285D01*
X127369893Y-151196859D01*
X127171261Y-151676399D01*
X127070000Y-152185475D01*
X127070000Y-152704525D01*
X127171261Y-153213601D01*
X127369893Y-153693141D01*
X127658262Y-154124715D01*
X128025285Y-154491738D01*
X128284589Y-154665000D01*
X110955411Y-154665000D01*
X111214715Y-154491738D01*
X111581738Y-154124715D01*
X111870107Y-153693141D01*
X112068739Y-153213601D01*
X112170000Y-152704525D01*
X112170000Y-152296278D01*
X113105000Y-152296278D01*
X113105000Y-152593722D01*
X113163029Y-152885451D01*
X113276856Y-153160253D01*
X113442107Y-153407569D01*
X113652431Y-153617893D01*
X113899747Y-153783144D01*
X114174549Y-153896971D01*
X114466278Y-153955000D01*
X114763722Y-153955000D01*
X115055451Y-153896971D01*
X115330253Y-153783144D01*
X115577569Y-153617893D01*
X115787893Y-153407569D01*
X115953144Y-153160253D01*
X116066971Y-152885451D01*
X116125000Y-152593722D01*
X116125000Y-152296278D01*
X123115000Y-152296278D01*
X123115000Y-152593722D01*
X123173029Y-152885451D01*
X123286856Y-153160253D01*
X123452107Y-153407569D01*
X123662431Y-153617893D01*
X123909747Y-153783144D01*
X124184549Y-153896971D01*
X124476278Y-153955000D01*
X124773722Y-153955000D01*
X125065451Y-153896971D01*
X125340253Y-153783144D01*
X125587569Y-153617893D01*
X125797893Y-153407569D01*
X125963144Y-153160253D01*
X126076971Y-152885451D01*
X126135000Y-152593722D01*
X126135000Y-152296278D01*
X126076971Y-152004549D01*
X125963144Y-151729747D01*
X125906074Y-151644335D01*
X125953639Y-151647409D01*
X126292439Y-151602489D01*
X126615966Y-151492336D01*
X126814274Y-151386338D01*
X126922107Y-151111712D01*
X125895000Y-150084605D01*
X125880858Y-150098748D01*
X125701253Y-149919143D01*
X125715395Y-149905000D01*
X126074605Y-149905000D01*
X127101712Y-150932107D01*
X127376338Y-150824274D01*
X127527216Y-150517616D01*
X127615369Y-150187415D01*
X127637409Y-149846361D01*
X127592489Y-149507561D01*
X127482336Y-149184034D01*
X127376338Y-148985726D01*
X127101712Y-148877893D01*
X126074605Y-149905000D01*
X125715395Y-149905000D01*
X124688288Y-148877893D01*
X124413662Y-148985726D01*
X124262784Y-149292384D01*
X124174631Y-149622585D01*
X124152591Y-149963639D01*
X124197511Y-150302439D01*
X124307664Y-150625966D01*
X124413662Y-150824274D01*
X124688286Y-150932106D01*
X124685392Y-150935000D01*
X124476278Y-150935000D01*
X124184549Y-150993029D01*
X123909747Y-151106856D01*
X123662431Y-151272107D01*
X123452107Y-151482431D01*
X123286856Y-151729747D01*
X123173029Y-152004549D01*
X123115000Y-152296278D01*
X116125000Y-152296278D01*
X116066971Y-152004549D01*
X115953144Y-151729747D01*
X115787893Y-151482431D01*
X115577569Y-151272107D01*
X115330253Y-151106856D01*
X115055451Y-150993029D01*
X114763722Y-150935000D01*
X114466278Y-150935000D01*
X114174549Y-150993029D01*
X113899747Y-151106856D01*
X113652431Y-151272107D01*
X113442107Y-151482431D01*
X113276856Y-151729747D01*
X113163029Y-152004549D01*
X113105000Y-152296278D01*
X112170000Y-152296278D01*
X112170000Y-152185475D01*
X112068739Y-151676399D01*
X111870107Y-151196859D01*
X111581738Y-150765285D01*
X111214715Y-150398262D01*
X110783141Y-150109893D01*
X110303601Y-149911261D01*
X109794525Y-149810000D01*
X109275475Y-149810000D01*
X108766399Y-149911261D01*
X108286859Y-150109893D01*
X107855285Y-150398262D01*
X107488262Y-150765285D01*
X107199893Y-151196859D01*
X107001261Y-151676399D01*
X106900000Y-152185475D01*
X106900000Y-152704525D01*
X107001261Y-153213601D01*
X107199893Y-153693141D01*
X107488262Y-154124715D01*
X107855285Y-154491738D01*
X108114589Y-154665000D01*
X92701007Y-154665000D01*
X92659999Y-154660961D01*
X92618991Y-154665000D01*
X90785411Y-154665000D01*
X91044715Y-154491738D01*
X91411738Y-154124715D01*
X91700107Y-153693141D01*
X91898739Y-153213601D01*
X92000000Y-152704525D01*
X92000000Y-152296278D01*
X92935000Y-152296278D01*
X92935000Y-152593722D01*
X92993029Y-152885451D01*
X93106856Y-153160253D01*
X93272107Y-153407569D01*
X93482431Y-153617893D01*
X93729747Y-153783144D01*
X94004549Y-153896971D01*
X94296278Y-153955000D01*
X94593722Y-153955000D01*
X94885451Y-153896971D01*
X95160253Y-153783144D01*
X95407569Y-153617893D01*
X95617893Y-153407569D01*
X95783144Y-153160253D01*
X95896971Y-152885451D01*
X95955000Y-152593722D01*
X95955000Y-152296278D01*
X102945000Y-152296278D01*
X102945000Y-152593722D01*
X103003029Y-152885451D01*
X103116856Y-153160253D01*
X103282107Y-153407569D01*
X103492431Y-153617893D01*
X103739747Y-153783144D01*
X104014549Y-153896971D01*
X104306278Y-153955000D01*
X104603722Y-153955000D01*
X104895451Y-153896971D01*
X105170253Y-153783144D01*
X105417569Y-153617893D01*
X105627893Y-153407569D01*
X105793144Y-153160253D01*
X105906971Y-152885451D01*
X105965000Y-152593722D01*
X105965000Y-152296278D01*
X105906971Y-152004549D01*
X105793144Y-151729747D01*
X105736074Y-151644335D01*
X105783639Y-151647409D01*
X106122439Y-151602489D01*
X106445966Y-151492336D01*
X106644274Y-151386338D01*
X106752107Y-151111712D01*
X105725000Y-150084605D01*
X105710858Y-150098748D01*
X105531253Y-149919143D01*
X105545395Y-149905000D01*
X105904605Y-149905000D01*
X106931712Y-150932107D01*
X107206338Y-150824274D01*
X107357216Y-150517616D01*
X107445369Y-150187415D01*
X107467409Y-149846361D01*
X107422489Y-149507561D01*
X107312336Y-149184034D01*
X107206338Y-148985726D01*
X106931712Y-148877893D01*
X105904605Y-149905000D01*
X105545395Y-149905000D01*
X104518288Y-148877893D01*
X104243662Y-148985726D01*
X104092784Y-149292384D01*
X104004631Y-149622585D01*
X103982591Y-149963639D01*
X104027511Y-150302439D01*
X104137664Y-150625966D01*
X104243662Y-150824274D01*
X104518286Y-150932106D01*
X104515392Y-150935000D01*
X104306278Y-150935000D01*
X104014549Y-150993029D01*
X103739747Y-151106856D01*
X103492431Y-151272107D01*
X103282107Y-151482431D01*
X103116856Y-151729747D01*
X103003029Y-152004549D01*
X102945000Y-152296278D01*
X95955000Y-152296278D01*
X95896971Y-152004549D01*
X95783144Y-151729747D01*
X95617893Y-151482431D01*
X95407569Y-151272107D01*
X95160253Y-151106856D01*
X94885451Y-150993029D01*
X94593722Y-150935000D01*
X94296278Y-150935000D01*
X94004549Y-150993029D01*
X93729747Y-151106856D01*
X93482431Y-151272107D01*
X93272107Y-151482431D01*
X93106856Y-151729747D01*
X92993029Y-152004549D01*
X92935000Y-152296278D01*
X92000000Y-152296278D01*
X92000000Y-152185475D01*
X91898739Y-151676399D01*
X91700107Y-151196859D01*
X91411738Y-150765285D01*
X91044715Y-150398262D01*
X90613141Y-150109893D01*
X90133601Y-149911261D01*
X89624525Y-149810000D01*
X89105475Y-149810000D01*
X88596399Y-149911261D01*
X88116859Y-150109893D01*
X87685285Y-150398262D01*
X87318262Y-150765285D01*
X87029893Y-151196859D01*
X86831261Y-151676399D01*
X86730000Y-152185475D01*
X86730000Y-152704525D01*
X86831261Y-153213601D01*
X87029893Y-153693141D01*
X87318262Y-154124715D01*
X87685285Y-154491738D01*
X87944589Y-154665000D01*
X85798867Y-154665000D01*
X84941392Y-153807525D01*
X85000253Y-153783144D01*
X85247569Y-153617893D01*
X85457893Y-153407569D01*
X85623144Y-153160253D01*
X85736971Y-152885451D01*
X85795000Y-152593722D01*
X85795000Y-152296278D01*
X85736971Y-152004549D01*
X85623144Y-151729747D01*
X85566074Y-151644335D01*
X85613639Y-151647409D01*
X85952439Y-151602489D01*
X86275966Y-151492336D01*
X86474274Y-151386338D01*
X86582107Y-151111712D01*
X85555000Y-150084605D01*
X85540858Y-150098748D01*
X85361253Y-149919143D01*
X85375395Y-149905000D01*
X85734605Y-149905000D01*
X86761712Y-150932107D01*
X87036338Y-150824274D01*
X87187216Y-150517616D01*
X87275369Y-150187415D01*
X87297409Y-149846361D01*
X87252489Y-149507561D01*
X87142336Y-149184034D01*
X87036338Y-148985726D01*
X86761712Y-148877893D01*
X85734605Y-149905000D01*
X85375395Y-149905000D01*
X84348288Y-148877893D01*
X84073662Y-148985726D01*
X83922784Y-149292384D01*
X83834631Y-149622585D01*
X83812591Y-149963639D01*
X83857511Y-150302439D01*
X83967664Y-150625966D01*
X84073662Y-150824274D01*
X84348286Y-150932106D01*
X84345392Y-150935000D01*
X84136278Y-150935000D01*
X83844549Y-150993029D01*
X83569747Y-151106856D01*
X83322431Y-151272107D01*
X83112107Y-151482431D01*
X82946856Y-151729747D01*
X82922475Y-151788608D01*
X79832155Y-148698288D01*
X84527893Y-148698288D01*
X85555000Y-149725395D01*
X86582107Y-148698288D01*
X86474274Y-148423662D01*
X86167616Y-148272784D01*
X85837415Y-148184631D01*
X85496361Y-148162591D01*
X85157561Y-148207511D01*
X84834034Y-148317664D01*
X84635726Y-148423662D01*
X84527893Y-148698288D01*
X79832155Y-148698288D01*
X78327984Y-147194117D01*
X90170000Y-147194117D01*
X90170000Y-147535883D01*
X90236675Y-147871081D01*
X90367463Y-148186831D01*
X90557337Y-148470998D01*
X90799002Y-148712663D01*
X91083169Y-148902537D01*
X91398919Y-149033325D01*
X91734117Y-149100000D01*
X92075883Y-149100000D01*
X92411081Y-149033325D01*
X92726831Y-148902537D01*
X93010998Y-148712663D01*
X93025373Y-148698288D01*
X104697893Y-148698288D01*
X105725000Y-149725395D01*
X106752107Y-148698288D01*
X106644274Y-148423662D01*
X106337616Y-148272784D01*
X106007415Y-148184631D01*
X105666361Y-148162591D01*
X105327561Y-148207511D01*
X105004034Y-148317664D01*
X104805726Y-148423662D01*
X104697893Y-148698288D01*
X93025373Y-148698288D01*
X93252663Y-148470998D01*
X93442537Y-148186831D01*
X93573325Y-147871081D01*
X93640000Y-147535883D01*
X93640000Y-147194117D01*
X110340000Y-147194117D01*
X110340000Y-147535883D01*
X110406675Y-147871081D01*
X110537463Y-148186831D01*
X110727337Y-148470998D01*
X110969002Y-148712663D01*
X111253169Y-148902537D01*
X111568919Y-149033325D01*
X111904117Y-149100000D01*
X112245883Y-149100000D01*
X112581081Y-149033325D01*
X112896831Y-148902537D01*
X113180998Y-148712663D01*
X113195373Y-148698288D01*
X124867893Y-148698288D01*
X125895000Y-149725395D01*
X126922107Y-148698288D01*
X126814274Y-148423662D01*
X126507616Y-148272784D01*
X126177415Y-148184631D01*
X125836361Y-148162591D01*
X125497561Y-148207511D01*
X125174034Y-148317664D01*
X124975726Y-148423662D01*
X124867893Y-148698288D01*
X113195373Y-148698288D01*
X113422663Y-148470998D01*
X113612537Y-148186831D01*
X113743325Y-147871081D01*
X113810000Y-147535883D01*
X113810000Y-147194117D01*
X130510000Y-147194117D01*
X130510000Y-147535883D01*
X130576675Y-147871081D01*
X130707463Y-148186831D01*
X130897337Y-148470998D01*
X131139002Y-148712663D01*
X131423169Y-148902537D01*
X131738919Y-149033325D01*
X132074117Y-149100000D01*
X132415883Y-149100000D01*
X132751081Y-149033325D01*
X133066831Y-148902537D01*
X133350998Y-148712663D01*
X133592663Y-148470998D01*
X133782537Y-148186831D01*
X133913325Y-147871081D01*
X133980000Y-147535883D01*
X133980000Y-147194117D01*
X133913325Y-146858919D01*
X133782537Y-146543169D01*
X133592663Y-146259002D01*
X133350998Y-146017337D01*
X133066831Y-145827463D01*
X132751081Y-145696675D01*
X132415883Y-145630000D01*
X132074117Y-145630000D01*
X131738919Y-145696675D01*
X131423169Y-145827463D01*
X131139002Y-146017337D01*
X130897337Y-146259002D01*
X130707463Y-146543169D01*
X130576675Y-146858919D01*
X130510000Y-147194117D01*
X113810000Y-147194117D01*
X113743325Y-146858919D01*
X113612537Y-146543169D01*
X113422663Y-146259002D01*
X113180998Y-146017337D01*
X112896831Y-145827463D01*
X112581081Y-145696675D01*
X112245883Y-145630000D01*
X111904117Y-145630000D01*
X111568919Y-145696675D01*
X111253169Y-145827463D01*
X110969002Y-146017337D01*
X110727337Y-146259002D01*
X110537463Y-146543169D01*
X110406675Y-146858919D01*
X110340000Y-147194117D01*
X93640000Y-147194117D01*
X93573325Y-146858919D01*
X93442537Y-146543169D01*
X93252663Y-146259002D01*
X93010998Y-146017337D01*
X92726831Y-145827463D01*
X92411081Y-145696675D01*
X92075883Y-145630000D01*
X91734117Y-145630000D01*
X91398919Y-145696675D01*
X91083169Y-145827463D01*
X90799002Y-146017337D01*
X90557337Y-146259002D01*
X90367463Y-146543169D01*
X90236675Y-146858919D01*
X90170000Y-147194117D01*
X78327984Y-147194117D01*
X76531927Y-145398061D01*
X79465000Y-145398061D01*
X79465000Y-145601939D01*
X79504774Y-145801898D01*
X79582795Y-145990256D01*
X79696063Y-146159774D01*
X79840226Y-146303937D01*
X80009744Y-146417205D01*
X80198102Y-146495226D01*
X80398061Y-146535000D01*
X80601939Y-146535000D01*
X80801898Y-146495226D01*
X80990256Y-146417205D01*
X81159774Y-146303937D01*
X81303937Y-146159774D01*
X81417205Y-145990256D01*
X81495226Y-145801898D01*
X81524093Y-145656775D01*
X82561426Y-144619441D01*
X82593291Y-144593291D01*
X82697636Y-144466146D01*
X82775172Y-144321087D01*
X82822918Y-144163689D01*
X82835000Y-144041019D01*
X82835000Y-144041009D01*
X82839039Y-144000001D01*
X82835000Y-143958993D01*
X82835000Y-132720209D01*
X82946856Y-132990253D01*
X83112107Y-133237569D01*
X83322431Y-133447893D01*
X83569747Y-133613144D01*
X83844549Y-133726971D01*
X84136278Y-133785000D01*
X84433722Y-133785000D01*
X84725451Y-133726971D01*
X85000253Y-133613144D01*
X85247569Y-133447893D01*
X85457893Y-133237569D01*
X85623144Y-132990253D01*
X85736971Y-132715451D01*
X85795000Y-132423722D01*
X85795000Y-132126278D01*
X85772960Y-132015475D01*
X86730000Y-132015475D01*
X86730000Y-132534525D01*
X86831261Y-133043601D01*
X87029893Y-133523141D01*
X87318262Y-133954715D01*
X87685285Y-134321738D01*
X88116859Y-134610107D01*
X88596399Y-134808739D01*
X89105475Y-134910000D01*
X89624525Y-134910000D01*
X90133601Y-134808739D01*
X90613141Y-134610107D01*
X91044715Y-134321738D01*
X91411738Y-133954715D01*
X91700107Y-133523141D01*
X91898739Y-133043601D01*
X92000000Y-132534525D01*
X92000000Y-132126278D01*
X92935000Y-132126278D01*
X92935000Y-132423722D01*
X92993029Y-132715451D01*
X93106856Y-132990253D01*
X93272107Y-133237569D01*
X93482431Y-133447893D01*
X93729747Y-133613144D01*
X94004549Y-133726971D01*
X94296278Y-133785000D01*
X94593722Y-133785000D01*
X94885451Y-133726971D01*
X95160253Y-133613144D01*
X95407569Y-133447893D01*
X95617893Y-133237569D01*
X95783144Y-132990253D01*
X95896971Y-132715451D01*
X95955000Y-132423722D01*
X95955000Y-132126278D01*
X102945000Y-132126278D01*
X102945000Y-132423722D01*
X103003029Y-132715451D01*
X103116856Y-132990253D01*
X103282107Y-133237569D01*
X103492431Y-133447893D01*
X103739747Y-133613144D01*
X104014549Y-133726971D01*
X104306278Y-133785000D01*
X104603722Y-133785000D01*
X104895451Y-133726971D01*
X105170253Y-133613144D01*
X105417569Y-133447893D01*
X105627893Y-133237569D01*
X105793144Y-132990253D01*
X105906971Y-132715451D01*
X105965000Y-132423722D01*
X105965000Y-132126278D01*
X105942960Y-132015475D01*
X106900000Y-132015475D01*
X106900000Y-132534525D01*
X107001261Y-133043601D01*
X107199893Y-133523141D01*
X107488262Y-133954715D01*
X107855285Y-134321738D01*
X108286859Y-134610107D01*
X108766399Y-134808739D01*
X109275475Y-134910000D01*
X109794525Y-134910000D01*
X110303601Y-134808739D01*
X110783141Y-134610107D01*
X111214715Y-134321738D01*
X111581738Y-133954715D01*
X111870107Y-133523141D01*
X112068739Y-133043601D01*
X112170000Y-132534525D01*
X112170000Y-132126278D01*
X113105000Y-132126278D01*
X113105000Y-132423722D01*
X113163029Y-132715451D01*
X113276856Y-132990253D01*
X113442107Y-133237569D01*
X113652431Y-133447893D01*
X113899747Y-133613144D01*
X114174549Y-133726971D01*
X114466278Y-133785000D01*
X114763722Y-133785000D01*
X115055451Y-133726971D01*
X115330253Y-133613144D01*
X115577569Y-133447893D01*
X115787893Y-133237569D01*
X115953144Y-132990253D01*
X116066971Y-132715451D01*
X116125000Y-132423722D01*
X116125000Y-132126278D01*
X123115000Y-132126278D01*
X123115000Y-132423722D01*
X123173029Y-132715451D01*
X123286856Y-132990253D01*
X123452107Y-133237569D01*
X123662431Y-133447893D01*
X123909747Y-133613144D01*
X124184549Y-133726971D01*
X124476278Y-133785000D01*
X124773722Y-133785000D01*
X125065451Y-133726971D01*
X125340253Y-133613144D01*
X125587569Y-133447893D01*
X125797893Y-133237569D01*
X125963144Y-132990253D01*
X126076971Y-132715451D01*
X126135000Y-132423722D01*
X126135000Y-132126278D01*
X126112960Y-132015475D01*
X127070000Y-132015475D01*
X127070000Y-132534525D01*
X127171261Y-133043601D01*
X127369893Y-133523141D01*
X127658262Y-133954715D01*
X128025285Y-134321738D01*
X128456859Y-134610107D01*
X128936399Y-134808739D01*
X129445475Y-134910000D01*
X129964525Y-134910000D01*
X130473601Y-134808739D01*
X130953141Y-134610107D01*
X131384715Y-134321738D01*
X131751738Y-133954715D01*
X132040107Y-133523141D01*
X132238739Y-133043601D01*
X132340000Y-132534525D01*
X132340000Y-132126278D01*
X133275000Y-132126278D01*
X133275000Y-132423722D01*
X133333029Y-132715451D01*
X133446856Y-132990253D01*
X133612107Y-133237569D01*
X133822431Y-133447893D01*
X134069747Y-133613144D01*
X134344549Y-133726971D01*
X134636278Y-133785000D01*
X134933722Y-133785000D01*
X135225451Y-133726971D01*
X135500253Y-133613144D01*
X135747569Y-133447893D01*
X135957893Y-133237569D01*
X136123144Y-132990253D01*
X136236971Y-132715451D01*
X136295000Y-132423722D01*
X136295000Y-132126278D01*
X136236971Y-131834549D01*
X136123144Y-131559747D01*
X135957893Y-131312431D01*
X135747569Y-131102107D01*
X135500253Y-130936856D01*
X135225451Y-130823029D01*
X134933722Y-130765000D01*
X134636278Y-130765000D01*
X134344549Y-130823029D01*
X134069747Y-130936856D01*
X133822431Y-131102107D01*
X133612107Y-131312431D01*
X133446856Y-131559747D01*
X133333029Y-131834549D01*
X133275000Y-132126278D01*
X132340000Y-132126278D01*
X132340000Y-132015475D01*
X132238739Y-131506399D01*
X132040107Y-131026859D01*
X131751738Y-130595285D01*
X131384715Y-130228262D01*
X130953141Y-129939893D01*
X130473601Y-129741261D01*
X129964525Y-129640000D01*
X129445475Y-129640000D01*
X128936399Y-129741261D01*
X128456859Y-129939893D01*
X128025285Y-130228262D01*
X127658262Y-130595285D01*
X127369893Y-131026859D01*
X127171261Y-131506399D01*
X127070000Y-132015475D01*
X126112960Y-132015475D01*
X126076971Y-131834549D01*
X125963144Y-131559747D01*
X125906074Y-131474335D01*
X125953639Y-131477409D01*
X126292439Y-131432489D01*
X126615966Y-131322336D01*
X126814274Y-131216338D01*
X126922107Y-130941712D01*
X125895000Y-129914605D01*
X125880858Y-129928748D01*
X125701253Y-129749143D01*
X125715395Y-129735000D01*
X126074605Y-129735000D01*
X127101712Y-130762107D01*
X127376338Y-130654274D01*
X127527216Y-130347616D01*
X127615369Y-130017415D01*
X127637409Y-129676361D01*
X127592489Y-129337561D01*
X127482336Y-129014034D01*
X127376338Y-128815726D01*
X127101712Y-128707893D01*
X126074605Y-129735000D01*
X125715395Y-129735000D01*
X124688288Y-128707893D01*
X124413662Y-128815726D01*
X124262784Y-129122384D01*
X124174631Y-129452585D01*
X124152591Y-129793639D01*
X124197511Y-130132439D01*
X124307664Y-130455966D01*
X124413662Y-130654274D01*
X124688286Y-130762106D01*
X124685392Y-130765000D01*
X124476278Y-130765000D01*
X124184549Y-130823029D01*
X123909747Y-130936856D01*
X123662431Y-131102107D01*
X123452107Y-131312431D01*
X123286856Y-131559747D01*
X123173029Y-131834549D01*
X123115000Y-132126278D01*
X116125000Y-132126278D01*
X116066971Y-131834549D01*
X115953144Y-131559747D01*
X115787893Y-131312431D01*
X115577569Y-131102107D01*
X115330253Y-130936856D01*
X115055451Y-130823029D01*
X114763722Y-130765000D01*
X114466278Y-130765000D01*
X114174549Y-130823029D01*
X113899747Y-130936856D01*
X113652431Y-131102107D01*
X113442107Y-131312431D01*
X113276856Y-131559747D01*
X113163029Y-131834549D01*
X113105000Y-132126278D01*
X112170000Y-132126278D01*
X112170000Y-132015475D01*
X112068739Y-131506399D01*
X111870107Y-131026859D01*
X111581738Y-130595285D01*
X111214715Y-130228262D01*
X110783141Y-129939893D01*
X110303601Y-129741261D01*
X109794525Y-129640000D01*
X109275475Y-129640000D01*
X108766399Y-129741261D01*
X108286859Y-129939893D01*
X107855285Y-130228262D01*
X107488262Y-130595285D01*
X107199893Y-131026859D01*
X107001261Y-131506399D01*
X106900000Y-132015475D01*
X105942960Y-132015475D01*
X105906971Y-131834549D01*
X105793144Y-131559747D01*
X105736074Y-131474335D01*
X105783639Y-131477409D01*
X106122439Y-131432489D01*
X106445966Y-131322336D01*
X106644274Y-131216338D01*
X106752107Y-130941712D01*
X105725000Y-129914605D01*
X105710858Y-129928748D01*
X105531253Y-129749143D01*
X105545395Y-129735000D01*
X105904605Y-129735000D01*
X106931712Y-130762107D01*
X107206338Y-130654274D01*
X107357216Y-130347616D01*
X107445369Y-130017415D01*
X107467409Y-129676361D01*
X107422489Y-129337561D01*
X107312336Y-129014034D01*
X107206338Y-128815726D01*
X106931712Y-128707893D01*
X105904605Y-129735000D01*
X105545395Y-129735000D01*
X104518288Y-128707893D01*
X104243662Y-128815726D01*
X104092784Y-129122384D01*
X104004631Y-129452585D01*
X103982591Y-129793639D01*
X104027511Y-130132439D01*
X104137664Y-130455966D01*
X104243662Y-130654274D01*
X104518286Y-130762106D01*
X104515392Y-130765000D01*
X104306278Y-130765000D01*
X104014549Y-130823029D01*
X103739747Y-130936856D01*
X103492431Y-131102107D01*
X103282107Y-131312431D01*
X103116856Y-131559747D01*
X103003029Y-131834549D01*
X102945000Y-132126278D01*
X95955000Y-132126278D01*
X95896971Y-131834549D01*
X95783144Y-131559747D01*
X95617893Y-131312431D01*
X95407569Y-131102107D01*
X95160253Y-130936856D01*
X94885451Y-130823029D01*
X94593722Y-130765000D01*
X94296278Y-130765000D01*
X94004549Y-130823029D01*
X93729747Y-130936856D01*
X93482431Y-131102107D01*
X93272107Y-131312431D01*
X93106856Y-131559747D01*
X92993029Y-131834549D01*
X92935000Y-132126278D01*
X92000000Y-132126278D01*
X92000000Y-132015475D01*
X91898739Y-131506399D01*
X91700107Y-131026859D01*
X91411738Y-130595285D01*
X91044715Y-130228262D01*
X90613141Y-129939893D01*
X90133601Y-129741261D01*
X89624525Y-129640000D01*
X89105475Y-129640000D01*
X88596399Y-129741261D01*
X88116859Y-129939893D01*
X87685285Y-130228262D01*
X87318262Y-130595285D01*
X87029893Y-131026859D01*
X86831261Y-131506399D01*
X86730000Y-132015475D01*
X85772960Y-132015475D01*
X85736971Y-131834549D01*
X85623144Y-131559747D01*
X85566074Y-131474335D01*
X85613639Y-131477409D01*
X85952439Y-131432489D01*
X86275966Y-131322336D01*
X86474274Y-131216338D01*
X86582107Y-130941712D01*
X85555000Y-129914605D01*
X85540858Y-129928748D01*
X85361253Y-129749143D01*
X85375395Y-129735000D01*
X85734605Y-129735000D01*
X86761712Y-130762107D01*
X87036338Y-130654274D01*
X87187216Y-130347616D01*
X87275369Y-130017415D01*
X87297409Y-129676361D01*
X87252489Y-129337561D01*
X87142336Y-129014034D01*
X87036338Y-128815726D01*
X86761712Y-128707893D01*
X85734605Y-129735000D01*
X85375395Y-129735000D01*
X84348288Y-128707893D01*
X84073662Y-128815726D01*
X83922784Y-129122384D01*
X83834631Y-129452585D01*
X83812591Y-129793639D01*
X83857511Y-130132439D01*
X83967664Y-130455966D01*
X84073662Y-130654274D01*
X84348286Y-130762106D01*
X84345392Y-130765000D01*
X84136278Y-130765000D01*
X83844549Y-130823029D01*
X83569747Y-130936856D01*
X83322431Y-131102107D01*
X83112107Y-131312431D01*
X82946856Y-131559747D01*
X82835000Y-131829791D01*
X82835000Y-128528288D01*
X84527893Y-128528288D01*
X85555000Y-129555395D01*
X86582107Y-128528288D01*
X86474274Y-128253662D01*
X86167616Y-128102784D01*
X85837415Y-128014631D01*
X85496361Y-127992591D01*
X85157561Y-128037511D01*
X84834034Y-128147664D01*
X84635726Y-128253662D01*
X84527893Y-128528288D01*
X82835000Y-128528288D01*
X82835000Y-127024117D01*
X90170000Y-127024117D01*
X90170000Y-127365883D01*
X90236675Y-127701081D01*
X90367463Y-128016831D01*
X90557337Y-128300998D01*
X90799002Y-128542663D01*
X91083169Y-128732537D01*
X91398919Y-128863325D01*
X91734117Y-128930000D01*
X92075883Y-128930000D01*
X92411081Y-128863325D01*
X92726831Y-128732537D01*
X93010998Y-128542663D01*
X93025373Y-128528288D01*
X104697893Y-128528288D01*
X105725000Y-129555395D01*
X106752107Y-128528288D01*
X106644274Y-128253662D01*
X106337616Y-128102784D01*
X106007415Y-128014631D01*
X105666361Y-127992591D01*
X105327561Y-128037511D01*
X105004034Y-128147664D01*
X104805726Y-128253662D01*
X104697893Y-128528288D01*
X93025373Y-128528288D01*
X93252663Y-128300998D01*
X93442537Y-128016831D01*
X93573325Y-127701081D01*
X93640000Y-127365883D01*
X93640000Y-127024117D01*
X110340000Y-127024117D01*
X110340000Y-127365883D01*
X110406675Y-127701081D01*
X110537463Y-128016831D01*
X110727337Y-128300998D01*
X110969002Y-128542663D01*
X111253169Y-128732537D01*
X111568919Y-128863325D01*
X111904117Y-128930000D01*
X112245883Y-128930000D01*
X112581081Y-128863325D01*
X112896831Y-128732537D01*
X113180998Y-128542663D01*
X113195373Y-128528288D01*
X124867893Y-128528288D01*
X125895000Y-129555395D01*
X126922107Y-128528288D01*
X126814274Y-128253662D01*
X126507616Y-128102784D01*
X126177415Y-128014631D01*
X125836361Y-127992591D01*
X125497561Y-128037511D01*
X125174034Y-128147664D01*
X124975726Y-128253662D01*
X124867893Y-128528288D01*
X113195373Y-128528288D01*
X113422663Y-128300998D01*
X113612537Y-128016831D01*
X113743325Y-127701081D01*
X113810000Y-127365883D01*
X113810000Y-127024117D01*
X130510000Y-127024117D01*
X130510000Y-127365883D01*
X130576675Y-127701081D01*
X130707463Y-128016831D01*
X130897337Y-128300998D01*
X131139002Y-128542663D01*
X131423169Y-128732537D01*
X131738919Y-128863325D01*
X132074117Y-128930000D01*
X132415883Y-128930000D01*
X132751081Y-128863325D01*
X133066831Y-128732537D01*
X133350998Y-128542663D01*
X133592663Y-128300998D01*
X133782537Y-128016831D01*
X133913325Y-127701081D01*
X133980000Y-127365883D01*
X133980000Y-127024117D01*
X133913325Y-126688919D01*
X133782537Y-126373169D01*
X133592663Y-126089002D01*
X133350998Y-125847337D01*
X133066831Y-125657463D01*
X132751081Y-125526675D01*
X132415883Y-125460000D01*
X132074117Y-125460000D01*
X131738919Y-125526675D01*
X131423169Y-125657463D01*
X131139002Y-125847337D01*
X130897337Y-126089002D01*
X130707463Y-126373169D01*
X130576675Y-126688919D01*
X130510000Y-127024117D01*
X113810000Y-127024117D01*
X113743325Y-126688919D01*
X113612537Y-126373169D01*
X113422663Y-126089002D01*
X113180998Y-125847337D01*
X112896831Y-125657463D01*
X112581081Y-125526675D01*
X112245883Y-125460000D01*
X111904117Y-125460000D01*
X111568919Y-125526675D01*
X111253169Y-125657463D01*
X110969002Y-125847337D01*
X110727337Y-126089002D01*
X110537463Y-126373169D01*
X110406675Y-126688919D01*
X110340000Y-127024117D01*
X93640000Y-127024117D01*
X93573325Y-126688919D01*
X93442537Y-126373169D01*
X93252663Y-126089002D01*
X93010998Y-125847337D01*
X92726831Y-125657463D01*
X92411081Y-125526675D01*
X92075883Y-125460000D01*
X91734117Y-125460000D01*
X91398919Y-125526675D01*
X91083169Y-125657463D01*
X90799002Y-125847337D01*
X90557337Y-126089002D01*
X90367463Y-126373169D01*
X90236675Y-126688919D01*
X90170000Y-127024117D01*
X82835000Y-127024117D01*
X82835000Y-120613285D01*
X82917205Y-120490256D01*
X82995226Y-120301898D01*
X83035000Y-120101939D01*
X83035000Y-119898061D01*
X82995226Y-119698102D01*
X82917205Y-119509744D01*
X82803937Y-119340226D01*
X82659774Y-119196063D01*
X82490256Y-119082795D01*
X82301898Y-119004774D01*
X82101939Y-118965000D01*
X81898061Y-118965000D01*
X81698102Y-119004774D01*
X81509744Y-119082795D01*
X81340226Y-119196063D01*
X81196063Y-119340226D01*
X81082795Y-119509744D01*
X81004774Y-119698102D01*
X80965000Y-119898061D01*
X80965000Y-120101939D01*
X81004774Y-120301898D01*
X81082795Y-120490256D01*
X81165000Y-120613285D01*
X81165001Y-143654131D01*
X80343225Y-144475907D01*
X80198102Y-144504774D01*
X80009744Y-144582795D01*
X79840226Y-144696063D01*
X79696063Y-144840226D01*
X79582795Y-145009744D01*
X79504774Y-145198102D01*
X79465000Y-145398061D01*
X76531927Y-145398061D01*
X71835000Y-140701135D01*
X71835000Y-128225020D01*
X71839040Y-128184001D01*
X71822918Y-128020313D01*
X71775172Y-127862915D01*
X71697636Y-127717856D01*
X71683869Y-127701081D01*
X71593291Y-127590711D01*
X71561428Y-127564562D01*
X69937683Y-125940818D01*
X69995226Y-125801898D01*
X70035000Y-125601939D01*
X70035000Y-125398061D01*
X69995226Y-125198102D01*
X69917205Y-125009744D01*
X69803937Y-124840226D01*
X69659774Y-124696063D01*
X69490256Y-124582795D01*
X69301898Y-124504774D01*
X69101939Y-124465000D01*
X68898061Y-124465000D01*
X68698102Y-124504774D01*
X68509744Y-124582795D01*
X68340226Y-124696063D01*
X68196063Y-124840226D01*
X68082795Y-125009744D01*
X68004774Y-125198102D01*
X67965000Y-125398061D01*
X67965000Y-125601939D01*
X68004774Y-125801898D01*
X68082795Y-125990256D01*
X68165000Y-126113285D01*
X68165000Y-126142984D01*
X68160960Y-126184002D01*
X68177082Y-126347690D01*
X68224828Y-126505088D01*
X68302364Y-126650147D01*
X68302365Y-126650148D01*
X68406710Y-126777293D01*
X68438574Y-126803443D01*
X70165000Y-128529870D01*
X70165000Y-132201289D01*
X70159774Y-132196063D01*
X69990256Y-132082795D01*
X69801898Y-132004774D01*
X69601939Y-131965000D01*
X69398061Y-131965000D01*
X69198102Y-132004774D01*
X69009744Y-132082795D01*
X68886715Y-132165000D01*
X58541014Y-132165000D01*
X58499996Y-132160960D01*
X58458978Y-132165000D01*
X58458977Y-132165000D01*
X58336307Y-132177082D01*
X58178909Y-132224828D01*
X58033850Y-132302364D01*
X57906705Y-132406709D01*
X57880559Y-132438568D01*
X57343221Y-132975908D01*
X57198098Y-133004774D01*
X57009740Y-133082795D01*
X56840222Y-133196063D01*
X56696059Y-133340226D01*
X56660000Y-133394192D01*
X56660000Y-118279872D01*
X57265000Y-118279872D01*
X57265000Y-118720128D01*
X57350890Y-119151925D01*
X57519369Y-119558669D01*
X57763962Y-119924729D01*
X58075271Y-120236038D01*
X58441331Y-120480631D01*
X58848075Y-120649110D01*
X59279872Y-120735000D01*
X59720128Y-120735000D01*
X60151925Y-120649110D01*
X60558669Y-120480631D01*
X60924729Y-120236038D01*
X61236038Y-119924729D01*
X61236359Y-119924248D01*
X64745000Y-119924248D01*
X64745000Y-121135751D01*
X64761423Y-121302498D01*
X64826324Y-121516446D01*
X64931716Y-121713623D01*
X65073551Y-121886449D01*
X65246377Y-122028284D01*
X65443553Y-122133676D01*
X65657501Y-122198577D01*
X65880000Y-122220491D01*
X66102498Y-122198577D01*
X66316446Y-122133676D01*
X66513623Y-122028284D01*
X66686449Y-121886449D01*
X66828284Y-121713623D01*
X66933676Y-121516447D01*
X66998577Y-121302499D01*
X67015000Y-121135752D01*
X67015000Y-120916904D01*
X67029978Y-120923108D01*
X67215448Y-120960000D01*
X67404552Y-120960000D01*
X67590022Y-120923108D01*
X67764731Y-120850741D01*
X67921964Y-120745681D01*
X68055681Y-120611964D01*
X68160741Y-120454731D01*
X68233108Y-120280022D01*
X68270000Y-120094552D01*
X68270000Y-119905448D01*
X72130000Y-119905448D01*
X72130000Y-120094552D01*
X72166892Y-120280022D01*
X72239259Y-120454731D01*
X72344319Y-120611964D01*
X72478036Y-120745681D01*
X72635269Y-120850741D01*
X72809978Y-120923108D01*
X72995448Y-120960000D01*
X73184552Y-120960000D01*
X73370022Y-120923108D01*
X73385000Y-120916904D01*
X73385000Y-121135751D01*
X73401423Y-121302498D01*
X73466324Y-121516446D01*
X73571716Y-121713623D01*
X73713551Y-121886449D01*
X73886377Y-122028284D01*
X74083553Y-122133676D01*
X74297501Y-122198577D01*
X74520000Y-122220491D01*
X74742498Y-122198577D01*
X74956446Y-122133676D01*
X75153623Y-122028284D01*
X75326449Y-121886449D01*
X75468284Y-121713623D01*
X75573676Y-121516447D01*
X75638577Y-121302499D01*
X75655000Y-121135752D01*
X75655000Y-119924248D01*
X75638577Y-119757501D01*
X75573676Y-119543553D01*
X75468284Y-119346377D01*
X75326449Y-119173551D01*
X75153623Y-119031716D01*
X74956447Y-118926324D01*
X74742499Y-118861423D01*
X74520000Y-118839509D01*
X74297502Y-118861423D01*
X74083554Y-118926324D01*
X73886378Y-119031716D01*
X73713552Y-119173551D01*
X73666638Y-119230715D01*
X73544731Y-119149259D01*
X73370022Y-119076892D01*
X73184552Y-119040000D01*
X72995448Y-119040000D01*
X72809978Y-119076892D01*
X72635269Y-119149259D01*
X72478036Y-119254319D01*
X72344319Y-119388036D01*
X72239259Y-119545269D01*
X72166892Y-119719978D01*
X72130000Y-119905448D01*
X68270000Y-119905448D01*
X68233108Y-119719978D01*
X68160741Y-119545269D01*
X68055681Y-119388036D01*
X67921964Y-119254319D01*
X67764731Y-119149259D01*
X67590022Y-119076892D01*
X67404552Y-119040000D01*
X67215448Y-119040000D01*
X67029978Y-119076892D01*
X66855269Y-119149259D01*
X66733362Y-119230715D01*
X66686449Y-119173551D01*
X66513623Y-119031716D01*
X66316447Y-118926324D01*
X66102499Y-118861423D01*
X65880000Y-118839509D01*
X65657502Y-118861423D01*
X65443554Y-118926324D01*
X65246378Y-119031716D01*
X65073552Y-119173551D01*
X64931717Y-119346377D01*
X64826324Y-119543553D01*
X64761423Y-119757501D01*
X64745000Y-119924248D01*
X61236359Y-119924248D01*
X61480631Y-119558669D01*
X61649110Y-119151925D01*
X61735000Y-118720128D01*
X61735000Y-118279872D01*
X135265000Y-118279872D01*
X135265000Y-118720128D01*
X135350890Y-119151925D01*
X135519369Y-119558669D01*
X135763962Y-119924729D01*
X136075271Y-120236038D01*
X136441331Y-120480631D01*
X136848075Y-120649110D01*
X137279872Y-120735000D01*
X137720128Y-120735000D01*
X138151925Y-120649110D01*
X138558669Y-120480631D01*
X138924729Y-120236038D01*
X139236038Y-119924729D01*
X139480631Y-119558669D01*
X139649110Y-119151925D01*
X139735000Y-118720128D01*
X139735000Y-118279872D01*
X139649110Y-117848075D01*
X139480631Y-117441331D01*
X139236038Y-117075271D01*
X138924729Y-116763962D01*
X138558669Y-116519369D01*
X138151925Y-116350890D01*
X137720128Y-116265000D01*
X137279872Y-116265000D01*
X136848075Y-116350890D01*
X136441331Y-116519369D01*
X136075271Y-116763962D01*
X135763962Y-117075271D01*
X135519369Y-117441331D01*
X135350890Y-117848075D01*
X135265000Y-118279872D01*
X61735000Y-118279872D01*
X61649110Y-117848075D01*
X61480631Y-117441331D01*
X61236038Y-117075271D01*
X60924729Y-116763962D01*
X60558669Y-116519369D01*
X60151925Y-116350890D01*
X59720128Y-116265000D01*
X59279872Y-116265000D01*
X58848075Y-116350890D01*
X58441331Y-116519369D01*
X58075271Y-116763962D01*
X57763962Y-117075271D01*
X57519369Y-117441331D01*
X57350890Y-117848075D01*
X57265000Y-118279872D01*
X56660000Y-118279872D01*
X56660000Y-115660000D01*
X64812234Y-115660000D01*
X64761423Y-115827501D01*
G37*
%TD.AperFunction*%
%TD*%
M02*
