%TF.GenerationSoftware,KiCad,Pcbnew,5.1.10*%
%TF.CreationDate,2021-10-11T19:57:22-04:00*%
%TF.ProjectId,6_key_macro,365f6b65-795f-46d6-9163-726f2e6b6963,rev?*%
%TF.SameCoordinates,Original*%
%TF.FileFunction,Legend,Top*%
%TF.FilePolarity,Positive*%
%FSLAX46Y46*%
G04 Gerber Fmt 4.6, Leading zero omitted, Abs format (unit mm)*
G04 Created by KiCad (PCBNEW 5.1.10) date 2021-10-11 19:57:22*
%MOMM*%
%LPD*%
G01*
G04 APERTURE LIST*
%ADD10C,0.120000*%
%ADD11C,0.150000*%
G04 APERTURE END LIST*
D10*
%TO.C,SW4*%
X102535000Y-145445000D02*
X102535000Y-159445000D01*
X102535000Y-145445000D02*
X116535000Y-145445000D01*
X116535000Y-145445000D02*
X116535000Y-159445000D01*
X116535000Y-159445000D02*
X102535000Y-159445000D01*
%TO.C,U3*%
X58600000Y-130610000D02*
X61050000Y-130610000D01*
X60400000Y-127390000D02*
X58600000Y-127390000D01*
%TO.C,R9*%
X74727064Y-152765000D02*
X74272936Y-152765000D01*
X74727064Y-154235000D02*
X74272936Y-154235000D01*
%TO.C,R8*%
X85227064Y-116765000D02*
X84772936Y-116765000D01*
X85227064Y-118235000D02*
X84772936Y-118235000D01*
%TO.C,R7*%
X85227064Y-118765000D02*
X84772936Y-118765000D01*
X85227064Y-120235000D02*
X84772936Y-120235000D01*
%TO.C,R6*%
X74727064Y-150765000D02*
X74272936Y-150765000D01*
X74727064Y-152235000D02*
X74272936Y-152235000D01*
%TO.C,R5*%
X85227064Y-120765000D02*
X84772936Y-120765000D01*
X85227064Y-122235000D02*
X84772936Y-122235000D01*
%TO.C,R4*%
X74727064Y-148765000D02*
X74272936Y-148765000D01*
X74727064Y-150235000D02*
X74272936Y-150235000D01*
%TO.C,R3*%
X68235000Y-147227064D02*
X68235000Y-146772936D01*
X66765000Y-147227064D02*
X66765000Y-146772936D01*
%TO.C,Q1*%
X70000000Y-146100000D02*
X71650000Y-146100000D01*
X71650000Y-147900000D02*
X70350000Y-147900000D01*
%TO.C,C7*%
X59238748Y-134735000D02*
X59761252Y-134735000D01*
X59238748Y-133265000D02*
X59761252Y-133265000D01*
%TO.C,C6*%
X59238748Y-132735000D02*
X59761252Y-132735000D01*
X59238748Y-131265000D02*
X59761252Y-131265000D01*
%TO.C,C5*%
X59761252Y-123265000D02*
X59238748Y-123265000D01*
X59761252Y-124735000D02*
X59238748Y-124735000D01*
%TO.C,C4*%
X59761252Y-125265000D02*
X59238748Y-125265000D01*
X59761252Y-126735000D02*
X59238748Y-126735000D01*
%TO.C,SW3*%
X102535000Y-125275000D02*
X102535000Y-139275000D01*
X102535000Y-125275000D02*
X116535000Y-125275000D01*
X116535000Y-125275000D02*
X116535000Y-139275000D01*
X116535000Y-139275000D02*
X102535000Y-139275000D01*
%TO.C,SW5*%
X122705000Y-125275000D02*
X122705000Y-139275000D01*
X122705000Y-125275000D02*
X136705000Y-125275000D01*
X136705000Y-125275000D02*
X136705000Y-139275000D01*
X136705000Y-139275000D02*
X122705000Y-139275000D01*
%TO.C,SW6*%
X122705000Y-145445000D02*
X122705000Y-159445000D01*
X122705000Y-145445000D02*
X136705000Y-145445000D01*
X136705000Y-145445000D02*
X136705000Y-159445000D01*
X136705000Y-159445000D02*
X122705000Y-159445000D01*
%TO.C,SW2*%
X82365000Y-145445000D02*
X82365000Y-159445000D01*
X82365000Y-145445000D02*
X96365000Y-145445000D01*
X96365000Y-145445000D02*
X96365000Y-159445000D01*
X96365000Y-159445000D02*
X82365000Y-159445000D01*
%TO.C,SW1*%
X82365000Y-125275000D02*
X82365000Y-139275000D01*
X82365000Y-125275000D02*
X96365000Y-125275000D01*
X96365000Y-125275000D02*
X96365000Y-139275000D01*
X96365000Y-139275000D02*
X82365000Y-139275000D01*
%TO.C,U1*%
X61890000Y-143310000D02*
X61890000Y-144625000D01*
X61590000Y-143310000D02*
X61890000Y-143310000D01*
X61590000Y-143010000D02*
X61590000Y-143310000D01*
X61590000Y-136090000D02*
X61890000Y-136090000D01*
X61590000Y-136390000D02*
X61590000Y-136090000D01*
X68810000Y-143310000D02*
X68510000Y-143310000D01*
X68810000Y-143010000D02*
X68810000Y-143310000D01*
X68810000Y-136090000D02*
X68510000Y-136090000D01*
X68810000Y-136390000D02*
X68810000Y-136090000D01*
%TO.C,R1*%
X64465000Y-131472936D02*
X64465000Y-131927064D01*
X65935000Y-131472936D02*
X65935000Y-131927064D01*
%TO.C,R2*%
X62465000Y-131472936D02*
X62465000Y-131927064D01*
X63935000Y-131472936D02*
X63935000Y-131927064D01*
%TO.C,C3*%
X64765000Y-146738748D02*
X64765000Y-147261252D01*
X66235000Y-146738748D02*
X66235000Y-147261252D01*
%TO.C,C2*%
X59761252Y-144265000D02*
X59238748Y-144265000D01*
X59761252Y-145735000D02*
X59238748Y-145735000D01*
%TO.C,C1*%
X70738748Y-135235000D02*
X71261252Y-135235000D01*
X70738748Y-133765000D02*
X71261252Y-133765000D01*
%TO.C,U2*%
X70300000Y-127100000D02*
X68700000Y-127100000D01*
X68700000Y-128900000D02*
X70600000Y-128900000D01*
%TO.C,FB1*%
X78060000Y-121910242D02*
X78060000Y-121089758D01*
X76940000Y-121910242D02*
X76940000Y-121089758D01*
%TO.C,F1*%
X68210000Y-124861252D02*
X68210000Y-124338748D01*
X66790000Y-124861252D02*
X66790000Y-124338748D01*
%TO.C,P1*%
X74900000Y-113500000D02*
X65500000Y-113500000D01*
X65500000Y-119300000D02*
X65500000Y-117300000D01*
X65500000Y-115400000D02*
X65500000Y-113500000D01*
X74900000Y-119300000D02*
X74900000Y-117300000D01*
X74900000Y-115400000D02*
X74900000Y-113500000D01*
%TO.C,SW4*%
D11*
X108201666Y-144187261D02*
X108344523Y-144234880D01*
X108582619Y-144234880D01*
X108677857Y-144187261D01*
X108725476Y-144139642D01*
X108773095Y-144044404D01*
X108773095Y-143949166D01*
X108725476Y-143853928D01*
X108677857Y-143806309D01*
X108582619Y-143758690D01*
X108392142Y-143711071D01*
X108296904Y-143663452D01*
X108249285Y-143615833D01*
X108201666Y-143520595D01*
X108201666Y-143425357D01*
X108249285Y-143330119D01*
X108296904Y-143282500D01*
X108392142Y-143234880D01*
X108630238Y-143234880D01*
X108773095Y-143282500D01*
X109106428Y-143234880D02*
X109344523Y-144234880D01*
X109535000Y-143520595D01*
X109725476Y-144234880D01*
X109963571Y-143234880D01*
X110773095Y-143568214D02*
X110773095Y-144234880D01*
X110535000Y-143187261D02*
X110296904Y-143901547D01*
X110915952Y-143901547D01*
%TO.C,U3*%
X56452380Y-129661904D02*
X57261904Y-129661904D01*
X57357142Y-129614285D01*
X57404761Y-129566666D01*
X57452380Y-129471428D01*
X57452380Y-129280952D01*
X57404761Y-129185714D01*
X57357142Y-129138095D01*
X57261904Y-129090476D01*
X56452380Y-129090476D01*
X56452380Y-128709523D02*
X56452380Y-128090476D01*
X56833333Y-128423809D01*
X56833333Y-128280952D01*
X56880952Y-128185714D01*
X56928571Y-128138095D01*
X57023809Y-128090476D01*
X57261904Y-128090476D01*
X57357142Y-128138095D01*
X57404761Y-128185714D01*
X57452380Y-128280952D01*
X57452380Y-128566666D01*
X57404761Y-128661904D01*
X57357142Y-128709523D01*
%TO.C,R9*%
X77333333Y-153952380D02*
X77000000Y-153476190D01*
X76761904Y-153952380D02*
X76761904Y-152952380D01*
X77142857Y-152952380D01*
X77238095Y-153000000D01*
X77285714Y-153047619D01*
X77333333Y-153142857D01*
X77333333Y-153285714D01*
X77285714Y-153380952D01*
X77238095Y-153428571D01*
X77142857Y-153476190D01*
X76761904Y-153476190D01*
X77809523Y-153952380D02*
X78000000Y-153952380D01*
X78095238Y-153904761D01*
X78142857Y-153857142D01*
X78238095Y-153714285D01*
X78285714Y-153523809D01*
X78285714Y-153142857D01*
X78238095Y-153047619D01*
X78190476Y-153000000D01*
X78095238Y-152952380D01*
X77904761Y-152952380D01*
X77809523Y-153000000D01*
X77761904Y-153047619D01*
X77714285Y-153142857D01*
X77714285Y-153380952D01*
X77761904Y-153476190D01*
X77809523Y-153523809D01*
X77904761Y-153571428D01*
X78095238Y-153571428D01*
X78190476Y-153523809D01*
X78238095Y-153476190D01*
X78285714Y-153380952D01*
%TO.C,R8*%
X87833333Y-117952380D02*
X87500000Y-117476190D01*
X87261904Y-117952380D02*
X87261904Y-116952380D01*
X87642857Y-116952380D01*
X87738095Y-117000000D01*
X87785714Y-117047619D01*
X87833333Y-117142857D01*
X87833333Y-117285714D01*
X87785714Y-117380952D01*
X87738095Y-117428571D01*
X87642857Y-117476190D01*
X87261904Y-117476190D01*
X88404761Y-117380952D02*
X88309523Y-117333333D01*
X88261904Y-117285714D01*
X88214285Y-117190476D01*
X88214285Y-117142857D01*
X88261904Y-117047619D01*
X88309523Y-117000000D01*
X88404761Y-116952380D01*
X88595238Y-116952380D01*
X88690476Y-117000000D01*
X88738095Y-117047619D01*
X88785714Y-117142857D01*
X88785714Y-117190476D01*
X88738095Y-117285714D01*
X88690476Y-117333333D01*
X88595238Y-117380952D01*
X88404761Y-117380952D01*
X88309523Y-117428571D01*
X88261904Y-117476190D01*
X88214285Y-117571428D01*
X88214285Y-117761904D01*
X88261904Y-117857142D01*
X88309523Y-117904761D01*
X88404761Y-117952380D01*
X88595238Y-117952380D01*
X88690476Y-117904761D01*
X88738095Y-117857142D01*
X88785714Y-117761904D01*
X88785714Y-117571428D01*
X88738095Y-117476190D01*
X88690476Y-117428571D01*
X88595238Y-117380952D01*
%TO.C,R7*%
X87833333Y-119952380D02*
X87500000Y-119476190D01*
X87261904Y-119952380D02*
X87261904Y-118952380D01*
X87642857Y-118952380D01*
X87738095Y-119000000D01*
X87785714Y-119047619D01*
X87833333Y-119142857D01*
X87833333Y-119285714D01*
X87785714Y-119380952D01*
X87738095Y-119428571D01*
X87642857Y-119476190D01*
X87261904Y-119476190D01*
X88166666Y-118952380D02*
X88833333Y-118952380D01*
X88404761Y-119952380D01*
%TO.C,R6*%
X77333333Y-151952380D02*
X77000000Y-151476190D01*
X76761904Y-151952380D02*
X76761904Y-150952380D01*
X77142857Y-150952380D01*
X77238095Y-151000000D01*
X77285714Y-151047619D01*
X77333333Y-151142857D01*
X77333333Y-151285714D01*
X77285714Y-151380952D01*
X77238095Y-151428571D01*
X77142857Y-151476190D01*
X76761904Y-151476190D01*
X78190476Y-150952380D02*
X78000000Y-150952380D01*
X77904761Y-151000000D01*
X77857142Y-151047619D01*
X77761904Y-151190476D01*
X77714285Y-151380952D01*
X77714285Y-151761904D01*
X77761904Y-151857142D01*
X77809523Y-151904761D01*
X77904761Y-151952380D01*
X78095238Y-151952380D01*
X78190476Y-151904761D01*
X78238095Y-151857142D01*
X78285714Y-151761904D01*
X78285714Y-151523809D01*
X78238095Y-151428571D01*
X78190476Y-151380952D01*
X78095238Y-151333333D01*
X77904761Y-151333333D01*
X77809523Y-151380952D01*
X77761904Y-151428571D01*
X77714285Y-151523809D01*
%TO.C,R5*%
X87833333Y-121952380D02*
X87500000Y-121476190D01*
X87261904Y-121952380D02*
X87261904Y-120952380D01*
X87642857Y-120952380D01*
X87738095Y-121000000D01*
X87785714Y-121047619D01*
X87833333Y-121142857D01*
X87833333Y-121285714D01*
X87785714Y-121380952D01*
X87738095Y-121428571D01*
X87642857Y-121476190D01*
X87261904Y-121476190D01*
X88738095Y-120952380D02*
X88261904Y-120952380D01*
X88214285Y-121428571D01*
X88261904Y-121380952D01*
X88357142Y-121333333D01*
X88595238Y-121333333D01*
X88690476Y-121380952D01*
X88738095Y-121428571D01*
X88785714Y-121523809D01*
X88785714Y-121761904D01*
X88738095Y-121857142D01*
X88690476Y-121904761D01*
X88595238Y-121952380D01*
X88357142Y-121952380D01*
X88261904Y-121904761D01*
X88214285Y-121857142D01*
%TO.C,R4*%
X77333333Y-149952380D02*
X77000000Y-149476190D01*
X76761904Y-149952380D02*
X76761904Y-148952380D01*
X77142857Y-148952380D01*
X77238095Y-149000000D01*
X77285714Y-149047619D01*
X77333333Y-149142857D01*
X77333333Y-149285714D01*
X77285714Y-149380952D01*
X77238095Y-149428571D01*
X77142857Y-149476190D01*
X76761904Y-149476190D01*
X78190476Y-149285714D02*
X78190476Y-149952380D01*
X77952380Y-148904761D02*
X77714285Y-149619047D01*
X78333333Y-149619047D01*
%TO.C,R3*%
X67952380Y-150166666D02*
X67476190Y-150500000D01*
X67952380Y-150738095D02*
X66952380Y-150738095D01*
X66952380Y-150357142D01*
X67000000Y-150261904D01*
X67047619Y-150214285D01*
X67142857Y-150166666D01*
X67285714Y-150166666D01*
X67380952Y-150214285D01*
X67428571Y-150261904D01*
X67476190Y-150357142D01*
X67476190Y-150738095D01*
X66952380Y-149833333D02*
X66952380Y-149214285D01*
X67333333Y-149547619D01*
X67333333Y-149404761D01*
X67380952Y-149309523D01*
X67428571Y-149261904D01*
X67523809Y-149214285D01*
X67761904Y-149214285D01*
X67857142Y-149261904D01*
X67904761Y-149309523D01*
X67952380Y-149404761D01*
X67952380Y-149690476D01*
X67904761Y-149785714D01*
X67857142Y-149833333D01*
%TO.C,Q1*%
X73404761Y-147547619D02*
X73309523Y-147500000D01*
X73214285Y-147404761D01*
X73071428Y-147261904D01*
X72976190Y-147214285D01*
X72880952Y-147214285D01*
X72928571Y-147452380D02*
X72833333Y-147404761D01*
X72738095Y-147309523D01*
X72690476Y-147119047D01*
X72690476Y-146785714D01*
X72738095Y-146595238D01*
X72833333Y-146500000D01*
X72928571Y-146452380D01*
X73119047Y-146452380D01*
X73214285Y-146500000D01*
X73309523Y-146595238D01*
X73357142Y-146785714D01*
X73357142Y-147119047D01*
X73309523Y-147309523D01*
X73214285Y-147404761D01*
X73119047Y-147452380D01*
X72928571Y-147452380D01*
X74309523Y-147452380D02*
X73738095Y-147452380D01*
X74023809Y-147452380D02*
X74023809Y-146452380D01*
X73928571Y-146595238D01*
X73833333Y-146690476D01*
X73738095Y-146738095D01*
%TO.C,C7*%
X57657142Y-135566666D02*
X57704761Y-135614285D01*
X57752380Y-135757142D01*
X57752380Y-135852380D01*
X57704761Y-135995238D01*
X57609523Y-136090476D01*
X57514285Y-136138095D01*
X57323809Y-136185714D01*
X57180952Y-136185714D01*
X56990476Y-136138095D01*
X56895238Y-136090476D01*
X56800000Y-135995238D01*
X56752380Y-135852380D01*
X56752380Y-135757142D01*
X56800000Y-135614285D01*
X56847619Y-135566666D01*
X56752380Y-135233333D02*
X56752380Y-134566666D01*
X57752380Y-134995238D01*
%TO.C,C6*%
X57457142Y-132166666D02*
X57504761Y-132214285D01*
X57552380Y-132357142D01*
X57552380Y-132452380D01*
X57504761Y-132595238D01*
X57409523Y-132690476D01*
X57314285Y-132738095D01*
X57123809Y-132785714D01*
X56980952Y-132785714D01*
X56790476Y-132738095D01*
X56695238Y-132690476D01*
X56600000Y-132595238D01*
X56552380Y-132452380D01*
X56552380Y-132357142D01*
X56600000Y-132214285D01*
X56647619Y-132166666D01*
X56552380Y-131309523D02*
X56552380Y-131500000D01*
X56600000Y-131595238D01*
X56647619Y-131642857D01*
X56790476Y-131738095D01*
X56980952Y-131785714D01*
X57361904Y-131785714D01*
X57457142Y-131738095D01*
X57504761Y-131690476D01*
X57552380Y-131595238D01*
X57552380Y-131404761D01*
X57504761Y-131309523D01*
X57457142Y-131261904D01*
X57361904Y-131214285D01*
X57123809Y-131214285D01*
X57028571Y-131261904D01*
X56980952Y-131309523D01*
X56933333Y-131404761D01*
X56933333Y-131595238D01*
X56980952Y-131690476D01*
X57028571Y-131738095D01*
X57123809Y-131785714D01*
%TO.C,C5*%
X57257142Y-124166666D02*
X57304761Y-124214285D01*
X57352380Y-124357142D01*
X57352380Y-124452380D01*
X57304761Y-124595238D01*
X57209523Y-124690476D01*
X57114285Y-124738095D01*
X56923809Y-124785714D01*
X56780952Y-124785714D01*
X56590476Y-124738095D01*
X56495238Y-124690476D01*
X56400000Y-124595238D01*
X56352380Y-124452380D01*
X56352380Y-124357142D01*
X56400000Y-124214285D01*
X56447619Y-124166666D01*
X56352380Y-123261904D02*
X56352380Y-123738095D01*
X56828571Y-123785714D01*
X56780952Y-123738095D01*
X56733333Y-123642857D01*
X56733333Y-123404761D01*
X56780952Y-123309523D01*
X56828571Y-123261904D01*
X56923809Y-123214285D01*
X57161904Y-123214285D01*
X57257142Y-123261904D01*
X57304761Y-123309523D01*
X57352380Y-123404761D01*
X57352380Y-123642857D01*
X57304761Y-123738095D01*
X57257142Y-123785714D01*
%TO.C,C4*%
X57357142Y-126066666D02*
X57404761Y-126114285D01*
X57452380Y-126257142D01*
X57452380Y-126352380D01*
X57404761Y-126495238D01*
X57309523Y-126590476D01*
X57214285Y-126638095D01*
X57023809Y-126685714D01*
X56880952Y-126685714D01*
X56690476Y-126638095D01*
X56595238Y-126590476D01*
X56500000Y-126495238D01*
X56452380Y-126352380D01*
X56452380Y-126257142D01*
X56500000Y-126114285D01*
X56547619Y-126066666D01*
X56785714Y-125209523D02*
X57452380Y-125209523D01*
X56404761Y-125447619D02*
X57119047Y-125685714D01*
X57119047Y-125066666D01*
%TO.C,SW3*%
X108201666Y-124017261D02*
X108344523Y-124064880D01*
X108582619Y-124064880D01*
X108677857Y-124017261D01*
X108725476Y-123969642D01*
X108773095Y-123874404D01*
X108773095Y-123779166D01*
X108725476Y-123683928D01*
X108677857Y-123636309D01*
X108582619Y-123588690D01*
X108392142Y-123541071D01*
X108296904Y-123493452D01*
X108249285Y-123445833D01*
X108201666Y-123350595D01*
X108201666Y-123255357D01*
X108249285Y-123160119D01*
X108296904Y-123112500D01*
X108392142Y-123064880D01*
X108630238Y-123064880D01*
X108773095Y-123112500D01*
X109106428Y-123064880D02*
X109344523Y-124064880D01*
X109535000Y-123350595D01*
X109725476Y-124064880D01*
X109963571Y-123064880D01*
X110249285Y-123064880D02*
X110868333Y-123064880D01*
X110535000Y-123445833D01*
X110677857Y-123445833D01*
X110773095Y-123493452D01*
X110820714Y-123541071D01*
X110868333Y-123636309D01*
X110868333Y-123874404D01*
X110820714Y-123969642D01*
X110773095Y-124017261D01*
X110677857Y-124064880D01*
X110392142Y-124064880D01*
X110296904Y-124017261D01*
X110249285Y-123969642D01*
%TO.C,SW5*%
X128371666Y-124017261D02*
X128514523Y-124064880D01*
X128752619Y-124064880D01*
X128847857Y-124017261D01*
X128895476Y-123969642D01*
X128943095Y-123874404D01*
X128943095Y-123779166D01*
X128895476Y-123683928D01*
X128847857Y-123636309D01*
X128752619Y-123588690D01*
X128562142Y-123541071D01*
X128466904Y-123493452D01*
X128419285Y-123445833D01*
X128371666Y-123350595D01*
X128371666Y-123255357D01*
X128419285Y-123160119D01*
X128466904Y-123112500D01*
X128562142Y-123064880D01*
X128800238Y-123064880D01*
X128943095Y-123112500D01*
X129276428Y-123064880D02*
X129514523Y-124064880D01*
X129705000Y-123350595D01*
X129895476Y-124064880D01*
X130133571Y-123064880D01*
X130990714Y-123064880D02*
X130514523Y-123064880D01*
X130466904Y-123541071D01*
X130514523Y-123493452D01*
X130609761Y-123445833D01*
X130847857Y-123445833D01*
X130943095Y-123493452D01*
X130990714Y-123541071D01*
X131038333Y-123636309D01*
X131038333Y-123874404D01*
X130990714Y-123969642D01*
X130943095Y-124017261D01*
X130847857Y-124064880D01*
X130609761Y-124064880D01*
X130514523Y-124017261D01*
X130466904Y-123969642D01*
%TO.C,SW6*%
X128371666Y-144187261D02*
X128514523Y-144234880D01*
X128752619Y-144234880D01*
X128847857Y-144187261D01*
X128895476Y-144139642D01*
X128943095Y-144044404D01*
X128943095Y-143949166D01*
X128895476Y-143853928D01*
X128847857Y-143806309D01*
X128752619Y-143758690D01*
X128562142Y-143711071D01*
X128466904Y-143663452D01*
X128419285Y-143615833D01*
X128371666Y-143520595D01*
X128371666Y-143425357D01*
X128419285Y-143330119D01*
X128466904Y-143282500D01*
X128562142Y-143234880D01*
X128800238Y-143234880D01*
X128943095Y-143282500D01*
X129276428Y-143234880D02*
X129514523Y-144234880D01*
X129705000Y-143520595D01*
X129895476Y-144234880D01*
X130133571Y-143234880D01*
X130943095Y-143234880D02*
X130752619Y-143234880D01*
X130657380Y-143282500D01*
X130609761Y-143330119D01*
X130514523Y-143472976D01*
X130466904Y-143663452D01*
X130466904Y-144044404D01*
X130514523Y-144139642D01*
X130562142Y-144187261D01*
X130657380Y-144234880D01*
X130847857Y-144234880D01*
X130943095Y-144187261D01*
X130990714Y-144139642D01*
X131038333Y-144044404D01*
X131038333Y-143806309D01*
X130990714Y-143711071D01*
X130943095Y-143663452D01*
X130847857Y-143615833D01*
X130657380Y-143615833D01*
X130562142Y-143663452D01*
X130514523Y-143711071D01*
X130466904Y-143806309D01*
%TO.C,SW2*%
X88031666Y-144187261D02*
X88174523Y-144234880D01*
X88412619Y-144234880D01*
X88507857Y-144187261D01*
X88555476Y-144139642D01*
X88603095Y-144044404D01*
X88603095Y-143949166D01*
X88555476Y-143853928D01*
X88507857Y-143806309D01*
X88412619Y-143758690D01*
X88222142Y-143711071D01*
X88126904Y-143663452D01*
X88079285Y-143615833D01*
X88031666Y-143520595D01*
X88031666Y-143425357D01*
X88079285Y-143330119D01*
X88126904Y-143282500D01*
X88222142Y-143234880D01*
X88460238Y-143234880D01*
X88603095Y-143282500D01*
X88936428Y-143234880D02*
X89174523Y-144234880D01*
X89365000Y-143520595D01*
X89555476Y-144234880D01*
X89793571Y-143234880D01*
X90126904Y-143330119D02*
X90174523Y-143282500D01*
X90269761Y-143234880D01*
X90507857Y-143234880D01*
X90603095Y-143282500D01*
X90650714Y-143330119D01*
X90698333Y-143425357D01*
X90698333Y-143520595D01*
X90650714Y-143663452D01*
X90079285Y-144234880D01*
X90698333Y-144234880D01*
%TO.C,SW1*%
X88031666Y-124017261D02*
X88174523Y-124064880D01*
X88412619Y-124064880D01*
X88507857Y-124017261D01*
X88555476Y-123969642D01*
X88603095Y-123874404D01*
X88603095Y-123779166D01*
X88555476Y-123683928D01*
X88507857Y-123636309D01*
X88412619Y-123588690D01*
X88222142Y-123541071D01*
X88126904Y-123493452D01*
X88079285Y-123445833D01*
X88031666Y-123350595D01*
X88031666Y-123255357D01*
X88079285Y-123160119D01*
X88126904Y-123112500D01*
X88222142Y-123064880D01*
X88460238Y-123064880D01*
X88603095Y-123112500D01*
X88936428Y-123064880D02*
X89174523Y-124064880D01*
X89365000Y-123350595D01*
X89555476Y-124064880D01*
X89793571Y-123064880D01*
X90698333Y-124064880D02*
X90126904Y-124064880D01*
X90412619Y-124064880D02*
X90412619Y-123064880D01*
X90317380Y-123207738D01*
X90222142Y-123302976D01*
X90126904Y-123350595D01*
%TO.C,U1*%
X58772380Y-140461904D02*
X59581904Y-140461904D01*
X59677142Y-140414285D01*
X59724761Y-140366666D01*
X59772380Y-140271428D01*
X59772380Y-140080952D01*
X59724761Y-139985714D01*
X59677142Y-139938095D01*
X59581904Y-139890476D01*
X58772380Y-139890476D01*
X59772380Y-138890476D02*
X59772380Y-139461904D01*
X59772380Y-139176190D02*
X58772380Y-139176190D01*
X58915238Y-139271428D01*
X59010476Y-139366666D01*
X59058095Y-139461904D01*
%TO.C,R1*%
X65852380Y-129166666D02*
X65376190Y-129500000D01*
X65852380Y-129738095D02*
X64852380Y-129738095D01*
X64852380Y-129357142D01*
X64900000Y-129261904D01*
X64947619Y-129214285D01*
X65042857Y-129166666D01*
X65185714Y-129166666D01*
X65280952Y-129214285D01*
X65328571Y-129261904D01*
X65376190Y-129357142D01*
X65376190Y-129738095D01*
X65852380Y-128214285D02*
X65852380Y-128785714D01*
X65852380Y-128500000D02*
X64852380Y-128500000D01*
X64995238Y-128595238D01*
X65090476Y-128690476D01*
X65138095Y-128785714D01*
%TO.C,R2*%
X64152380Y-129066666D02*
X63676190Y-129400000D01*
X64152380Y-129638095D02*
X63152380Y-129638095D01*
X63152380Y-129257142D01*
X63200000Y-129161904D01*
X63247619Y-129114285D01*
X63342857Y-129066666D01*
X63485714Y-129066666D01*
X63580952Y-129114285D01*
X63628571Y-129161904D01*
X63676190Y-129257142D01*
X63676190Y-129638095D01*
X63247619Y-128685714D02*
X63200000Y-128638095D01*
X63152380Y-128542857D01*
X63152380Y-128304761D01*
X63200000Y-128209523D01*
X63247619Y-128161904D01*
X63342857Y-128114285D01*
X63438095Y-128114285D01*
X63580952Y-128161904D01*
X64152380Y-128733333D01*
X64152380Y-128114285D01*
%TO.C,C3*%
X65857142Y-150166666D02*
X65904761Y-150214285D01*
X65952380Y-150357142D01*
X65952380Y-150452380D01*
X65904761Y-150595238D01*
X65809523Y-150690476D01*
X65714285Y-150738095D01*
X65523809Y-150785714D01*
X65380952Y-150785714D01*
X65190476Y-150738095D01*
X65095238Y-150690476D01*
X65000000Y-150595238D01*
X64952380Y-150452380D01*
X64952380Y-150357142D01*
X65000000Y-150214285D01*
X65047619Y-150166666D01*
X64952380Y-149833333D02*
X64952380Y-149214285D01*
X65333333Y-149547619D01*
X65333333Y-149404761D01*
X65380952Y-149309523D01*
X65428571Y-149261904D01*
X65523809Y-149214285D01*
X65761904Y-149214285D01*
X65857142Y-149261904D01*
X65904761Y-149309523D01*
X65952380Y-149404761D01*
X65952380Y-149690476D01*
X65904761Y-149785714D01*
X65857142Y-149833333D01*
%TO.C,C2*%
X59333333Y-147037142D02*
X59285714Y-147084761D01*
X59142857Y-147132380D01*
X59047619Y-147132380D01*
X58904761Y-147084761D01*
X58809523Y-146989523D01*
X58761904Y-146894285D01*
X58714285Y-146703809D01*
X58714285Y-146560952D01*
X58761904Y-146370476D01*
X58809523Y-146275238D01*
X58904761Y-146180000D01*
X59047619Y-146132380D01*
X59142857Y-146132380D01*
X59285714Y-146180000D01*
X59333333Y-146227619D01*
X59714285Y-146227619D02*
X59761904Y-146180000D01*
X59857142Y-146132380D01*
X60095238Y-146132380D01*
X60190476Y-146180000D01*
X60238095Y-146227619D01*
X60285714Y-146322857D01*
X60285714Y-146418095D01*
X60238095Y-146560952D01*
X59666666Y-147132380D01*
X60285714Y-147132380D01*
%TO.C,C1*%
X70833333Y-133177142D02*
X70785714Y-133224761D01*
X70642857Y-133272380D01*
X70547619Y-133272380D01*
X70404761Y-133224761D01*
X70309523Y-133129523D01*
X70261904Y-133034285D01*
X70214285Y-132843809D01*
X70214285Y-132700952D01*
X70261904Y-132510476D01*
X70309523Y-132415238D01*
X70404761Y-132320000D01*
X70547619Y-132272380D01*
X70642857Y-132272380D01*
X70785714Y-132320000D01*
X70833333Y-132367619D01*
X71785714Y-133272380D02*
X71214285Y-133272380D01*
X71500000Y-133272380D02*
X71500000Y-132272380D01*
X71404761Y-132415238D01*
X71309523Y-132510476D01*
X71214285Y-132558095D01*
%TO.C,U2*%
X68738095Y-129202380D02*
X68738095Y-130011904D01*
X68785714Y-130107142D01*
X68833333Y-130154761D01*
X68928571Y-130202380D01*
X69119047Y-130202380D01*
X69214285Y-130154761D01*
X69261904Y-130107142D01*
X69309523Y-130011904D01*
X69309523Y-129202380D01*
X69738095Y-129297619D02*
X69785714Y-129250000D01*
X69880952Y-129202380D01*
X70119047Y-129202380D01*
X70214285Y-129250000D01*
X70261904Y-129297619D01*
X70309523Y-129392857D01*
X70309523Y-129488095D01*
X70261904Y-129630952D01*
X69690476Y-130202380D01*
X70309523Y-130202380D01*
%TO.C,FB1*%
X79428571Y-122233333D02*
X79428571Y-122566666D01*
X79952380Y-122566666D02*
X78952380Y-122566666D01*
X78952380Y-122090476D01*
X79428571Y-121376190D02*
X79476190Y-121233333D01*
X79523809Y-121185714D01*
X79619047Y-121138095D01*
X79761904Y-121138095D01*
X79857142Y-121185714D01*
X79904761Y-121233333D01*
X79952380Y-121328571D01*
X79952380Y-121709523D01*
X78952380Y-121709523D01*
X78952380Y-121376190D01*
X79000000Y-121280952D01*
X79047619Y-121233333D01*
X79142857Y-121185714D01*
X79238095Y-121185714D01*
X79333333Y-121233333D01*
X79380952Y-121280952D01*
X79428571Y-121376190D01*
X79428571Y-121709523D01*
X79952380Y-120185714D02*
X79952380Y-120757142D01*
X79952380Y-120471428D02*
X78952380Y-120471428D01*
X79095238Y-120566666D01*
X79190476Y-120661904D01*
X79238095Y-120757142D01*
%TO.C,F1*%
X65778571Y-124933333D02*
X65778571Y-125266666D01*
X66302380Y-125266666D02*
X65302380Y-125266666D01*
X65302380Y-124790476D01*
X66302380Y-123885714D02*
X66302380Y-124457142D01*
X66302380Y-124171428D02*
X65302380Y-124171428D01*
X65445238Y-124266666D01*
X65540476Y-124361904D01*
X65588095Y-124457142D01*
%TO.C,P1*%
X69261904Y-118252380D02*
X69261904Y-117252380D01*
X69642857Y-117252380D01*
X69738095Y-117300000D01*
X69785714Y-117347619D01*
X69833333Y-117442857D01*
X69833333Y-117585714D01*
X69785714Y-117680952D01*
X69738095Y-117728571D01*
X69642857Y-117776190D01*
X69261904Y-117776190D01*
X70785714Y-118252380D02*
X70214285Y-118252380D01*
X70500000Y-118252380D02*
X70500000Y-117252380D01*
X70404761Y-117395238D01*
X70309523Y-117490476D01*
X70214285Y-117538095D01*
%TD*%
M02*
