%TF.GenerationSoftware,KiCad,Pcbnew,5.1.10*%
%TF.CreationDate,2021-10-11T19:57:22-04:00*%
%TF.ProjectId,6_key_macro,365f6b65-795f-46d6-9163-726f2e6b6963,rev?*%
%TF.SameCoordinates,Original*%
%TF.FileFunction,Soldermask,Bot*%
%TF.FilePolarity,Negative*%
%FSLAX46Y46*%
G04 Gerber Fmt 4.6, Leading zero omitted, Abs format (unit mm)*
G04 Created by KiCad (PCBNEW 5.1.10) date 2021-10-11 19:57:22*
%MOMM*%
%LPD*%
G01*
G04 APERTURE LIST*
%ADD10C,1.690600*%
%ADD11C,2.200000*%
%ADD12C,1.750000*%
%ADD13C,4.000000*%
%ADD14C,3.200000*%
%ADD15O,1.000000X2.100000*%
%ADD16C,0.650000*%
%ADD17O,1.000000X1.600000*%
G04 APERTURE END LIST*
D10*
%TO.C,SW4*%
X110805000Y-157525000D03*
X108265000Y-157525000D03*
D11*
X112075000Y-147365000D03*
X105725000Y-149905000D03*
D12*
X114615000Y-152445000D03*
X104455000Y-152445000D03*
D13*
X109535000Y-152445000D03*
%TD*%
D10*
%TO.C,SW3*%
X110805000Y-137355000D03*
X108265000Y-137355000D03*
D11*
X112075000Y-127195000D03*
X105725000Y-129735000D03*
D12*
X114615000Y-132275000D03*
X104455000Y-132275000D03*
D13*
X109535000Y-132275000D03*
%TD*%
D10*
%TO.C,SW5*%
X130975000Y-137355000D03*
X128435000Y-137355000D03*
D11*
X132245000Y-127195000D03*
X125895000Y-129735000D03*
D12*
X134785000Y-132275000D03*
X124625000Y-132275000D03*
D13*
X129705000Y-132275000D03*
%TD*%
D10*
%TO.C,SW6*%
X130975000Y-157525000D03*
X128435000Y-157525000D03*
D11*
X132245000Y-147365000D03*
X125895000Y-149905000D03*
D12*
X134785000Y-152445000D03*
X124625000Y-152445000D03*
D13*
X129705000Y-152445000D03*
%TD*%
D10*
%TO.C,SW2*%
X90635000Y-157525000D03*
X88095000Y-157525000D03*
D11*
X91905000Y-147365000D03*
X85555000Y-149905000D03*
D12*
X94445000Y-152445000D03*
X84285000Y-152445000D03*
D13*
X89365000Y-152445000D03*
%TD*%
D10*
%TO.C,SW1*%
X90635000Y-137355000D03*
X88095000Y-137355000D03*
D11*
X91905000Y-127195000D03*
X85555000Y-129735000D03*
D12*
X94445000Y-132275000D03*
X84285000Y-132275000D03*
D13*
X89365000Y-132275000D03*
%TD*%
D14*
%TO.C,H4*%
X59500000Y-118500000D03*
%TD*%
%TO.C,H3*%
X137500000Y-166500000D03*
%TD*%
%TO.C,H2*%
X59500000Y-166500000D03*
%TD*%
%TO.C,H1*%
X137500000Y-118500000D03*
%TD*%
D15*
%TO.C,P1*%
X65880000Y-120530000D03*
X74520000Y-120530000D03*
D16*
X73090000Y-120000000D03*
D17*
X74520000Y-116350000D03*
D16*
X67310000Y-120000000D03*
D17*
X65880000Y-116350000D03*
%TD*%
M02*
