M48
; DRILL file {KiCad 5.1.10} date Mon Oct 11 19:57:19 2021
; FORMAT={-:-/ absolute / inch / decimal}
; #@! TF.CreationDate,2021-10-11T19:57:19-04:00
; #@! TF.GenerationSoftware,Kicad,Pcbnew,5.1.10
; #@! TF.FileFunction,Plated,1,2,PTH
FMAT,2
INCH
T1C0.0157
T2C0.0197
T3C0.0236
T4C0.0390
T5C0.0591
%
G90
G05
T1
X2.2539Y-5.7776
X2.2638Y-5.2756
X2.2638Y-4.8228
X2.372Y-5.3346
X2.4606Y-5.0394
X2.4705Y-5.7283
X2.4803Y-4.8031
X2.7165Y-4.9409
X2.7362Y-5.2362
X2.7362Y-5.8661
X2.8346Y-5.0394
X2.8937Y-5.2953
X3.0512Y-4.8819
X3.1693Y-5.7283
X3.2283Y-4.7244
T2
X2.8937Y-4.8819
T4
X3.4683Y-5.4077
X3.4683Y-6.2018
X3.5683Y-5.4077
X3.5683Y-6.2018
X4.2624Y-5.4077
X4.2624Y-6.2018
X4.3624Y-5.4077
X4.3624Y-6.2018
X5.0565Y-5.4077
X5.0565Y-6.2018
X5.1565Y-5.4077
X5.1565Y-6.2018
T5
X3.3683Y-5.1077
X3.3683Y-5.9018
X3.6183Y-5.0077
X3.6183Y-5.8018
X4.1624Y-5.1077
X4.1624Y-5.9018
X4.4124Y-5.0077
X4.4124Y-5.8018
X4.9565Y-5.1077
X4.9565Y-5.9018
X5.2065Y-5.0077
X5.2065Y-5.8018
T3
G00X2.5937Y-4.5925
M15
G01X2.5937Y-4.5689
M16
G05
G00X2.5937Y-4.7669
M15
G01X2.5937Y-4.7236
M16
G05
G00X2.9339Y-4.5925
M15
G01X2.9339Y-4.5689
M16
G05
G00X2.9339Y-4.7669
M15
G01X2.9339Y-4.7236
M16
G05
T0
M30
