%TF.GenerationSoftware,KiCad,Pcbnew,5.1.10*%
%TF.CreationDate,2021-10-11T19:57:22-04:00*%
%TF.ProjectId,6_key_macro,365f6b65-795f-46d6-9163-726f2e6b6963,rev?*%
%TF.SameCoordinates,Original*%
%TF.FileFunction,Paste,Top*%
%TF.FilePolarity,Positive*%
%FSLAX46Y46*%
G04 Gerber Fmt 4.6, Leading zero omitted, Abs format (unit mm)*
G04 Created by KiCad (PCBNEW 5.1.10) date 2021-10-11 19:57:22*
%MOMM*%
%LPD*%
G01*
G04 APERTURE LIST*
%ADD10R,1.060000X0.650000*%
%ADD11R,0.510000X0.400000*%
%ADD12R,0.500000X0.375000*%
%ADD13R,0.650000X0.300000*%
%ADD14R,0.600000X1.450000*%
%ADD15R,0.300000X1.450000*%
G04 APERTURE END LIST*
D10*
%TO.C,U3*%
X58400000Y-129950000D03*
X58400000Y-128050000D03*
X60600000Y-128050000D03*
X60600000Y-129000000D03*
X60600000Y-129950000D03*
%TD*%
%TO.C,R9*%
G36*
G01*
X74100000Y-153049999D02*
X74100000Y-153950001D01*
G75*
G02*
X73850001Y-154200000I-249999J0D01*
G01*
X73149999Y-154200000D01*
G75*
G02*
X72900000Y-153950001I0J249999D01*
G01*
X72900000Y-153049999D01*
G75*
G02*
X73149999Y-152800000I249999J0D01*
G01*
X73850001Y-152800000D01*
G75*
G02*
X74100000Y-153049999I0J-249999D01*
G01*
G37*
G36*
G01*
X76100000Y-153049999D02*
X76100000Y-153950001D01*
G75*
G02*
X75850001Y-154200000I-249999J0D01*
G01*
X75149999Y-154200000D01*
G75*
G02*
X74900000Y-153950001I0J249999D01*
G01*
X74900000Y-153049999D01*
G75*
G02*
X75149999Y-152800000I249999J0D01*
G01*
X75850001Y-152800000D01*
G75*
G02*
X76100000Y-153049999I0J-249999D01*
G01*
G37*
%TD*%
%TO.C,R8*%
G36*
G01*
X84600000Y-117049999D02*
X84600000Y-117950001D01*
G75*
G02*
X84350001Y-118200000I-249999J0D01*
G01*
X83649999Y-118200000D01*
G75*
G02*
X83400000Y-117950001I0J249999D01*
G01*
X83400000Y-117049999D01*
G75*
G02*
X83649999Y-116800000I249999J0D01*
G01*
X84350001Y-116800000D01*
G75*
G02*
X84600000Y-117049999I0J-249999D01*
G01*
G37*
G36*
G01*
X86600000Y-117049999D02*
X86600000Y-117950001D01*
G75*
G02*
X86350001Y-118200000I-249999J0D01*
G01*
X85649999Y-118200000D01*
G75*
G02*
X85400000Y-117950001I0J249999D01*
G01*
X85400000Y-117049999D01*
G75*
G02*
X85649999Y-116800000I249999J0D01*
G01*
X86350001Y-116800000D01*
G75*
G02*
X86600000Y-117049999I0J-249999D01*
G01*
G37*
%TD*%
%TO.C,R7*%
G36*
G01*
X84600000Y-119049999D02*
X84600000Y-119950001D01*
G75*
G02*
X84350001Y-120200000I-249999J0D01*
G01*
X83649999Y-120200000D01*
G75*
G02*
X83400000Y-119950001I0J249999D01*
G01*
X83400000Y-119049999D01*
G75*
G02*
X83649999Y-118800000I249999J0D01*
G01*
X84350001Y-118800000D01*
G75*
G02*
X84600000Y-119049999I0J-249999D01*
G01*
G37*
G36*
G01*
X86600000Y-119049999D02*
X86600000Y-119950001D01*
G75*
G02*
X86350001Y-120200000I-249999J0D01*
G01*
X85649999Y-120200000D01*
G75*
G02*
X85400000Y-119950001I0J249999D01*
G01*
X85400000Y-119049999D01*
G75*
G02*
X85649999Y-118800000I249999J0D01*
G01*
X86350001Y-118800000D01*
G75*
G02*
X86600000Y-119049999I0J-249999D01*
G01*
G37*
%TD*%
%TO.C,R6*%
G36*
G01*
X74100000Y-151049999D02*
X74100000Y-151950001D01*
G75*
G02*
X73850001Y-152200000I-249999J0D01*
G01*
X73149999Y-152200000D01*
G75*
G02*
X72900000Y-151950001I0J249999D01*
G01*
X72900000Y-151049999D01*
G75*
G02*
X73149999Y-150800000I249999J0D01*
G01*
X73850001Y-150800000D01*
G75*
G02*
X74100000Y-151049999I0J-249999D01*
G01*
G37*
G36*
G01*
X76100000Y-151049999D02*
X76100000Y-151950001D01*
G75*
G02*
X75850001Y-152200000I-249999J0D01*
G01*
X75149999Y-152200000D01*
G75*
G02*
X74900000Y-151950001I0J249999D01*
G01*
X74900000Y-151049999D01*
G75*
G02*
X75149999Y-150800000I249999J0D01*
G01*
X75850001Y-150800000D01*
G75*
G02*
X76100000Y-151049999I0J-249999D01*
G01*
G37*
%TD*%
%TO.C,R5*%
G36*
G01*
X84600000Y-121049999D02*
X84600000Y-121950001D01*
G75*
G02*
X84350001Y-122200000I-249999J0D01*
G01*
X83649999Y-122200000D01*
G75*
G02*
X83400000Y-121950001I0J249999D01*
G01*
X83400000Y-121049999D01*
G75*
G02*
X83649999Y-120800000I249999J0D01*
G01*
X84350001Y-120800000D01*
G75*
G02*
X84600000Y-121049999I0J-249999D01*
G01*
G37*
G36*
G01*
X86600000Y-121049999D02*
X86600000Y-121950001D01*
G75*
G02*
X86350001Y-122200000I-249999J0D01*
G01*
X85649999Y-122200000D01*
G75*
G02*
X85400000Y-121950001I0J249999D01*
G01*
X85400000Y-121049999D01*
G75*
G02*
X85649999Y-120800000I249999J0D01*
G01*
X86350001Y-120800000D01*
G75*
G02*
X86600000Y-121049999I0J-249999D01*
G01*
G37*
%TD*%
%TO.C,R4*%
G36*
G01*
X74100000Y-149049999D02*
X74100000Y-149950001D01*
G75*
G02*
X73850001Y-150200000I-249999J0D01*
G01*
X73149999Y-150200000D01*
G75*
G02*
X72900000Y-149950001I0J249999D01*
G01*
X72900000Y-149049999D01*
G75*
G02*
X73149999Y-148800000I249999J0D01*
G01*
X73850001Y-148800000D01*
G75*
G02*
X74100000Y-149049999I0J-249999D01*
G01*
G37*
G36*
G01*
X76100000Y-149049999D02*
X76100000Y-149950001D01*
G75*
G02*
X75850001Y-150200000I-249999J0D01*
G01*
X75149999Y-150200000D01*
G75*
G02*
X74900000Y-149950001I0J249999D01*
G01*
X74900000Y-149049999D01*
G75*
G02*
X75149999Y-148800000I249999J0D01*
G01*
X75850001Y-148800000D01*
G75*
G02*
X76100000Y-149049999I0J-249999D01*
G01*
G37*
%TD*%
%TO.C,R3*%
G36*
G01*
X67950001Y-146600000D02*
X67049999Y-146600000D01*
G75*
G02*
X66800000Y-146350001I0J249999D01*
G01*
X66800000Y-145649999D01*
G75*
G02*
X67049999Y-145400000I249999J0D01*
G01*
X67950001Y-145400000D01*
G75*
G02*
X68200000Y-145649999I0J-249999D01*
G01*
X68200000Y-146350001D01*
G75*
G02*
X67950001Y-146600000I-249999J0D01*
G01*
G37*
G36*
G01*
X67950001Y-148600000D02*
X67049999Y-148600000D01*
G75*
G02*
X66800000Y-148350001I0J249999D01*
G01*
X66800000Y-147649999D01*
G75*
G02*
X67049999Y-147400000I249999J0D01*
G01*
X67950001Y-147400000D01*
G75*
G02*
X68200000Y-147649999I0J-249999D01*
G01*
X68200000Y-148350001D01*
G75*
G02*
X67950001Y-148600000I-249999J0D01*
G01*
G37*
%TD*%
D11*
%TO.C,Q1*%
X70355000Y-147500000D03*
X71645000Y-147000000D03*
X70355000Y-146500000D03*
%TD*%
%TO.C,C7*%
G36*
G01*
X59950000Y-134475000D02*
X59950000Y-133525000D01*
G75*
G02*
X60200000Y-133275000I250000J0D01*
G01*
X60875000Y-133275000D01*
G75*
G02*
X61125000Y-133525000I0J-250000D01*
G01*
X61125000Y-134475000D01*
G75*
G02*
X60875000Y-134725000I-250000J0D01*
G01*
X60200000Y-134725000D01*
G75*
G02*
X59950000Y-134475000I0J250000D01*
G01*
G37*
G36*
G01*
X57875000Y-134475000D02*
X57875000Y-133525000D01*
G75*
G02*
X58125000Y-133275000I250000J0D01*
G01*
X58800000Y-133275000D01*
G75*
G02*
X59050000Y-133525000I0J-250000D01*
G01*
X59050000Y-134475000D01*
G75*
G02*
X58800000Y-134725000I-250000J0D01*
G01*
X58125000Y-134725000D01*
G75*
G02*
X57875000Y-134475000I0J250000D01*
G01*
G37*
%TD*%
%TO.C,C6*%
G36*
G01*
X59950000Y-132475000D02*
X59950000Y-131525000D01*
G75*
G02*
X60200000Y-131275000I250000J0D01*
G01*
X60875000Y-131275000D01*
G75*
G02*
X61125000Y-131525000I0J-250000D01*
G01*
X61125000Y-132475000D01*
G75*
G02*
X60875000Y-132725000I-250000J0D01*
G01*
X60200000Y-132725000D01*
G75*
G02*
X59950000Y-132475000I0J250000D01*
G01*
G37*
G36*
G01*
X57875000Y-132475000D02*
X57875000Y-131525000D01*
G75*
G02*
X58125000Y-131275000I250000J0D01*
G01*
X58800000Y-131275000D01*
G75*
G02*
X59050000Y-131525000I0J-250000D01*
G01*
X59050000Y-132475000D01*
G75*
G02*
X58800000Y-132725000I-250000J0D01*
G01*
X58125000Y-132725000D01*
G75*
G02*
X57875000Y-132475000I0J250000D01*
G01*
G37*
%TD*%
%TO.C,C5*%
G36*
G01*
X59050000Y-123525000D02*
X59050000Y-124475000D01*
G75*
G02*
X58800000Y-124725000I-250000J0D01*
G01*
X58125000Y-124725000D01*
G75*
G02*
X57875000Y-124475000I0J250000D01*
G01*
X57875000Y-123525000D01*
G75*
G02*
X58125000Y-123275000I250000J0D01*
G01*
X58800000Y-123275000D01*
G75*
G02*
X59050000Y-123525000I0J-250000D01*
G01*
G37*
G36*
G01*
X61125000Y-123525000D02*
X61125000Y-124475000D01*
G75*
G02*
X60875000Y-124725000I-250000J0D01*
G01*
X60200000Y-124725000D01*
G75*
G02*
X59950000Y-124475000I0J250000D01*
G01*
X59950000Y-123525000D01*
G75*
G02*
X60200000Y-123275000I250000J0D01*
G01*
X60875000Y-123275000D01*
G75*
G02*
X61125000Y-123525000I0J-250000D01*
G01*
G37*
%TD*%
%TO.C,C4*%
G36*
G01*
X59050000Y-125525000D02*
X59050000Y-126475000D01*
G75*
G02*
X58800000Y-126725000I-250000J0D01*
G01*
X58125000Y-126725000D01*
G75*
G02*
X57875000Y-126475000I0J250000D01*
G01*
X57875000Y-125525000D01*
G75*
G02*
X58125000Y-125275000I250000J0D01*
G01*
X58800000Y-125275000D01*
G75*
G02*
X59050000Y-125525000I0J-250000D01*
G01*
G37*
G36*
G01*
X61125000Y-125525000D02*
X61125000Y-126475000D01*
G75*
G02*
X60875000Y-126725000I-250000J0D01*
G01*
X60200000Y-126725000D01*
G75*
G02*
X59950000Y-126475000I0J250000D01*
G01*
X59950000Y-125525000D01*
G75*
G02*
X60200000Y-125275000I250000J0D01*
G01*
X60875000Y-125275000D01*
G75*
G02*
X61125000Y-125525000I0J-250000D01*
G01*
G37*
%TD*%
%TO.C,U1*%
G36*
G01*
X61650000Y-142750000D02*
X60400000Y-142750000D01*
G75*
G02*
X60275000Y-142625000I0J125000D01*
G01*
X60275000Y-142375000D01*
G75*
G02*
X60400000Y-142250000I125000J0D01*
G01*
X61650000Y-142250000D01*
G75*
G02*
X61775000Y-142375000I0J-125000D01*
G01*
X61775000Y-142625000D01*
G75*
G02*
X61650000Y-142750000I-125000J0D01*
G01*
G37*
G36*
G01*
X61650000Y-141950000D02*
X60400000Y-141950000D01*
G75*
G02*
X60275000Y-141825000I0J125000D01*
G01*
X60275000Y-141575000D01*
G75*
G02*
X60400000Y-141450000I125000J0D01*
G01*
X61650000Y-141450000D01*
G75*
G02*
X61775000Y-141575000I0J-125000D01*
G01*
X61775000Y-141825000D01*
G75*
G02*
X61650000Y-141950000I-125000J0D01*
G01*
G37*
G36*
G01*
X61650000Y-141150000D02*
X60400000Y-141150000D01*
G75*
G02*
X60275000Y-141025000I0J125000D01*
G01*
X60275000Y-140775000D01*
G75*
G02*
X60400000Y-140650000I125000J0D01*
G01*
X61650000Y-140650000D01*
G75*
G02*
X61775000Y-140775000I0J-125000D01*
G01*
X61775000Y-141025000D01*
G75*
G02*
X61650000Y-141150000I-125000J0D01*
G01*
G37*
G36*
G01*
X61650000Y-140350000D02*
X60400000Y-140350000D01*
G75*
G02*
X60275000Y-140225000I0J125000D01*
G01*
X60275000Y-139975000D01*
G75*
G02*
X60400000Y-139850000I125000J0D01*
G01*
X61650000Y-139850000D01*
G75*
G02*
X61775000Y-139975000I0J-125000D01*
G01*
X61775000Y-140225000D01*
G75*
G02*
X61650000Y-140350000I-125000J0D01*
G01*
G37*
G36*
G01*
X61650000Y-139550000D02*
X60400000Y-139550000D01*
G75*
G02*
X60275000Y-139425000I0J125000D01*
G01*
X60275000Y-139175000D01*
G75*
G02*
X60400000Y-139050000I125000J0D01*
G01*
X61650000Y-139050000D01*
G75*
G02*
X61775000Y-139175000I0J-125000D01*
G01*
X61775000Y-139425000D01*
G75*
G02*
X61650000Y-139550000I-125000J0D01*
G01*
G37*
G36*
G01*
X61650000Y-138750000D02*
X60400000Y-138750000D01*
G75*
G02*
X60275000Y-138625000I0J125000D01*
G01*
X60275000Y-138375000D01*
G75*
G02*
X60400000Y-138250000I125000J0D01*
G01*
X61650000Y-138250000D01*
G75*
G02*
X61775000Y-138375000I0J-125000D01*
G01*
X61775000Y-138625000D01*
G75*
G02*
X61650000Y-138750000I-125000J0D01*
G01*
G37*
G36*
G01*
X61650000Y-137950000D02*
X60400000Y-137950000D01*
G75*
G02*
X60275000Y-137825000I0J125000D01*
G01*
X60275000Y-137575000D01*
G75*
G02*
X60400000Y-137450000I125000J0D01*
G01*
X61650000Y-137450000D01*
G75*
G02*
X61775000Y-137575000I0J-125000D01*
G01*
X61775000Y-137825000D01*
G75*
G02*
X61650000Y-137950000I-125000J0D01*
G01*
G37*
G36*
G01*
X61650000Y-137150000D02*
X60400000Y-137150000D01*
G75*
G02*
X60275000Y-137025000I0J125000D01*
G01*
X60275000Y-136775000D01*
G75*
G02*
X60400000Y-136650000I125000J0D01*
G01*
X61650000Y-136650000D01*
G75*
G02*
X61775000Y-136775000I0J-125000D01*
G01*
X61775000Y-137025000D01*
G75*
G02*
X61650000Y-137150000I-125000J0D01*
G01*
G37*
G36*
G01*
X62525000Y-136275000D02*
X62275000Y-136275000D01*
G75*
G02*
X62150000Y-136150000I0J125000D01*
G01*
X62150000Y-134900000D01*
G75*
G02*
X62275000Y-134775000I125000J0D01*
G01*
X62525000Y-134775000D01*
G75*
G02*
X62650000Y-134900000I0J-125000D01*
G01*
X62650000Y-136150000D01*
G75*
G02*
X62525000Y-136275000I-125000J0D01*
G01*
G37*
G36*
G01*
X63325000Y-136275000D02*
X63075000Y-136275000D01*
G75*
G02*
X62950000Y-136150000I0J125000D01*
G01*
X62950000Y-134900000D01*
G75*
G02*
X63075000Y-134775000I125000J0D01*
G01*
X63325000Y-134775000D01*
G75*
G02*
X63450000Y-134900000I0J-125000D01*
G01*
X63450000Y-136150000D01*
G75*
G02*
X63325000Y-136275000I-125000J0D01*
G01*
G37*
G36*
G01*
X64125000Y-136275000D02*
X63875000Y-136275000D01*
G75*
G02*
X63750000Y-136150000I0J125000D01*
G01*
X63750000Y-134900000D01*
G75*
G02*
X63875000Y-134775000I125000J0D01*
G01*
X64125000Y-134775000D01*
G75*
G02*
X64250000Y-134900000I0J-125000D01*
G01*
X64250000Y-136150000D01*
G75*
G02*
X64125000Y-136275000I-125000J0D01*
G01*
G37*
G36*
G01*
X64925000Y-136275000D02*
X64675000Y-136275000D01*
G75*
G02*
X64550000Y-136150000I0J125000D01*
G01*
X64550000Y-134900000D01*
G75*
G02*
X64675000Y-134775000I125000J0D01*
G01*
X64925000Y-134775000D01*
G75*
G02*
X65050000Y-134900000I0J-125000D01*
G01*
X65050000Y-136150000D01*
G75*
G02*
X64925000Y-136275000I-125000J0D01*
G01*
G37*
G36*
G01*
X65725000Y-136275000D02*
X65475000Y-136275000D01*
G75*
G02*
X65350000Y-136150000I0J125000D01*
G01*
X65350000Y-134900000D01*
G75*
G02*
X65475000Y-134775000I125000J0D01*
G01*
X65725000Y-134775000D01*
G75*
G02*
X65850000Y-134900000I0J-125000D01*
G01*
X65850000Y-136150000D01*
G75*
G02*
X65725000Y-136275000I-125000J0D01*
G01*
G37*
G36*
G01*
X66525000Y-136275000D02*
X66275000Y-136275000D01*
G75*
G02*
X66150000Y-136150000I0J125000D01*
G01*
X66150000Y-134900000D01*
G75*
G02*
X66275000Y-134775000I125000J0D01*
G01*
X66525000Y-134775000D01*
G75*
G02*
X66650000Y-134900000I0J-125000D01*
G01*
X66650000Y-136150000D01*
G75*
G02*
X66525000Y-136275000I-125000J0D01*
G01*
G37*
G36*
G01*
X67325000Y-136275000D02*
X67075000Y-136275000D01*
G75*
G02*
X66950000Y-136150000I0J125000D01*
G01*
X66950000Y-134900000D01*
G75*
G02*
X67075000Y-134775000I125000J0D01*
G01*
X67325000Y-134775000D01*
G75*
G02*
X67450000Y-134900000I0J-125000D01*
G01*
X67450000Y-136150000D01*
G75*
G02*
X67325000Y-136275000I-125000J0D01*
G01*
G37*
G36*
G01*
X68125000Y-136275000D02*
X67875000Y-136275000D01*
G75*
G02*
X67750000Y-136150000I0J125000D01*
G01*
X67750000Y-134900000D01*
G75*
G02*
X67875000Y-134775000I125000J0D01*
G01*
X68125000Y-134775000D01*
G75*
G02*
X68250000Y-134900000I0J-125000D01*
G01*
X68250000Y-136150000D01*
G75*
G02*
X68125000Y-136275000I-125000J0D01*
G01*
G37*
G36*
G01*
X70000000Y-137150000D02*
X68750000Y-137150000D01*
G75*
G02*
X68625000Y-137025000I0J125000D01*
G01*
X68625000Y-136775000D01*
G75*
G02*
X68750000Y-136650000I125000J0D01*
G01*
X70000000Y-136650000D01*
G75*
G02*
X70125000Y-136775000I0J-125000D01*
G01*
X70125000Y-137025000D01*
G75*
G02*
X70000000Y-137150000I-125000J0D01*
G01*
G37*
G36*
G01*
X70000000Y-137950000D02*
X68750000Y-137950000D01*
G75*
G02*
X68625000Y-137825000I0J125000D01*
G01*
X68625000Y-137575000D01*
G75*
G02*
X68750000Y-137450000I125000J0D01*
G01*
X70000000Y-137450000D01*
G75*
G02*
X70125000Y-137575000I0J-125000D01*
G01*
X70125000Y-137825000D01*
G75*
G02*
X70000000Y-137950000I-125000J0D01*
G01*
G37*
G36*
G01*
X70000000Y-138750000D02*
X68750000Y-138750000D01*
G75*
G02*
X68625000Y-138625000I0J125000D01*
G01*
X68625000Y-138375000D01*
G75*
G02*
X68750000Y-138250000I125000J0D01*
G01*
X70000000Y-138250000D01*
G75*
G02*
X70125000Y-138375000I0J-125000D01*
G01*
X70125000Y-138625000D01*
G75*
G02*
X70000000Y-138750000I-125000J0D01*
G01*
G37*
G36*
G01*
X70000000Y-139550000D02*
X68750000Y-139550000D01*
G75*
G02*
X68625000Y-139425000I0J125000D01*
G01*
X68625000Y-139175000D01*
G75*
G02*
X68750000Y-139050000I125000J0D01*
G01*
X70000000Y-139050000D01*
G75*
G02*
X70125000Y-139175000I0J-125000D01*
G01*
X70125000Y-139425000D01*
G75*
G02*
X70000000Y-139550000I-125000J0D01*
G01*
G37*
G36*
G01*
X70000000Y-140350000D02*
X68750000Y-140350000D01*
G75*
G02*
X68625000Y-140225000I0J125000D01*
G01*
X68625000Y-139975000D01*
G75*
G02*
X68750000Y-139850000I125000J0D01*
G01*
X70000000Y-139850000D01*
G75*
G02*
X70125000Y-139975000I0J-125000D01*
G01*
X70125000Y-140225000D01*
G75*
G02*
X70000000Y-140350000I-125000J0D01*
G01*
G37*
G36*
G01*
X70000000Y-141150000D02*
X68750000Y-141150000D01*
G75*
G02*
X68625000Y-141025000I0J125000D01*
G01*
X68625000Y-140775000D01*
G75*
G02*
X68750000Y-140650000I125000J0D01*
G01*
X70000000Y-140650000D01*
G75*
G02*
X70125000Y-140775000I0J-125000D01*
G01*
X70125000Y-141025000D01*
G75*
G02*
X70000000Y-141150000I-125000J0D01*
G01*
G37*
G36*
G01*
X70000000Y-141950000D02*
X68750000Y-141950000D01*
G75*
G02*
X68625000Y-141825000I0J125000D01*
G01*
X68625000Y-141575000D01*
G75*
G02*
X68750000Y-141450000I125000J0D01*
G01*
X70000000Y-141450000D01*
G75*
G02*
X70125000Y-141575000I0J-125000D01*
G01*
X70125000Y-141825000D01*
G75*
G02*
X70000000Y-141950000I-125000J0D01*
G01*
G37*
G36*
G01*
X70000000Y-142750000D02*
X68750000Y-142750000D01*
G75*
G02*
X68625000Y-142625000I0J125000D01*
G01*
X68625000Y-142375000D01*
G75*
G02*
X68750000Y-142250000I125000J0D01*
G01*
X70000000Y-142250000D01*
G75*
G02*
X70125000Y-142375000I0J-125000D01*
G01*
X70125000Y-142625000D01*
G75*
G02*
X70000000Y-142750000I-125000J0D01*
G01*
G37*
G36*
G01*
X68125000Y-144625000D02*
X67875000Y-144625000D01*
G75*
G02*
X67750000Y-144500000I0J125000D01*
G01*
X67750000Y-143250000D01*
G75*
G02*
X67875000Y-143125000I125000J0D01*
G01*
X68125000Y-143125000D01*
G75*
G02*
X68250000Y-143250000I0J-125000D01*
G01*
X68250000Y-144500000D01*
G75*
G02*
X68125000Y-144625000I-125000J0D01*
G01*
G37*
G36*
G01*
X67325000Y-144625000D02*
X67075000Y-144625000D01*
G75*
G02*
X66950000Y-144500000I0J125000D01*
G01*
X66950000Y-143250000D01*
G75*
G02*
X67075000Y-143125000I125000J0D01*
G01*
X67325000Y-143125000D01*
G75*
G02*
X67450000Y-143250000I0J-125000D01*
G01*
X67450000Y-144500000D01*
G75*
G02*
X67325000Y-144625000I-125000J0D01*
G01*
G37*
G36*
G01*
X66525000Y-144625000D02*
X66275000Y-144625000D01*
G75*
G02*
X66150000Y-144500000I0J125000D01*
G01*
X66150000Y-143250000D01*
G75*
G02*
X66275000Y-143125000I125000J0D01*
G01*
X66525000Y-143125000D01*
G75*
G02*
X66650000Y-143250000I0J-125000D01*
G01*
X66650000Y-144500000D01*
G75*
G02*
X66525000Y-144625000I-125000J0D01*
G01*
G37*
G36*
G01*
X65725000Y-144625000D02*
X65475000Y-144625000D01*
G75*
G02*
X65350000Y-144500000I0J125000D01*
G01*
X65350000Y-143250000D01*
G75*
G02*
X65475000Y-143125000I125000J0D01*
G01*
X65725000Y-143125000D01*
G75*
G02*
X65850000Y-143250000I0J-125000D01*
G01*
X65850000Y-144500000D01*
G75*
G02*
X65725000Y-144625000I-125000J0D01*
G01*
G37*
G36*
G01*
X64925000Y-144625000D02*
X64675000Y-144625000D01*
G75*
G02*
X64550000Y-144500000I0J125000D01*
G01*
X64550000Y-143250000D01*
G75*
G02*
X64675000Y-143125000I125000J0D01*
G01*
X64925000Y-143125000D01*
G75*
G02*
X65050000Y-143250000I0J-125000D01*
G01*
X65050000Y-144500000D01*
G75*
G02*
X64925000Y-144625000I-125000J0D01*
G01*
G37*
G36*
G01*
X64125000Y-144625000D02*
X63875000Y-144625000D01*
G75*
G02*
X63750000Y-144500000I0J125000D01*
G01*
X63750000Y-143250000D01*
G75*
G02*
X63875000Y-143125000I125000J0D01*
G01*
X64125000Y-143125000D01*
G75*
G02*
X64250000Y-143250000I0J-125000D01*
G01*
X64250000Y-144500000D01*
G75*
G02*
X64125000Y-144625000I-125000J0D01*
G01*
G37*
G36*
G01*
X63325000Y-144625000D02*
X63075000Y-144625000D01*
G75*
G02*
X62950000Y-144500000I0J125000D01*
G01*
X62950000Y-143250000D01*
G75*
G02*
X63075000Y-143125000I125000J0D01*
G01*
X63325000Y-143125000D01*
G75*
G02*
X63450000Y-143250000I0J-125000D01*
G01*
X63450000Y-144500000D01*
G75*
G02*
X63325000Y-144625000I-125000J0D01*
G01*
G37*
G36*
G01*
X62525000Y-144625000D02*
X62275000Y-144625000D01*
G75*
G02*
X62150000Y-144500000I0J125000D01*
G01*
X62150000Y-143250000D01*
G75*
G02*
X62275000Y-143125000I125000J0D01*
G01*
X62525000Y-143125000D01*
G75*
G02*
X62650000Y-143250000I0J-125000D01*
G01*
X62650000Y-144500000D01*
G75*
G02*
X62525000Y-144625000I-125000J0D01*
G01*
G37*
%TD*%
%TO.C,R1*%
G36*
G01*
X64749999Y-132100000D02*
X65650001Y-132100000D01*
G75*
G02*
X65900000Y-132349999I0J-249999D01*
G01*
X65900000Y-133050001D01*
G75*
G02*
X65650001Y-133300000I-249999J0D01*
G01*
X64749999Y-133300000D01*
G75*
G02*
X64500000Y-133050001I0J249999D01*
G01*
X64500000Y-132349999D01*
G75*
G02*
X64749999Y-132100000I249999J0D01*
G01*
G37*
G36*
G01*
X64749999Y-130100000D02*
X65650001Y-130100000D01*
G75*
G02*
X65900000Y-130349999I0J-249999D01*
G01*
X65900000Y-131050001D01*
G75*
G02*
X65650001Y-131300000I-249999J0D01*
G01*
X64749999Y-131300000D01*
G75*
G02*
X64500000Y-131050001I0J249999D01*
G01*
X64500000Y-130349999D01*
G75*
G02*
X64749999Y-130100000I249999J0D01*
G01*
G37*
%TD*%
%TO.C,R2*%
G36*
G01*
X62749999Y-132100000D02*
X63650001Y-132100000D01*
G75*
G02*
X63900000Y-132349999I0J-249999D01*
G01*
X63900000Y-133050001D01*
G75*
G02*
X63650001Y-133300000I-249999J0D01*
G01*
X62749999Y-133300000D01*
G75*
G02*
X62500000Y-133050001I0J249999D01*
G01*
X62500000Y-132349999D01*
G75*
G02*
X62749999Y-132100000I249999J0D01*
G01*
G37*
G36*
G01*
X62749999Y-130100000D02*
X63650001Y-130100000D01*
G75*
G02*
X63900000Y-130349999I0J-249999D01*
G01*
X63900000Y-131050001D01*
G75*
G02*
X63650001Y-131300000I-249999J0D01*
G01*
X62749999Y-131300000D01*
G75*
G02*
X62500000Y-131050001I0J249999D01*
G01*
X62500000Y-130349999D01*
G75*
G02*
X62749999Y-130100000I249999J0D01*
G01*
G37*
%TD*%
%TO.C,C3*%
G36*
G01*
X65025000Y-147450000D02*
X65975000Y-147450000D01*
G75*
G02*
X66225000Y-147700000I0J-250000D01*
G01*
X66225000Y-148375000D01*
G75*
G02*
X65975000Y-148625000I-250000J0D01*
G01*
X65025000Y-148625000D01*
G75*
G02*
X64775000Y-148375000I0J250000D01*
G01*
X64775000Y-147700000D01*
G75*
G02*
X65025000Y-147450000I250000J0D01*
G01*
G37*
G36*
G01*
X65025000Y-145375000D02*
X65975000Y-145375000D01*
G75*
G02*
X66225000Y-145625000I0J-250000D01*
G01*
X66225000Y-146300000D01*
G75*
G02*
X65975000Y-146550000I-250000J0D01*
G01*
X65025000Y-146550000D01*
G75*
G02*
X64775000Y-146300000I0J250000D01*
G01*
X64775000Y-145625000D01*
G75*
G02*
X65025000Y-145375000I250000J0D01*
G01*
G37*
%TD*%
%TO.C,C2*%
G36*
G01*
X59050000Y-144525000D02*
X59050000Y-145475000D01*
G75*
G02*
X58800000Y-145725000I-250000J0D01*
G01*
X58125000Y-145725000D01*
G75*
G02*
X57875000Y-145475000I0J250000D01*
G01*
X57875000Y-144525000D01*
G75*
G02*
X58125000Y-144275000I250000J0D01*
G01*
X58800000Y-144275000D01*
G75*
G02*
X59050000Y-144525000I0J-250000D01*
G01*
G37*
G36*
G01*
X61125000Y-144525000D02*
X61125000Y-145475000D01*
G75*
G02*
X60875000Y-145725000I-250000J0D01*
G01*
X60200000Y-145725000D01*
G75*
G02*
X59950000Y-145475000I0J250000D01*
G01*
X59950000Y-144525000D01*
G75*
G02*
X60200000Y-144275000I250000J0D01*
G01*
X60875000Y-144275000D01*
G75*
G02*
X61125000Y-144525000I0J-250000D01*
G01*
G37*
%TD*%
%TO.C,C1*%
G36*
G01*
X71450000Y-134975000D02*
X71450000Y-134025000D01*
G75*
G02*
X71700000Y-133775000I250000J0D01*
G01*
X72375000Y-133775000D01*
G75*
G02*
X72625000Y-134025000I0J-250000D01*
G01*
X72625000Y-134975000D01*
G75*
G02*
X72375000Y-135225000I-250000J0D01*
G01*
X71700000Y-135225000D01*
G75*
G02*
X71450000Y-134975000I0J250000D01*
G01*
G37*
G36*
G01*
X69375000Y-134975000D02*
X69375000Y-134025000D01*
G75*
G02*
X69625000Y-133775000I250000J0D01*
G01*
X70300000Y-133775000D01*
G75*
G02*
X70550000Y-134025000I0J-250000D01*
G01*
X70550000Y-134975000D01*
G75*
G02*
X70300000Y-135225000I-250000J0D01*
G01*
X69625000Y-135225000D01*
G75*
G02*
X69375000Y-134975000I0J250000D01*
G01*
G37*
%TD*%
D12*
%TO.C,U2*%
X68650000Y-128537500D03*
X68650000Y-127462500D03*
D13*
X70425000Y-128000000D03*
X68575000Y-128000000D03*
D12*
X70350000Y-127462500D03*
X70350000Y-128537500D03*
%TD*%
%TO.C,FB1*%
G36*
G01*
X77850001Y-120875000D02*
X77149999Y-120875000D01*
G75*
G02*
X76900000Y-120625001I0J249999D01*
G01*
X76900000Y-120074999D01*
G75*
G02*
X77149999Y-119825000I249999J0D01*
G01*
X77850001Y-119825000D01*
G75*
G02*
X78100000Y-120074999I0J-249999D01*
G01*
X78100000Y-120625001D01*
G75*
G02*
X77850001Y-120875000I-249999J0D01*
G01*
G37*
G36*
G01*
X77850001Y-123175000D02*
X77149999Y-123175000D01*
G75*
G02*
X76900000Y-122925001I0J249999D01*
G01*
X76900000Y-122374999D01*
G75*
G02*
X77149999Y-122125000I249999J0D01*
G01*
X77850001Y-122125000D01*
G75*
G02*
X78100000Y-122374999I0J-249999D01*
G01*
X78100000Y-122925001D01*
G75*
G02*
X77850001Y-123175000I-249999J0D01*
G01*
G37*
%TD*%
%TO.C,F1*%
G36*
G01*
X67950001Y-124150000D02*
X67049999Y-124150000D01*
G75*
G02*
X66800000Y-123900001I0J249999D01*
G01*
X66800000Y-123249999D01*
G75*
G02*
X67049999Y-123000000I249999J0D01*
G01*
X67950001Y-123000000D01*
G75*
G02*
X68200000Y-123249999I0J-249999D01*
G01*
X68200000Y-123900001D01*
G75*
G02*
X67950001Y-124150000I-249999J0D01*
G01*
G37*
G36*
G01*
X67950001Y-126200000D02*
X67049999Y-126200000D01*
G75*
G02*
X66800000Y-125950001I0J249999D01*
G01*
X66800000Y-125299999D01*
G75*
G02*
X67049999Y-125050000I249999J0D01*
G01*
X67950001Y-125050000D01*
G75*
G02*
X68200000Y-125299999I0J-249999D01*
G01*
X68200000Y-125950001D01*
G75*
G02*
X67950001Y-126200000I-249999J0D01*
G01*
G37*
%TD*%
D14*
%TO.C,P1*%
X66950000Y-121445000D03*
X67750000Y-121445000D03*
X72650000Y-121445000D03*
X73450000Y-121445000D03*
X73450000Y-121445000D03*
X72650000Y-121445000D03*
X67750000Y-121445000D03*
X66950000Y-121445000D03*
D15*
X71950000Y-121445000D03*
X71450000Y-121445000D03*
X70950000Y-121445000D03*
X69950000Y-121445000D03*
X69450000Y-121445000D03*
X68950000Y-121445000D03*
X68450000Y-121445000D03*
X70450000Y-121445000D03*
%TD*%
M02*
