M48
; DRILL file {KiCad 5.1.10} date Mon Oct 11 19:57:19 2021
; FORMAT={-:-/ absolute / inch / decimal}
; #@! TF.CreationDate,2021-10-11T19:57:19-04:00
; #@! TF.GenerationSoftware,Kicad,Pcbnew,5.1.10
; #@! TF.FileFunction,NonPlated,1,2,NPTH
FMAT,2
INCH
T1C0.0256
T2C0.0689
T3C0.1260
T4C0.1575
%
G90
G05
T1
X2.65Y-4.7244
X2.8776Y-4.7244
T2
X3.3183Y-5.2077
X3.3183Y-6.0018
X3.7183Y-5.2077
X3.7183Y-6.0018
X4.1124Y-5.2077
X4.1124Y-6.0018
X4.5124Y-5.2077
X4.5124Y-6.0018
X4.9065Y-5.2077
X4.9065Y-6.0018
X5.3065Y-5.2077
X5.3065Y-6.0018
T3
X2.3425Y-4.6654
X2.3425Y-6.5551
X5.4134Y-4.6654
X5.4134Y-6.5551
T4
X3.5183Y-5.2077
X3.5183Y-6.0018
X4.3124Y-5.2077
X4.3124Y-6.0018
X5.1065Y-5.2077
X5.1065Y-6.0018
T0
M30
